<svg xmlns="http://www.w3.org/2000/svg" xml:space="preserve" width="200px" height="200px" viewBox="0 0 698.6 698.59">  <style type="text/css">    .fil1 {fill:none}    .fil0 {fill:#C9AE62}  </style> <g id="Layer_x0020_1">   <g id="_6215641264">   <g>    <path class="fil0" d="M195.52 207.36c0,-3.63 2.95,-6.58 6.58,-6.58 3.63,0 6.57,2.95 6.57,6.58l0 332.09c0,3.64 -2.94,6.58 -6.57,6.58 -3.63,0 -6.58,-2.94 -6.58,-6.58l0 -332.09z"></path>    <path class="fil0" d="M69.7 549.09c-5.32,0 -9.64,-4.32 -9.64,-9.64 0,-5.32 4.32,-9.64 9.64,-9.64l558.57 0c5.32,0 9.64,4.32 9.64,9.64 0,5.32 -4.32,9.64 -9.64,9.64l-558.57 0z"></path>    <path class="fil0" d="M328.39 156.07c0,-3.63 2.94,-6.57 6.57,-6.57 3.63,0 6.58,2.94 6.58,6.57l0 383.38c0,3.64 -2.95,6.58 -6.58,6.58 -3.63,0 -6.57,-2.94 -6.57,-6.58l0 -383.38z"></path>    <path class="fil0" d="M362.63 164.54c0,-2.43 1.96,-4.39 4.39,-4.39 2.41,0 4.38,1.96 4.38,4.39l0 374.91c0,2.42 -1.97,4.39 -4.38,4.39 -2.43,0 -4.39,-1.97 -4.39,-4.39l0 -374.91z"></path>    <path class="fil0" d="M107.29 261.53c0,-2.42 1.96,-4.39 4.38,-4.39 2.42,0 4.38,1.97 4.38,4.39l0 277.92c0,2.42 -1.96,4.39 -4.38,4.39 -2.42,0 -4.38,-1.97 -4.38,-4.39l0 -277.92z"></path>    <path class="fil0" d="M405.83 230.21c0,-2.42 1.96,-4.38 4.38,-4.38 2.42,0 4.38,1.96 4.38,4.38l0 309.24c0,2.42 -1.96,4.39 -4.38,4.39 -2.42,0 -4.38,-1.97 -4.38,-4.39l0 -309.24z"></path>    <path class="fil0" d="M332.65 149.94c3.39,-1.28 7.18,0.43 8.45,3.82 1.27,3.39 -0.44,7.18 -3.83,8.45l-132.62 50.2c-3.39,1.27 -7.17,-0.44 -8.45,-3.83 -1.27,-3.39 0.44,-7.17 3.83,-8.45l132.62 -50.19z"></path>    <path class="fil0" d="M196.95 223.11c3.38,-1.27 7.17,0.44 8.44,3.83 1.28,3.39 -0.44,7.17 -3.82,8.45l-130.11 48.93c-3.39,1.27 -7.18,-0.44 -8.45,-3.83 -1.27,-3.39 0.44,-7.17 3.83,-8.44l130.11 -48.94z"></path>    <path class="fil0" d="M196.95 279.09c3.38,-1.28 7.17,0.43 8.44,3.83 1.28,3.38 -0.44,7.17 -3.82,8.45l-130.11 48.92c-3.39,1.28 -7.18,-0.43 -8.45,-3.82 -1.27,-3.39 0.44,-7.17 3.83,-8.45l130.11 -48.93z"></path>    <path class="fil0" d="M62.61 279.91c0.01,-3.62 2.95,-6.54 6.57,-6.52 3.61,0.01 6.53,2.96 6.52,6.57l-0.32 53.05c-0.01,3.62 -2.96,6.54 -6.57,6.53 -3.62,-0.02 -6.54,-2.97 -6.53,-6.58l0.33 -53.05z"></path>    <path class="fil0" d="M631.97 477.84c3.63,0 6.58,2.94 6.58,6.57 0,3.63 -2.95,6.58 -6.58,6.58l-263.2 0c-3.64,0 -6.58,-2.95 -6.58,-6.58 0,-3.63 2.94,-6.57 6.58,-6.57l263.2 0z"></path>    <path class="fil0" d="M625.39 436.31c0,-3.63 2.94,-6.57 6.58,-6.57 3.63,0 6.57,2.94 6.57,6.57l0 45.51c0,3.63 -2.94,6.57 -6.57,6.57 -3.64,0 -6.58,-2.94 -6.58,-6.57l0 -45.51z"></path>    <path class="fil0" d="M632.67 425.84c3.6,0.39 6.21,3.62 5.83,7.22 -0.39,3.6 -3.62,6.21 -7.22,5.83l-220.43 -23.74 -39.25 12.49c-3.45,1.09 -7.13,-0.82 -8.22,-4.26 -1.09,-3.45 0.81,-7.13 4.26,-8.22l40.18 -12.79c0.95,-0.37 2,-0.53 3.08,-0.41l221.77 23.88z"></path>    <path class="fil0" d="M583.95 285.48c0,-2.42 1.97,-4.38 4.38,-4.38 2.42,0 4.39,1.96 4.39,4.38l0 253.97c0,2.42 -1.97,4.39 -4.39,4.39 -2.41,0 -4.38,-1.97 -4.38,-4.39l0 -253.97z"></path>    <path class="fil0" d="M625.39 253.62c0,-3.63 2.94,-6.57 6.58,-6.57 3.63,0 6.57,2.94 6.57,6.57l0 40.75c0,3.63 -2.94,6.57 -6.57,6.57 -3.64,0 -6.58,-2.94 -6.58,-6.57l0 -40.75z"></path>    <path class="fil0" d="M634.28 247.49c3.39,1.27 5.1,5.05 3.83,8.44 -1.28,3.39 -5.06,5.1 -8.45,3.83l-219.65 -82.61 -38.41 12.22c-3.45,1.09 -7.13,-0.81 -8.22,-4.26 -1.09,-3.45 0.81,-7.13 4.26,-8.22l40.24 -12.81c1.44,-0.55 3.08,-0.59 4.64,-0.01l221.76 83.42z"></path>    <path class="fil0" d="M633.92 289.45c3.46,1.07 5.39,4.76 4.31,8.21 -1.08,3.47 -4.76,5.4 -8.22,4.32l-219.81 -68.83 -38.6 12.29c-3.45,1.09 -7.13,-0.82 -8.22,-4.27 -1.09,-3.45 0.81,-7.13 4.26,-8.21l40.17 -12.79c1.34,-0.53 2.87,-0.62 4.35,-0.16l221.76 69.44z"></path>    <path class="fil0" d="M334.95 162.78c-3.53,-0.78 -5.77,-4.28 -4.98,-7.81 0.78,-3.53 4.27,-5.76 7.8,-4.98l28.39 6.33c3.53,0.78 5.76,4.28 4.98,7.81 -0.78,3.53 -4.27,5.76 -7.8,4.98l-28.39 -6.33z"></path>    <path class="fil0" d="M69.14 450.34c0,-3.63 2.95,-6.58 6.58,-6.58 3.63,0 6.57,2.95 6.57,6.58l0 34.99c0,3.63 -2.94,6.57 -6.57,6.57 -3.63,0 -6.58,-2.94 -6.58,-6.57l0 -34.99z"></path>    <path class="fil0" d="M76.41 452.91c-3.61,0.39 -6.84,-2.22 -7.22,-5.82 -0.38,-3.61 2.22,-6.84 5.83,-7.22l125.59 -13.53c3.6,-0.38 6.83,2.23 7.21,5.83 0.39,3.61 -2.22,6.84 -5.83,7.22l-125.58 13.52z"></path>    <path class="fil0" d="M75.74 494.06c-3.62,0.02 -6.56,-2.91 -6.57,-6.52 -0.02,-3.61 2.9,-6.56 6.52,-6.58l125.58 -0.67c3.62,-0.01 6.56,2.91 6.58,6.52 0.01,3.62 -2.91,6.56 -6.52,6.58l-125.59 0.67z"></path>   </g>   <rect class="fil1" width="698.6" height="698.6"></rect>  </g> </g></svg>