<svg xmlns="http://www.w3.org/2000/svg" xml:space="preserve" width="200px" height="200px" viewBox="0 0 29.13 29.13">	<style type="text/css">		.fil0 {fill:none}		.fil1 {fill:#C9AE62}  	</style> <g id="Layer_x0020_1">  <metadata id="CorelCorpID_0Corel-Layer"></metadata>  <g id="_5097053360">   <rect class="fil0" width="29.13" height="29.13"></rect>   <g>    <path class="fil1" d="M2.92 22.74c-0.22,0 -0.4,-0.18 -0.4,-0.4 0,-0.22 0.18,-0.4 0.4,-0.4l23.29 0c0.23,0 0.41,0.18 0.41,0.4 0,0.22 -0.18,0.4 -0.41,0.4l-23.29 0z"></path>    <path class="fil1" d="M23.47 14.41c0,-0.15 0.13,-0.27 0.28,-0.27 0.15,0 0.27,0.12 0.27,0.27l0 7.93c0,0.15 -0.12,0.28 -0.27,0.28 -0.15,0 -0.28,-0.13 -0.28,-0.28l0 -7.93z"></path>    <path class="fil1" d="M17.42 6.41c0.14,-0.05 0.3,0.02 0.35,0.16 0.05,0.14 -0.02,0.3 -0.16,0.35l-12.12 4.49c-0.14,0.06 -0.3,-0.02 -0.35,-0.16 -0.05,-0.14 0.02,-0.3 0.16,-0.35l12.12 -4.49z"></path>    <path class="fil1" d="M17.47 9.37c0.14,-0.03 0.29,0.05 0.33,0.2 0.04,0.14 -0.04,0.29 -0.19,0.33l-8.84 2.38c-0.14,0.04 -0.29,-0.05 -0.33,-0.19 -0.04,-0.15 0.04,-0.3 0.19,-0.34l8.84 -2.38z"></path>    <path class="fil1" d="M5.12 11.2c0,-0.16 0.12,-0.28 0.27,-0.28 0.16,0 0.28,0.12 0.28,0.28l0 11.14c0,0.15 -0.12,0.28 -0.28,0.28 -0.15,0 -0.27,-0.13 -0.27,-0.28l0 -11.14z"></path>    <path class="fil1" d="M8.43 12.03c0,-0.15 0.12,-0.27 0.27,-0.27 0.15,0 0.27,0.12 0.27,0.27l0 2.49c0,0.16 -0.12,0.28 -0.27,0.28 -0.15,0 -0.27,-0.12 -0.27,-0.28l0 -2.49z"></path>    <path class="fil1" d="M17.41 12.61c0.15,-0.03 0.29,0.07 0.32,0.21 0.03,0.15 -0.07,0.3 -0.22,0.32l-8.71 1.66c-0.15,0.03 -0.29,-0.07 -0.32,-0.22 -0.03,-0.15 0.07,-0.29 0.22,-0.32l8.71 -1.65z"></path>    <path class="fil1" d="M21.74 11.01c0,-0.1 0.08,-0.18 0.18,-0.18 0.1,0 0.18,0.08 0.18,0.18l0 2.89c0,0.1 -0.08,0.18 -0.18,0.18 -0.1,0 -0.18,-0.08 -0.18,-0.18l0 -2.89z"></path>    <path class="fil1" d="M15.38 15.86c0,-0.1 0.08,-0.18 0.18,-0.18 0.1,0 0.18,0.08 0.18,0.18l0.05 3.13c0,0.1 -0.08,0.18 -0.18,0.18 -0.1,0.01 -0.18,-0.08 -0.18,-0.18l-0.05 -3.13z"></path>    <path class="fil1" d="M15.43 15.5c0.15,-0.02 0.29,0.09 0.31,0.24 0.03,0.15 -0.08,0.28 -0.23,0.31l-9.94 1.46c-0.15,0.02 -0.29,-0.09 -0.31,-0.24 -0.02,-0.15 0.08,-0.28 0.23,-0.31l9.94 -1.46z"></path>    <path class="fil1" d="M15.48 18.75c0.15,-0.02 0.29,0.1 0.3,0.25 0.01,0.15 -0.1,0.28 -0.25,0.29l-9.89 0.95c-0.15,0.02 -0.28,-0.09 -0.3,-0.24 -0.01,-0.15 0.1,-0.29 0.25,-0.3l9.89 -0.95z"></path>    <path class="fil1" d="M6.72 17.86c0,-0.1 0.08,-0.19 0.18,-0.19 0.1,0 0.18,0.07 0.19,0.17l0.04 1.2c0,0.1 -0.08,0.18 -0.18,0.19 -0.1,0 -0.18,-0.08 -0.18,-0.18l-0.05 -1.19z"></path>    <path class="fil1" d="M17.46 9.9c-0.15,-0.04 -0.23,-0.2 -0.18,-0.34 0.04,-0.15 0.2,-0.23 0.34,-0.18l6.17 1.93c0.14,0.05 0.22,0.2 0.18,0.34 -0.05,0.15 -0.2,0.23 -0.35,0.18l-6.16 -1.93z"></path>    <path class="fil1" d="M23.57 8.91c0,-0.15 0.12,-0.27 0.27,-0.27 0.15,0 0.28,0.12 0.28,0.27l0 2.66c0,0.15 -0.13,0.28 -0.28,0.28 -0.15,0 -0.27,-0.13 -0.27,-0.28l0 -2.66z"></path>    <path class="fil1" d="M17.43 6.92c-0.15,-0.05 -0.22,-0.2 -0.17,-0.34 0.04,-0.15 0.2,-0.22 0.34,-0.17l6.3 2.17c0.14,0.05 0.22,0.2 0.17,0.35 -0.05,0.14 -0.21,0.21 -0.35,0.17l-6.29 -2.18z"></path>    <path class="fil1" d="M17.54 13.11c-0.15,-0.04 -0.24,-0.18 -0.2,-0.33 0.04,-0.15 0.19,-0.24 0.33,-0.2l6.15 1.57c0.14,0.03 0.23,0.18 0.19,0.33 -0.03,0.15 -0.18,0.23 -0.33,0.2l-6.14 -1.57z"></path>    <path class="fil1" d="M17.37 12.79c0,-0.1 0.08,-0.19 0.19,-0.19 0.1,0 0.18,0.09 0.18,0.19l0 9.74c0,0.1 -0.08,0.19 -0.18,0.19 -0.11,0 -0.19,-0.09 -0.19,-0.19l0 -9.74z"></path>   </g>  </g> </g></svg>