<svg xmlns="http://www.w3.org/2000/svg" viewBox="0 0 1080 1080" style="enable-background:new 0 0 1080 1080" xml:space="preserve"><path class="st0" d="M704.99 559.14c16.13-13.76 34.68-25.31 54.89-34.22 85.35-37.62 189.58-13.95 250.37 56.79 36.16 42.07 54.11 90.81 54.2 146.2.02 15.71.01 31.42 0 47.14-.01 14.51-6.85 21.41-21.24 21.42-73.2.01-146.41 0-219.61 0h-6.7c-.11 2.39-.27 4.29-.27 6.19-.02 15.35.07 30.71-.04 46.06-.09 12.82-7.18 19.91-19.98 19.91-171.04.03-342.09.03-513.13 0-12.82 0-19.72-7.02-19.79-19.98-.08-15.18-.02-30.35-.02-45.53v-6.65H37.49c-15.07 0-21.92-6.79-21.81-21.95.17-21.95-.83-44.02 1.01-65.84 6.04-71.83 39.44-128.33 100.06-167.19 80.69-51.72 181.8-44.84 256.04 15.71.97.79 1.95 1.54 2.46 1.95 109.84-71.67 219.13-71.76 329.74-.01zm75.07 272.65c0-6.57.02-12.79 0-19-.08-24.08.45-48.14-3.66-72.07-18.6-108.22-112.51-192.24-222.46-197.77-70.68-3.55-132.05 19.41-182.69 68.97-40.17 39.31-63.88 87.41-69.5 143.39-2.48 24.77-1.42 49.9-1.94 74.86-.01.48.35.96.6 1.62h479.65zM52.5 760.16c1.14.07 2.34.21 3.54.21 68.02.01 136.03-.02 204.05.08 3.72.01 4.85-1.27 5.18-4.82 2.33-24.62 7.76-48.58 16.52-71.7 13.52-35.68 33.9-67.03 60.44-94.41 1.93-1.99 3.78-4.07 5.75-6.21-1.23-1.01-1.89-1.6-2.6-2.13-48.19-35.75-101.63-47.04-159.44-31.16C103.07 572.79 41.19 648.2 52.5 760.16zm680.51-176.28c49.35 48.21 75.49 107.44 83.33 175.65h211.19c5.93-68.52-10.65-143.28-90.46-190.6-66.9-39.67-149.29-29.62-204.06 14.95z"/><path class="st0" d="M689.92 341.95c-.07 82.81-67.12 149.79-149.91 149.74-82.83-.05-149.78-67.1-149.69-149.9.09-82.82 67.23-149.89 149.89-149.72 82.96.17 149.79 67.07 149.71 149.88zm-263.58-.21c-.16 62.56 50.97 113.82 113.64 113.94 62.54.11 113.83-51.09 113.91-113.71.08-62.64-50.95-113.76-113.69-113.89-62.61-.14-113.7 50.86-113.86 113.66zM725.49 376.3c.11-66.21 53.84-120.03 119.83-120.04 67.4-.01 120.84 53.3 120.83 120.52-.01 66.62-54.08 120.37-120.81 120.09-66.51-.27-119.96-54.05-119.85-120.57zm120.16 84.26c46.7.06 84.62-37.76 84.49-84.26-.13-46.4-37.84-84.15-84.12-84.22-46.53-.07-84.54 37.88-84.51 84.38.04 46.34 37.76 84.04 84.14 84.1zM234.29 256.26c66.47.01 120.06 53.71 119.99 120.25-.07 66.49-53.77 120.12-120.23 120.09-66.38-.03-120.13-53.89-120.04-120.3.09-66.43 53.81-120.04 120.28-120.04zm83.91 120.51c.23-46.3-37.47-84.3-83.85-84.52-46.3-.22-84.09 37.52-84.18 84.07-.09 46.33 37.14 83.81 83.49 84.06 46.58.24 84.31-37.07 84.54-83.61z"/></svg>