<svg xmlns="http://www.w3.org/2000/svg" viewBox="0 0 1080 1080" style="enable-background:new 0 0 1080 1080" xml:space="preserve"><path class="st0" d="M240.72 899.53h404.1v-49.3c-17.5 0-34.52.05-51.55-.01-25.36-.1-37.87-12.86-37.98-38.62-.12-27 11.96-40.05 37.47-40.21 21.09-.13 42.18-.03 64.05-.03v-41.84H586.7c-29.64 0-31.42-1.78-31.42-31.57 0-14.22-.05-28.43.01-42.65.17-39.7 23.7-63.33 63.22-63.35 91.13-.05 182.26-.02 273.38-.02 37.91 0 75.82-.07 113.73.02 38.39.1 62.1 23.76 62.23 61.96.06 18.59.12 37.18-.04 55.77-.12 14.25-5.68 19.73-19.97 19.8-23.69.11-47.39.01-71.08.05-3.19.01-6.38.31-10.09.5v41.31c7.51 0 15.01-.01 22.51 0 15.31.01 30.63-.3 45.93.13 18.99.54 31.89 13.69 32.7 32.62.11 2.55.05 5.1.05 7.65-.06 25.88-12.33 38.35-37.98 38.45-17.02.07-34.04.01-51.63.01v49.36c3.69.18 7.51.52 11.32.53 20.05.06 40.1-.11 60.14.09 11.49.11 18.03 6.17 18.06 15.96.02 9.67-6.65 15.77-17.97 16.35-2.55.13-5.1.04-7.65.04-334.62 0-669.25 0-1003.87-.01-4 0-8.1.32-11.99-.4-9.05-1.67-14.36-7.2-13.89-16.69.47-9.42 6-14.5 15.38-15.21 3.26-.25 6.56-.11 9.84-.11H206.6V628.54c-3.99 2.89-7.09 5.11-10.16 7.37-31.11 22.93-64.65 37.24-104.06 26.49-42.98-11.73-70.19-40-78.27-83.63-7.82-42.19 6.63-77.46 40.56-104.29 2.54-2 5.09-3.99 7.78-6.1-16.23-32.22-18-64.67-2.99-97.26 10.59-22.99 27.68-40.09 50.79-50.58 6.05-2.75 7.48-6.02 7.21-12.42-2.59-61.49 44.33-111.49 104.73-112.05 61.62-.57 109.31 48.87 107.95 111.49-.08 3.85 1.82 9.72 4.67 11.35 60.09 34.34 77.89 86.38 49.95 149.67 30.28 20.79 48.52 49.23 50.19 86.83 1.18 26.55-6.98 50.29-23.6 70.98-39.53 49.22-94.17 51.03-170.63 5.31v267.83zm-37.09-483.67c1.26-.81 2.52-1.63 3.78-2.44 0-8.65-.01-17.29 0-25.94.03-16.07 5.14-23.82 15.85-24.06 10.79-.24 16.33 7.67 16.34 23.48.03 29.89.02 59.79.02 89.68v12.59l3.6 2.22c11.33-12.12 22.47-24.43 34.04-36.32 9.27-9.53 18.42-10.35 25.67-3.05 7.18 7.23 6.12 16.2-3.31 25.67-18.01 18.08-36.18 36-54.12 54.15-2.43 2.46-5.19 5.68-5.61 8.85-3.71 27.97.44 53.34 27.14 69.21 12.74 7.57 25.67 15.79 39.63 20.16 38.7 12.11 77.76-7.74 91.57-44.73 13.72-36.74-3.49-76.9-40.24-93.9-15.91-7.35-18.1-15.78-7.76-29.78 31.73-42.99 11.85-102.2-39.25-116.89-15.51-4.46-18.55-9.55-15.06-25.52 4.32-19.79 1.54-38.47-9.11-55.71-19.07-30.86-57.06-43.31-90.78-30.03-33.89 13.35-52.61 48.85-44.98 85.27 3.31 15.79.69 22.21-12.33 25.32-52.18 12.44-75.89 75.81-40.27 119.83 8.52 10.53 5.37 20.77-6.88 26.54-1.97.93-4.03 1.69-5.98 2.66-32.44 16.16-48.5 52.93-38.27 87.58 10.06 34.11 43.27 56.84 78.8 52.34 30.91-3.91 53.83-22 74.98-46.02-12.05-11.72-23.57-22.74-34.88-33.98-9.52-9.47-10.48-18.41-3.14-25.65 7.35-7.26 16.04-6.17 25.69 3.23 5.48 5.34 10.93 10.72 18.61 18.25 0-30.01.2-56.18-.25-82.33-.06-3.38-2.84-7.3-5.4-9.96-12.41-12.84-25.33-25.19-37.77-38.01-7.41-7.64-7.49-16.81-.94-23.36 6.45-6.46 15.81-6.43 23.34.99 6.21 6.1 11.55 13.07 17.27 19.66zm831.66 280.52c0-13.97.04-27.04-.01-40.1-.08-23.19-8.47-31.62-31.56-31.62-128.22-.01-256.45-.01-384.67-.01-2.55 0-5.11-.1-7.65.1-11.73.9-22.25 9.6-22.9 21.16-.93 16.59-.24 33.27-.24 50.47h447.03zm-91.03 154.83h-265.9c0 12.76.6 24.73-.19 36.61-.62 9.29 2.73 11.54 11.65 11.5 81.19-.31 162.39-.18 243.58-.22 3.5 0 6.99-.43 10.87-.68-.01-16.03-.01-31.21-.01-47.21zm91.09-47.02h-447v13.16h447v-13.16zm-157.22-33.16v-40.55H745.51v40.55h132.62zm34.14-40.9v40.43h20.49v-40.43h-20.49zm-200.93.14h-20.4v40.36h20.4v-40.36zM911.25 246.42c14.89-10.51 30.82-14.94 47.96-15.09 11.19-.1 18.17 6.11 18.37 15.74.2 9.58-6.39 15.56-17.66 16.66-6.12.59-12.33 1.37-18.22 3.06-8.21 2.35-13.96 7.12-14.53 16.81-.55 9.34-6.37 14.69-15.64 14.95-9.41.26-15.72-5.33-16.25-14.31-.68-11.55-7.64-15.82-17.01-18.19-5.25-1.32-10.73-1.85-16.14-2.36-10.9-1.02-17.93-7.72-17.49-16.98.44-9.27 7.86-15.51 18.92-15.37 17.13.21 33.06 4.68 47.69 15.08zM682.57 325.68c13.24 4.58 26.41 9.4 39.77 13.59 3.47 1.09 7.75 1.02 11.31.1 13.58-3.51 26.81-8.69 40.56-11.12 11.64-2.06 19.44 4.92 20.07 14.78.65 10.15-5.76 16.1-17.84 17.37-6.45.68-12.92 1.93-19.17 3.66-7.62 2.11-12.48 6.96-13.12 15.45-.73 9.77-6.06 15.64-16.03 15.7-10.02.05-15.47-5.95-16.15-15.6-.73-10.37-7.69-14.32-16.08-16.68-5.2-1.47-10.7-2.07-16.11-2.56-12.05-1.09-18.59-7.18-18.01-17.22.56-9.78 8.27-15.65 20.8-17.47zM544.19 208.39c10.47-7.52 26.05-11.78 42.79-12.15 11.98-.27 19.18 5.73 19.36 15.76.17 9.58-6.43 15.47-17.7 16.68-6.81.73-14.36.93-20.01 4.14-5.22 2.96-10.36 9.05-11.95 14.76-2.58 9.27-6.55 15.69-16.38 15.85-9.81.15-15.63-5.64-16.31-15.44-.63-9.12-6.03-13.85-13.85-16.13-5.87-1.71-12.06-2.61-18.17-3.18-11.93-1.11-18.69-7.26-18.2-17.24.49-9.92 7.86-16.72 19.82-14.88 15.83 2.43 31.29 7.19 50.6 11.83z"/></svg>