<svg xmlns="http://www.w3.org/2000/svg" viewBox="0 0 1080 1080" style="enable-background:new 0 0 1080 1080" xml:space="preserve"><path class="st0" d="M548.43 11.45c8.74 6.32 18.17 11.88 26.1 19.08 68.79 62.54 145.93 109.08 238.77 125.82 44.89 8.09 89.73 7.19 134.42-1.82 32.63-6.58 50.81 8.39 50.81 41.87 0 91.24-.98 182.49.21 273.71 2.27 174.46-64.21 317.44-194.34 432.11-76.94 67.79-163.57 120.58-255.31 165.51-.28.14-.44.54-.66.82h-16.91c-77.2-38.77-151.64-82.03-219.54-135.81-78.38-62.09-143.53-134.99-184.95-227.18-30.93-68.84-44.88-141.39-45.4-216.46-.69-99.34-.25-198.69-.17-298.03.02-25.39 19.14-42.79 43.42-37.77 127.27 26.28 237.85-11.25 338.4-87.53 14.85-11.26 28.43-24.19 42.92-35.94 8.09-6.56 16.86-12.28 25.32-18.38h16.91zM117.81 188.2c-.22 4.21-.52 7.32-.52 10.42-.02 95.47-.13 190.93.05 286.4.08 40.96 4.27 81.53 13.62 121.49 22.41 95.79 71.9 175.97 141.3 244.54 76.55 75.63 167.21 130.77 262.31 179.31 2.8 1.43 7.63 1.2 10.54-.23 81.46-40.15 158.86-86.69 227.71-146.44 126.35-109.64 193.54-246.07 190.39-415.46-1.65-88.74-.29-177.54-.29-266.31v-14.07c-78.49 16.9-154.39 10.85-228.47-16.13-73.63-26.82-136.66-70.52-193.37-124.24C420.64 156.69 285.67 221.31 117.81 188.2z"/><path class="st0" d="M258.25 550.86c-4.42 7.2-8.03 13.61-12.15 19.65-6.11 8.94-15.47 11.34-23.84 6.53-8.61-4.95-11.5-15.22-5.94-24.81 12.2-21.01 24.45-42.03 37.61-62.45 10.45-16.21 33.04-16.22 43.53.03 13.37 20.7 25.81 42.02 38.13 63.37 5.29 9.17 2.35 18.95-5.89 23.99-8.24 5.04-17.84 2.77-23.99-5.94-2.83-4.01-5.19-8.34-10.27-12.18 1.45 10.64 2.22 21.42 4.44 31.9 22.23 104.79 106.58 182.31 210.94 194.15C617.56 797.21 720 739.23 764.63 641.45c1.9-4.16 3.54-8.46 5.59-12.54 4.79-9.53 13.85-13.38 22.78-9.86 9.1 3.58 13.27 13.46 9.34 23.73-14.46 37.75-35.96 71.09-65.44 98.68-78.57 73.53-170.96 98.36-274.28 68.89-102.54-29.24-167.53-98.66-195.54-201.62-4.93-18.11-5.81-37.31-8.83-57.87zM820.01 514.67c4.41-7.33 8.56-14.57 13.04-21.6 6.44-10.11 16.31-12.93 25.16-7.46 8.42 5.2 10.89 15.23 5.19 25.02-11.88 20.39-23.82 40.77-36.52 60.65-11.69 18.31-34.24 17.7-45.95-1.01-12.14-19.41-23.8-39.13-35.46-58.83-6.47-10.94-4.54-21.32 4.48-26.72 9.17-5.48 18.58-2.31 25.74 8.62 1.05 1.6 2.33 3.04 4.15 4.1-10.78-74.63-47.43-132.35-113.16-170.1-116.94-67.15-282.31-34.75-348.95 106.02-4.14 8.74-9.97 14.81-20.3 13.42-8.17-1.1-13.82-6.41-14.54-14.52-.43-4.87 1.28-10.48 3.57-14.96 44.53-87.3 115.11-140.51 211.83-155.54 115.32-17.92 227 36.66 285.3 136.51 19.28 33.02 30.23 68.81 33.46 106.94.21 2.45.41 4.91.78 7.34.08.51.91.91 2.18 2.12z"/><path class="st0" d="M402.92 628.09c38.86 0 74.03-.01 109.2.01 4.22 0 8.5-.18 12.66.39 9.34 1.29 14.29 7.21 15.03 16.35.7 8.69-5.77 16.33-14.69 17.85-2.75.47-5.62.42-8.43.42-42.98.02-85.97.05-128.95 0-19.17-.02-25.45-6.91-23.24-26.1 2.27-19.76 11.85-36.39 25.92-49.6 16.12-15.13 33.69-28.75 51-42.57 10.45-8.34 21.72-15.64 32.39-23.72 5.32-4.03 10.34-8.52 15.06-13.23 13.27-13.23 19.45-28.96 12.39-47.09-6.75-17.35-22.34-24.02-39.31-26.16-34.42-4.34-59.42 16.43-62.92 51.12-1.21 11.99-8.39 19.22-18.57 18.7-10.29-.52-16.56-8.41-16.32-20.55.68-35.1 21.16-64.76 53.72-77.81 35.09-14.06 76.94-6.96 100.61 17.08 24.55 24.93 28.88 67.58 6.59 94.91-13.79 16.91-31.63 30.69-48.49 44.88-18.82 15.83-38.81 30.27-57.79 45.91-5.5 4.52-9.29 11.1-15.86 19.21z"/><path class="st0" d="M698.62 592.91c0 17.78.22 34.24-.07 50.68-.24 13.24-9.35 21.53-20.78 19.16-9.66-2.01-14.22-8.66-14.38-18.2-.23-13.38-.06-26.76-.12-40.14-.02-3.42-.29-6.85-.51-11.49h-12.02c-29.93 0-59.85-.06-89.78.03-8.39.03-15.27-2.33-19.17-10.35-3.73-7.68-1.26-14.2 3.63-20.48 40.02-51.37 79.98-102.79 119.91-154.23 5.5-7.09 12.35-10.76 21.17-7.76 9.31 3.17 12.21 10.67 12.19 20.01-.11 41.55-.04 83.09-.04 124.64v12.73c11.22 0 21.31-.16 31.4.04 13.54.26 21.49 7.23 21.16 18.2-.31 10.48-8.18 16.95-21.17 17.13-9.85.14-19.69.03-31.42.03zm-36.24-36.15v-87.65c-23.16 29.89-45 58.06-67.93 87.65h67.93zM198.98 379.33c14.62 6.64 29.73 12.4 43.63 20.3 6.76 3.84 7.58 12.45 3.71 19.96-4.02 7.8-10.95 11.87-19.21 9.1-12.96-4.34-25.72-9.6-37.98-15.63-7.74-3.81-10.29-11.55-7.6-19.91 2.5-7.8 8.28-11.97 17.45-13.82zM852.93 429.81c-12.13-.99-18.3-5.04-20.6-13.55-2.18-8.09.5-15.44 7.71-19 12.26-6.04 24.98-11.37 37.97-15.61 8.06-2.63 15.28 1.02 19.32 8.99 3.8 7.52 3.18 16.02-3.67 19.93-13.89 7.94-28.96 13.81-40.73 19.24zM671.37 248.33c-14.61-.04-23.54-10.76-19.98-21.69 4.12-12.66 9.4-25.03 15.2-37.02 4.09-8.45 13.5-11.03 21.67-7.54 8.27 3.54 13.03 11.94 9.96 20.76-4.38 12.59-9.35 25.1-15.56 36.86-2.4 4.53-8.88 6.89-11.29 8.63zM432.75 232.93c-6.47 5.73-10.93 11.79-16.9 14.44-7.5 3.33-15.18-.42-18.75-7.66-5.89-11.95-11-24.36-15.38-36.95-2.64-7.61.16-14.72 7.25-19.23 7.02-4.47 16.13-5.09 20.14 1.53 8.8 14.48 15.23 30.42 23.64 47.87zM247.91 673.04c-2.2 2.38-5.51 8.24-10.53 10.92-10.17 5.44-21.16 9.46-32.01 13.5-10.44 3.89-19.8-.23-23.53-9.61-3.5-8.81.29-18.13 9.96-22.57 10.54-4.83 21.21-9.49 32.14-13.29 13.16-4.59 25.56 4.75 23.97 21.05zM853.37 650.34c11.43 5.36 26.8 11.39 40.87 19.65 6.73 3.95 6.88 12.77 2.77 20.06-4.37 7.74-11.67 10.93-19.75 8.19-12.61-4.28-25.04-9.38-36.96-15.32-7.11-3.54-10.16-10.7-8.02-18.89 2.23-8.51 8.12-12.84 21.09-13.69zM431.94 848.05c-7.56 16.66-13.34 31.38-20.87 45.14-3.59 6.56-11.47 7.81-18.85 4.87-7.72-3.07-13.12-9.48-10.72-17.21 4.54-14.63 10.18-29.19 17.66-42.49 2.27-4.04 12.91-6.51 18.21-4.86 5.67 1.77 9.58 9.24 14.57 14.55zM672.58 831.75c2.54 2.41 8.73 6.14 11.77 11.63 5.41 9.78 9.21 20.5 13.14 31.03 3.94 10.56-.03 19.81-9.43 23.63-8.82 3.58-18.18-.08-22.64-9.78-4.99-10.85-9.71-21.88-13.56-33.18-4.13-12.1 4.44-23.6 20.72-23.33zM819.21 274.82c-.4 14.63-31.7 46.81-42.26 45.5-5.49-.69-12.86-4.56-15-9.07-2.35-4.96-1.96-14.08 1.27-18.26 8.12-10.49 17.82-20.13 28.34-28.2 4.2-3.22 13.06-3.41 18.31-1.29 4.76 1.93 7.48 8.88 9.34 11.32zM274.58 260.8c14.59.23 46.78 31.24 45.53 41.86-.64 5.48-4.46 12.81-8.95 15-4.92 2.4-14.05 2.18-18.19-1-10.48-8.06-20.09-17.71-28.15-28.19-3.23-4.19-3.49-13-1.42-18.25 1.88-4.77 8.78-7.55 11.18-9.42zM275.85 820.44c-3.95-3.2-10.78-6.11-12.58-10.91-1.98-5.29-1.54-13.98 1.72-18.24 7.81-10.23 17.51-19.14 27.16-27.8 6.87-6.16 15.07-5.73 22.09.24 7.01 5.96 9.45 14.61 3.68 21.6-9.31 11.28-20.35 21.16-31.03 31.26-2.05 1.93-5.77 2.1-11.04 3.85zM773.31 759.44c14.52-.05 46.62 31.22 45.24 42.07-.7 5.46-4.65 12.49-9.2 14.9-4.51 2.38-13.34 2.06-17.26-.97-10.5-8.12-20.3-17.62-28.48-28.05-3.28-4.18-3.63-13.03-1.57-18.3 1.87-4.83 8.79-7.68 11.27-9.65zM522.77 186.96c0-6.3-.48-12.66.11-18.9.88-9.15 8.13-15.37 16.95-15.44 8.83-.07 16.63 6.06 17.12 15.18.7 13.27.71 26.64-.04 39.9-.51 8.99-8.57 15.12-17.34 14.93-8.71-.19-15.91-6.57-16.72-15.72-.57-6.59-.1-13.29-.08-19.95zM557.35 892.34c0 5.96.33 11.94-.07 17.87-.71 10.39-8 17.3-17.55 17.17-9.18-.13-16.51-6.74-16.94-16.6-.54-12.24-.54-24.54-.02-36.78.41-9.77 7.82-16.49 16.93-16.64 9.55-.15 16.87 6.76 17.58 17.12.39 5.93.06 11.91.07 17.86z"/></svg>