<svg xmlns="http://www.w3.org/2000/svg" viewBox="0 0 1080 1080" style="enable-background:new 0 0 1080 1080" xml:space="preserve"><path class="st0" d="M10.3 557.15c8.12-25.13 27.22-42.44 44.37-60.88 11.14-11.97 26.65-15.1 42.75-15.08 56.84.07 113.68.03 170.52.02h12.9V425.9c-6.26 4.96-11.35 9.06-16.52 13.07-22.13 17.17-50.48 14.66-67.04-5.91-16.49-20.49-12.98-48.84 8.81-66.69 81.1-66.43 162.34-132.7 243.52-199.04 19.68-16.08 39.24-32.31 59.01-48.28 19.89-16.08 42.26-16.63 61.97-.57 101.52 82.72 202.94 165.59 304.18 248.65 21.53 17.67 24.15 46.41 7.19 66.88-16.28 19.66-45.19 21.78-66.4 4.86-4.95-3.95-9.85-7.94-16.01-12.9v55.24h12.51c55.78 0 111.56.32 167.34-.15 23.17-.2 41.81 7.3 56.24 25.84 12.47 16.02 28.09 29.82 34.03 50.24v29.66c-6.25 12.63-16.01 20.08-31.2 18.75v21.82c0 39.19.07 78.38-.06 117.57-.04 10.9-6.23 17.68-15.37 17.66-9.14-.03-14.96-6.8-15.24-17.79-.06-2.47-.02-4.94-.02-7.41V606.42H799.07v290.21h208.71v-11.96c.01-21.54-.17-43.08.12-64.61.13-9.56 6.41-15.57 15.09-15.62 8.69-.05 14.74 5.94 15.4 15.41.2 2.81.07 5.65.07 8.47v127.1c0 26.96-7.8 34.87-34.45 34.87-309.63.01-619.26.01-928.89 0-25.42 0-33.65-8.22-33.65-33.54-.01-112.62 0-225.25 0-337.87v-13.35c-15.72 1.11-25.02-6.46-31.2-18.74.03-9.86.03-19.75.03-29.64zm530.01-343.29c-2.05 1.42-3.25 2.14-4.33 3.02-72.45 59.18-144.96 118.28-217.1 177.83-3.76 3.11-6.11 10.09-6.12 15.27-.31 179-.26 358-.26 536.99v11.76h62.34c-1.36-26.47-3.28-53.2 30.7-61.38v-12.16c0-41.66-.1-83.32.03-124.98.15-49.55 32.78-82.09 82.46-82.29 33.89-.13 67.79-.06 101.68-.02 52.53.07 84.61 31.99 84.7 84.32.07 42.01 0 84.03.04 126.04 0 4.75-.83 8.9 6.09 11.3 17.28 6.01 24.76 17.99 24.87 36.39.05 7.58.01 15.17.01 22.91h61.49c.2-3.91.54-7.33.54-10.74.03-179.7-.03-359.41.2-539.11.01-7.21-2.46-11.61-7.83-15.94-31.59-25.5-62.92-51.31-94.36-77-41.51-33.92-83.06-67.83-125.15-102.21zM72.7 605.6v290.74h208.04V605.61h-12.03c-24.71 0-49.43.11-74.14-.06-11.57-.08-18.83-6.4-18.75-15.66.08-9.24 7.29-15.33 18.99-15.48 15.53-.2 31.07-.06 46.6-.06h39.29v-61.89h-12.1c-47.66 0-95.32-.22-142.98.06-53 .3-39.16-5.73-75.3 35.44-1.63 1.85-3.71 3.66-4.45 5.87-2.08 6.28-3.58 12.75-5.68 20.53 26.86 0 50.82-.11 74.77.05 12.33.08 19.77 6.47 19.43 16.09-.32 9.22-7.51 14.95-19.35 15.07-13.73.13-27.47.03-42.34.03zm467.53-429.09c5.14 3.2 9.87 5.48 13.83 8.7 56.95 46.36 113.8 92.85 170.67 139.31 36.36 29.71 72.66 59.5 109.1 89.12 10.06 8.17 19.85 7.39 25.59-1.46 5.02-7.74 2.81-15.44-7.13-23.56-98.94-80.9-197.9-161.78-296.89-242.63-13.39-10.94-17.4-10.85-31.16.39-80.94 66.13-161.84 132.29-242.75 198.43-18.86 15.42-37.86 30.67-56.56 46.28-8.06 6.73-9.03 15.32-3.41 22.36 5.61 7.02 14.31 7.79 22.58 1.86 2.86-2.05 5.54-4.38 8.27-6.61 91.32-74.61 182.61-149.25 274-223.77 3.95-3.22 8.75-5.36 13.86-8.42zM524.6 896.72c0-61.19.07-121.12-.3-181.05-.01-2.2-4.28-6.09-6.77-6.27-10.18-.72-20.44-.41-30.67-.29-31.67.35-50.38 19.28-50.43 51.08-.06 41.97-.03 83.95.01 125.92 0 3.39.35 6.78.56 10.61h87.6zm118.81-.07c0-48.85.54-96.81-.26-144.74-.33-19.73-15.16-38.07-34.14-40.83-17.12-2.48-34.88-.52-52.92-.52v186.09h87.32zm397.91-322.92c-3.88-9.34-5.85-17.16-10.07-23.48-5.65-8.44-13.41-15.43-19.6-23.55-7.96-10.43-17.96-14.51-31.08-14.42-57.13.4-114.26.16-171.38.19-3.35 0-6.71.36-10 .55v60.7c79.72.01 158.87.01 242.13.01zm-366.86 385.7v-15.6c-.01-15.66-.02-15.66-15.85-15.66H478.83c-20.8 0-41.6-.28-62.39.26-3.62.09-9.85 3.18-10.25 5.64-1.31 8.08-.49 16.51-.49 25.05 3.26.15 4.98.31 6.7.31h262.06zm-393.62-30.62H72.88v30h207.96v-30zm518.3 29.96h207.96v-29.96H799.14v29.96z"/><path class="st0" d="M829.86 751.02c0-18.33-.1-36.66.03-55 .13-18 10-28.26 28.14-28.44 29.96-.31 59.93-.29 89.9-.01 18.57.17 28.54 10.51 28.6 29.16.12 36.31.12 72.62 0 108.93-.06 19.39-9.87 29.23-29.32 29.33-29.61.15-59.23.18-88.84-.02-18.83-.12-28.39-10.01-28.5-28.96-.09-18.32-.01-36.66-.01-54.99zm31.38 52.44h83.42V699.3h-83.42v104.16zM540.03 646.75c-44.1 0-88.2.02-132.3-.01-24.72-.02-33.21-8.48-33.16-32.9.06-34.92 22.57-59.52 57.44-59.87 71.97-.73 143.95-.79 215.91.01 38.66.43 64.03 33.3 57.19 71.42-2.4 13.39-12.59 21.24-28.54 21.3-38.46.14-76.91.05-115.37.05h-21.17zm-133.99-31.38h267.25c2.37-18.14-7.85-30.4-26.39-30.47-71.2-.28-142.41-.27-213.61-.02-17.97.07-27.42 10.72-27.25 30.49zM643.52 408.4c.31 56.93-46.54 104.01-103.5 104.01-56.55 0-103.2-46.35-103.56-102.9-.36-56.84 46.58-104.01 103.5-104.01 56.53-.01 103.26 46.43 103.56 102.9zm-103.17 72.78c40.28-.18 72.19-32.59 71.94-73.07-.25-39.52-32.87-71.58-72.65-71.4-40.15.18-72.14 32.72-71.91 73.17.21 39.53 32.75 71.48 72.62 71.3zM250.13 751.06c0 18.68.13 37.37-.04 56.05-.16 17.53-10 27.7-27.46 27.84-30.67.25-61.34.27-92.01-.02-16.82-.16-27.02-10.44-27.11-27.19-.22-37.72-.22-75.44.01-113.16.1-15.65 9.92-26.51 25.42-26.81 31.72-.6 63.46-.58 95.18-.05 16.21.27 25.8 10.97 25.97 27.29.2 18.68.05 37.36.04 56.05zm-31.2-51.71h-83.75v104.02h83.75V699.35z"/><path class="st0" d="M524.84 392.54c0-6-.46-12.03.11-17.98.86-9.13 6.66-14.22 15.54-13.98 8.32.22 15.16 5.44 14.33 13.87-1.85 18.97 3.56 32.85 20.75 42.71 7.11 4.08 7.19 12.84 2.18 19.79-5.01 6.94-12.61 8.86-19.63 4.34-10.34-6.64-21.46-13.34-28.98-22.66-5.01-6.21-4.34-17-6.22-25.75.64-.1 1.28-.22 1.92-.34z"/></svg>