<svg xmlns="http://www.w3.org/2000/svg" viewBox="0 0 1080 1080" style="enable-background:new 0 0 1080 1080" xml:space="preserve"><path class="st0" d="M24.76 236.21c4.65-9.71 11.36-16.77 23.06-15.93 62.65 4.51 125.28 9.46 185.77 28.05 11.07 3.4 21.72 8.52 32.09 13.8 12.76 6.5 18.2 17.12 14.94 31.62-.79 3.51-.83 7.19-1.37 12.17h10.55c50.47 0 100.94.17 151.41-.25 5.47-.05 11.77-2.36 16.23-5.61 31.74-23.12 65.94-37.81 106.26-33.77 25.6 2.56 49.19 11.57 72.64 21.48 35.65 15.07 71.51 29.61 107.31 44.32 3 1.23 6.16 2.05 9.46 3.13-.6-18.73 3.17-24.21 20.71-30.99 57.51-22.24 117.52-32.82 178.64-37.82 24.29-1.99 48.7-2.66 73.08-3.45 17.66-.57 26.15 7.83 26.15 25.23.05 125.69.04 251.39 0 377.08-.01 17.52-8.11 25.71-25.79 25.77-39.11.14-78.21.07-117.32.04-18.03-.01-23.81-4.32-28.99-21.33-1.24-4.08-2.46-8.16-4.14-13.71-10.94 7.32-20.92 13.75-30.53 20.69-1.6 1.15-2.48 4.63-2.21 6.85 4.71 38.58-26.35 74.5-66.9 77.84-3.18.26-7.28 2.89-8.96 5.63-18.3 29.89-45.51 42.01-79.54 40.1-5.51-.31-8.14.53-11.02 5.33-18.98 31.61-56.27 46.82-85.55 36.79-1.89-.65-4.78-.48-6.42.55-25.65 16.2-52.55 14.25-80.13 6.28-26.22-7.58-48.41-22.26-69.53-38.79-53.15-41.6-106.88-82.5-158.94-125.43-26.7-22.02-50.33-47.78-76.18-72.66-1.41 4.2-2.85 8.7-4.42 13.16-3.48 9.88-10.27 15.48-20.95 15.49-42.45.06-84.9-.08-127.34.1-10.88.05-16.77-6.6-22.07-14.56v-397.2zm618.77 550.67c-33.1-34.12-64.04-66-94.94-97.91-2.32-2.39-4.68-4.83-6.52-7.58-6.03-9.03-4.71-20.16 3.01-27.38 7.91-7.4 19.79-7.78 28.29-.57 3.55 3.01 6.56 6.65 9.87 9.96 30.67 30.75 60.99 61.85 92.19 92.05 13.83 13.39 34.53 11.7 48.39-1.79 5.98-5.83 6.95-10.22-.05-17.15-37.77-37.37-74.97-75.32-112.23-113.19-11.34-11.53-12-24.27-2.32-33.45 9.73-9.23 21.71-7.8 33.35 4.1 9.82 10.03 19.43 20.27 29.34 30.21 28.78 28.88 57.69 57.62 86.47 86.5 6.14 6.17 12.87 9.21 21.63 6.37 17.09-5.54 24.8-22.33 16.7-38.36-3.72-7.37-8.38-14.66-14.06-20.58-16.41-17.1-32.6-34.6-50.59-49.95-57.43-49.01-115.61-97.16-173.69-145.4-2.11-1.76-6.72-2.09-9.52-1.16-10.42 3.47-20.36 8.46-30.89 11.46-7.37 2.1-12.85 5.32-17.94 11.2-29.7 34.26-66.45 48.18-111.28 36.47-34.64-9.05-50.82-35.28-43.87-70.6 6.73-34.14 24.98-62.25 46.63-88.54 3.25-3.95 6.6-7.82 10.65-12.6H272.19c-2.66 12.33-4.78 24.46-7.92 36.32-15.71 59.34-31.75 118.59-47.39 177.95-.95 3.61-1.01 9.35 1.14 11.58 25.29 26.2 49.15 54.27 77.14 77.28 61.13 50.26 124.3 98.06 186.94 146.46 15.02 11.61 32.86 17.62 51.66 20.28 3.98.56 8.11.08 12.16.08l1.86-3.51c-21.83-21.11-43.77-42.12-65.43-63.4-8.57-8.42-16.92-17.15-24.64-26.35-7.58-9.02-6.34-21.23 1.93-28.94 8.1-7.56 20.38-7.55 29.05.21 3.23 2.89 6.03 6.25 9.11 9.31 32.22 32.03 64.26 64.24 96.82 95.92 9.66 9.4 18.88 10.08 30.04 2.57 7.17-4.85 12.81-12.01 18.87-17.87zM823.31 639.4c11.38-7.63 22.05-15.09 33.05-22.03 4.65-2.93 5.05-5.82 3.24-10.72-25.52-69.51-50.79-139.11-76.4-208.58-1.2-3.26-4.45-6.85-7.63-8.14-58.06-23.65-116.22-47.06-174.43-70.35-33.01-13.21-66.33-17.34-98.23 2.24-40.34 24.75-74.86 56.14-99.52 96.95-7.46 12.35-12.03 26.62-16.68 40.44-2.37 7.04-1.91 15.73 7.45 18.08 9.88 2.48 20.33 4.9 30.33 4.25 22.12-1.42 36.45-16.09 49.48-32.44 4.22-5.3 9.33-11.21 15.32-13.53 19.49-7.54 39.71-13.16 59.36-20.29 11.08-4.02 19.69-2.04 28.36 5.78 20.58 18.57 41.41 36.89 62.62 54.72 62.6 52.58 129.58 100.18 183.68 163.62zm185.05 8.54V306.07c-69.77 1.9-137.53 10.82-203.03 32.2 13.58 34.23 27.62 67.08 39.7 100.64 23.95 66.55 46.77 133.51 70.31 200.22 1.19 3.37 4.73 8.38 7.27 8.43 28.35.6 56.73.38 85.75.38zM237.95 294.19c-55.88-18.86-112.7-24.32-169.95-29.61V604.9h91.13c30.98-101.82 62.18-203.52 78.82-310.71z"/></svg>