<svg xmlns="http://www.w3.org/2000/svg" viewBox="0 0 1080 1080" style="enable-background:new 0 0 1080 1080" xml:space="preserve"><path class="st0" d="M1070.08 302.48v21.21c-5.48 15.7-13.25 29.94-29.14 37.07-7.32 3.28-9.21 7.38-9.18 15.13.32 80.91.22 161.83.17 242.74-.01 12.58-5.81 20.02-15.33 20.21-9.51.2-15.53-7.31-15.82-19.76-.07-2.83-.02-5.65-.02-8.48V367.7H752.18v602.48h248.58v-13.33c0-83.74 0-167.48.01-251.22 0-3.18-.15-6.38.12-9.54.84-10.19 7.12-16.45 15.98-16.14 8.4.29 14.3 6.54 15.02 16.07.21 2.81.09 5.65.09 8.48 0 90.81.01 181.62 0 272.42 0 21.59-3.79 25.43-25.06 25.43H73.13c-21.29 0-25.04-3.82-25.04-25.43V379.07c0-3.18.38-6.43-.17-9.51-.37-2.07-1.62-5.02-3.24-5.68-18.46-7.54-28.66-22.03-34.71-40.18v-21.21c10.72-32.75 34.01-44.08 67.43-43.61 79.13 1.11 158.29.35 237.43.35h13v-73.11c-3.01-.21-5.43-.31-7.83-.54-25.67-2.5-45.81-20.88-49.33-45-5.08-34.82 19.63-62.9 55.86-62.93 140.27-.1 280.54-.04 420.81-.04 1.77 0 3.54-.01 5.3.08 27.39 1.35 48.97 22.15 51.72 49.81 2.59 26.08-15.8 50.68-42.41 56.72-3.32.75-6.62 1.55-9.75 2.29v72.72h13.04c81.97 0 163.94-.06 245.92.04 28.63.04 47.82 13.01 56.49 37.57.65 1.93 1.6 3.77 2.43 5.64zM360.23 186.16v783.93h50.39v-13.43c0-66.42-.01-132.85 0-199.27 0-18.37 4.17-22.6 22.22-22.6 71.36-.01 142.73-.01 214.09 0 18.18 0 22.44 4.22 22.44 22.39.02 66.78.01 133.55.01 200.33v12.64h50.32V186.16H360.23zm-32.26 181.71H79.96v602.21h248.01V367.87zm208.95-213.36h205.5c19.9 0 30.6-7.76 30.92-22.42.33-15.06-10.47-23.09-31.14-23.09-136.65 0-273.3 0-409.94.01-3.53 0-7.08-.1-10.59.2-10.63.91-18.34 7.94-20.4 18.36-2.96 14.98 8.33 26.89 25.9 26.91 69.93.07 139.84.03 209.75.03zm19.17 611.87v203.66h81.62V766.38h-81.62zm-113.9 203.93h81.77V766.5h-81.77v203.81zM327.97 290.56c-2.95-.23-4.67-.47-6.39-.47-84.77-.02-169.53-.03-254.3.05-3.48 0-7.09.5-10.42 1.51-9.67 2.93-15.66 11.42-15.66 21.49 0 10.02 6.03 18.8 15.67 21.47 4.67 1.29 9.75 1.52 14.65 1.52 81.59.09 163.18.06 244.76.06h11.68c.01-15.88.01-30.25.01-45.63zm424.08 45.21c3.61.18 6.03.41 8.44.41 83.7.02 167.41.03 251.11-.05 3.84 0 7.82-.38 11.48-1.47 9.62-2.84 15.69-11.46 15.71-21.48.02-10.06-5.91-18.72-15.64-21.47-4.66-1.32-9.74-1.58-14.63-1.59-81.58-.09-163.17-.06-244.75-.07h-11.71c-.01 15.86-.01 30.23-.01 45.72z"/><path class="st0" d="M876.05 543.94c-21.54 0-43.08.07-64.61-.02-14.97-.07-20.39-5.45-20.46-20.51-.12-26.13-.12-52.26 0-78.39.07-15.59 5.38-20.81 21.3-20.84 42.72-.09 85.45-.09 128.17-.01 15.74.03 20.88 5.25 20.94 21.16.1 26.13.13 52.26-.02 78.39-.09 15.01-5.48 20.16-20.7 20.21-21.55.07-43.08.02-64.62.01zm53.66-88.11H822.64v56.19h107.07v-56.19zM875.92 610.22c21.54 0 43.07-.04 64.61.01 15.22.03 20.74 5.19 20.83 20.04.16 26.48.15 52.96.01 79.44-.08 14.73-5.29 20.08-19.73 20.13-43.42.13-86.85.13-130.28 0-15.14-.04-20.31-5.35-20.39-20.62-.13-26.13-.12-52.26 0-78.38.07-15.16 5.47-20.54 20.35-20.6 21.53-.08 43.07-.02 64.6-.02zm53.95 32.1H822.69v55.65h107.18v-55.65zM876.83 796.49c21.88 0 43.76-.08 65.64.03 13.3.06 18.74 5.19 18.86 18.53.24 27.17.23 54.35.01 81.53-.11 13.88-5.48 18.98-19.55 19-43.76.09-87.52.1-131.28-.01-13.89-.03-19.4-5.37-19.5-19.15-.2-26.82-.19-53.65-.01-80.47.09-14.36 5.5-19.4 20.19-19.44 21.88-.07 43.76-.02 65.64-.02zm52.97 31.88H822.66v55.58H929.8v-55.58zM593.28 326.17c14.31 0 27.3-.12 40.28.03 16.51.19 24.53 8.25 24.66 24.92.15 19.07.17 38.13-.01 57.2-.15 16-8.17 23.77-24.36 23.91-13 .11-26 .02-40.56.02 0 13.39.06 25.96-.01 38.53-.1 18.91-7.47 26.32-26.31 26.39-18.71.07-37.42.15-56.13-.03-16.08-.16-23.87-8.07-24.08-24.29-.17-13.01-.03-26.02-.03-40.6-13.73 0-26.64.06-39.55-.01-17.64-.1-25.29-7.59-25.39-25.02-.11-18.71-.14-37.43.01-56.14.13-16.68 8.13-24.69 24.69-24.88 12.98-.14 25.96-.03 40.25-.03 0-13.65-.07-26.26.02-38.86.12-18.24 7.46-25.66 25.73-25.78 18.71-.13 37.42-.18 56.13.02 16.92.18 24.47 7.83 24.65 24.74.13 12.67.01 25.34.01 39.88zm32.99 75.3v-44.11c-14.5 0-28.23.03-41.96-.01-17.34-.05-21.95-4.63-22.04-21.99-.07-14.01-.01-28.03-.01-42.47h-42.91c-.66 1.2-1.29 1.8-1.3 2.41-.15 13.42-.21 26.84-.32 40.26-.14 17.16-4.81 21.75-22.26 21.8-13.97.03-27.94.01-41.67.01v44.1c14.22 0 27.6-.02 40.98 0 19.05.03 22.9 3.89 22.95 23.07.03 13.63.01 27.26.01 40.65h44.53c0-15.54-.18-30.32.05-45.1.21-13.32 5.47-18.44 18.86-18.58 14.78-.16 29.56-.04 45.09-.04zM539.56 577.47c-20.49 0-40.98.1-61.47-.04-12.08-.08-18.76-5.62-18.98-15.24-.23-10.06 6.62-15.85 19.31-15.87 40.98-.07 81.96-.07 122.94 0 12.8.02 19.65 5.66 19.52 15.67-.13 9.98-6.94 15.4-19.85 15.45-20.49.09-40.98.03-61.47.03zM539.42 650.55c-20.48 0-40.95.08-61.43-.03-12.32-.07-18.73-5.34-18.86-15.09-.13-9.83 6.23-15.59 18.41-15.63 41.66-.16 83.31-.16 124.97 0 12.13.05 18.52 5.91 18.34 15.71-.18 9.73-6.59 14.95-18.95 15.01-20.82.11-41.65.03-62.48.03zM203.01 543.95c-21.18 0-42.36.05-63.54-.02-15.29-.05-20.75-5.17-20.83-20.06-.15-26.48-.15-52.96 0-79.43.09-15.07 5.4-20.23 20.74-20.27 43.07-.09 86.13-.11 129.2.02 14.98.04 20.3 5.5 20.38 20.68.13 26.12.13 52.25 0 78.37-.08 15.59-5.38 20.64-21.35 20.69-21.54.06-43.07.01-64.6.02zm-52.87-32.06h107.17v-55.76H150.14v55.76zM203.92 610.22c21.53 0 43.06-.06 64.59.02 14.63.05 20.3 5.26 20.41 19.44.21 26.83.2 53.66.01 80.48-.1 14.38-5.53 19.63-20.24 19.68-43.41.13-86.83.13-130.25 0-14.5-.04-19.72-5.35-19.81-20.03-.16-26.47-.15-52.95 0-79.42.08-14.96 5.51-20.11 20.69-20.15 21.54-.05 43.07-.01 64.6-.02zm-53.34 31.8v56.24h106.63v-56.24H150.58zM203.98 796.49c21.88 0 43.75-.07 65.63.03 13.82.06 19.2 5.25 19.31 19.24.21 26.82.2 53.64.01 80.45-.1 13.94-5.5 19.32-19.28 19.35-44.11.12-88.21.12-132.32 0-13.19-.04-18.56-5.37-18.67-18.79-.22-27.17-.22-54.34 0-81.51.11-13.81 5.48-18.71 19.69-18.76 21.88-.07 43.76-.01 65.63-.01zm-53.61 87.56h106.7v-55.84h-106.7v55.84z"/></svg>