<svg xmlns="http://www.w3.org/2000/svg" viewBox="0 0 1080 1080" style="enable-background:new 0 0 1080 1080" xml:space="preserve"><path class="st0" d="M1057.88 516.9v52.22c-2.77 20.49-4.62 41.16-8.46 61.45-23.13 122.27-81.84 224.63-177.85 303.48-121.19 99.54-260.78 137.29-415.68 110.99-137.74-23.39-247.43-94.05-329.59-206.66-57.14-78.31-88.54-166.48-95.23-263.32-5.2-75.19 5.59-148 32.35-218.48 27.91-73.5 70.76-137.05 127.71-190.99C265.47 95.18 353.26 50.91 454.1 32.92c19.68-3.51 39.63-5.45 59.46-8.12h60.26c3.26.6 6.49 1.5 9.77 1.75 69.23 5.13 134.6 23.87 196.13 55.88 94.75 49.28 166.86 121.81 217.67 215.32 28.45 52.35 46.82 108.39 54.7 167.63 2.27 17.12 3.88 34.34 5.79 51.52zM893.96 835.72c0-4.23.36-8.24-.08-12.16-.87-7.77.47-17.7-3.8-22.79-11.85-14.12-16.6-29.2-14.08-47.03 1.08-7.64-1.81-13.25-7.5-18.42-8.11-7.36-9.39-17.39-4.44-27.12 3.64-7.15 8.02-14 10.87-21.44 1.41-3.68 1.57-9.14-.17-12.51-7.85-15.13-16.92-29.61-24.79-44.73-2.42-4.66-3.38-10.6-3.3-15.93.16-10.22 1.54-20.41 2.48-31.27-4.75-.48-8.36-.82-11.97-1.23-3.99-.45-8.05-.62-11.93-1.54-3.08-.73-6.48-1.76-8.8-3.75-12.03-10.3-21.73-10.51-35.23-1.02-2.7 1.89-6.73 2.17-10.22 2.6-10.7 1.3-21.41 2.53-32.15 3.37-8.97.7-17.23.9-23.96-8.03-9.84-13.06-21.42-24.82-32.21-37.16-4.35-4.98-7.54-39.87-4.19-45.4.32-.52.84-1.07 1.39-1.28 8.46-3.18 6.28-10.41 7.08-16.84-3.74-.74-6.88-1.36-9.03-1.78-6.95-11.16-3.02-17.59 6.48-23.51 11.62-7.24 22.15-16.2 33.56-23.79 5.4-3.59 7.55-7.61 7.16-14.02-.36-5.9-1.73-15.09 1.3-17.22 8.92-6.27 19.44-11.1 30.02-13.91 8.73-2.32 20.16 2.16 27.39-1.82 21.33-11.75 44.26-6.97 67.36-11.48v26.57c19.77 5.99 38.44 11.65 57.5 17.43.39-5.77.67-10 .94-14.01 19.83-4.79 22.05-4.78 37.37 7.37 15.45 12.25 32.09 4.28 50 6.7-3.7-10.91-7.3-18.9-9.02-27.27-2.16-10.51-7.27-13.81-17.95-12.85-14.65 1.32-23.21-7.27-24.55-22.18-.34-3.78-.97-7.53-1.46-11.24-18.41 3.64-13.42 20.37-19.83 30.92-9.31-9.05-20.48-16.66-18.4-32.18.21-1.55-.07-3.82-1.06-4.76-7.29-6.88-14.08-14.78-22.56-19.74-5.06-2.95-12.89-1.16-19.19-1.49-1.18 23.15 20.98 23.88 31.65 34.49-1.27 3.94-3.58 7.36-3.11 10.33 1.48 9.27-4.51 12.13-11.18 13.09-6.69.96-13.19-.76-15-9.25 14.55-1.38 14.55-1.38 17.1-6.71-11.97-12.48-31.56-15.84-39.22-34.06-3.56 3.21-6.54 6.44-10.07 8.86-2.2 1.52-5.75 3.2-7.81 2.44-9.16-3.4-14.24.7-18.88 7.95-3.95 6.18-11.07 11.11-12.94 17.69-4.97 17.49-18.22 15.43-31.02 15.58-3.35.04-7.16 1.04-9.95-.21-5.66-2.53-12.67-5.13-15.58-9.87-3.22-5.24-3.33-12.93-3.23-19.53.13-8.18 1.86-16.49 12.86-16.66 12.41-.18 24.83-.04 37.89-.04.73-3.14 1.61-6.93 2.51-10.83-3.72-1.5-6.72-2.71-9.75-3.94.7-4.77.48-9.45 2.22-13.21 1.48-3.21 5.16-7.54 7.98-7.62 13.5-.42 22.44-6.66 28.28-18.41 3.38-6.8 8.64-10.7 16.69-10.49 9.43.24 18.87.06 28.86.06-1.15-7.34-2.16-13.82-3.29-21.02-6.87 2.36-12.96 4.45-17.2 5.91-5.18-6.29-8.4-13.14-13.76-16-7.41-3.96-11.14-10.58-4.88-16.23 5.5-4.96 12.89-7.77 19.16-11.95 5.09-3.39 9.76-7.41 15.03-11.47C671.99 24.14 419.29 41.79 269.23 157.25c20.97-.99 38.64 5.41 55.19 15.08-.3 1.05-.59 2.09-.89 3.14h29.81c-5.41-17.02-20.14-5.56-28.54-11.09 5.08-10.13 3.54-12.65-8.24-12.71-4.17-.02-8.33 0-12.5 0 7.13-7.76 14.42-14.08 22.55-19.01 9.53-5.78 28.8-.85 35.3 8.06 7.88 10.81 22.92 12.31 32.39 2.69 5-5.08 9.26-7.34 14.3-1.2-8.32 14.76-21.52 19.61-38.11 17.15.78 6.23 1.36 10.83 2.01 15.98 6.91 0 13.22.2 19.51-.08 3.17-.14 8.49-.38 9.06-1.94 2.69-7.43 8.73-6.59 14.11-6.59 8.87 0 11.82-3.96 10.08-12.26-3.33-.95-6.39-1.82-12.46-3.54 5.12-4.71 8.35-10.24 12.22-10.73 10.33-1.31 20.93-.44 32.48-.44-4.75 10.09-20.16 12.84-13.1 24.99 2.42 4.17 10.86 4.84 18.21 7.78-.42-7.79-.98-12.72-.82-17.63.08-2.38.83-6.05 2.42-6.84 6.79-3.37 13.85-6.37 21.09-8.62 18.7-5.81 35.07 1.26 51.68 9.12 10.77 5.1 21.43 8.68 16.23 24.05l13.25 4.02c-1.61 9.6-6.03 14.9-16.17 13.12-7.07-1.24-11.42 1.41-12.92 8.68-.45 2.16-1.92 4.11-3.15 6.62-14.3-3.43-28.23-6.76-44.46-10.65 12.98-7.19 23.56-13.05 35.85-19.86-6.7-4.31-11.69-10.2-16.57-10.11-10.38.19-21.17 2.26-30.92 5.9-8.07 3.01-14.88 9.36-23.6 15.12.42.77 2.24 4.15 3.63 6.71-7.21 3.95-14.14 7.74-21.76 11.92-1.78-6.49-2.89-10.54-3.98-14.52-22.54 3.75-39.32 17.83-57.99 28-1.46.8-3.45 3.5-3.06 4.37 2.85 6.4 4.69 15.13 9.8 18.21 8.41 5.07 19.06 6.42 29.96 9.7v23.89c1 .66 2 1.32 2.99 1.98 3.48-3.12 7.42-5.86 10.33-9.44 3.85-4.73 6.33-13.96 10.39-14.57 20.53-3.06 24.62-15.25 21.71-32.9-.16-.98-.42-2.5.08-2.93 5.39-4.66 10.79-12.7 16.44-12.92 9.9-.38 19.98 4.08 30.57 6.66-.59 7.12-1.12 13.6-1.93 23.4 12.3-4.94 22.46-9.03 33.11-13.31.31 1.82.75 3.06.68 4.27-.75 13.45-.26 25.81 15.42 31.94 2.44.95 2.91 9.42 2.44 14.24-.22 2.29-4.71 4.27-7.4 6.19-2.78 1.98-5.72 3.72-8.59 5.57 2.6 2.2 5.12 4.51 7.84 6.55 1.31.98 2.95 1.62 4.53 2.1 7.93 2.43 10.55 7.23 6.46 16.46-7.5-2.2-15.09-4.32-22.61-6.65-10.17-3.15-10.74-6.01-4.39-14.23 1.7-2.2.97-6.27 1.36-9.48-2.63.82-5.96.9-7.76 2.6-6.21 5.88-19.02 5.15-25.21-.21-3.45-2.98-9.43-3.77-14.32-3.95-1.89-.07-5.25 4.16-5.51 6.68-.21 2.09 2.73 5.2 5.03 6.67 2.56 1.63 5.97 1.9 9.92 3.01-2.68 3.21-4.74 5.69-6.76 8.11-10.78-6.53-10.49-6.19-19.71 1.67-9.61 8.19-15.51 20.15-28.45 25.1-17.57 6.71-27.38 23.03-40.28 35.49-1.12 1.08-2.25 2.96-2.13 4.36.84 9.88-5.86 14.08-12.97 18.27-4.89 2.88-9.55 6.18-14.25 9.38-11.89 8.08-20.88 17.56-17.24 33.71.74 3.29.11 6.9.11 11.71-6.75-3.3-13.7-4.67-16.97-8.88-3.12-4.01-2.4-11-3.43-17.1-17.23 0-34.31-2.09-50.54.7-11.81 2.03-24.53 8.43-33.12 16.72-7.57 7.3-10.45 19.77-14.53 30.29-2.83 7.31 1.32 23.87 6.54 25.25 9.06 2.39 18.57 6.14 27.88-.4 9.47-6.65 19.26-12.86 28.96-19.3 9.43 13.03-4.25 21.22-5.54 31.93 8.89 1.66 17.34 3.25 25.99 4.87.76 9.58 2.52 18.62 1.92 27.5-.79 11.75 3.75 15.06 15.08 17.67 17.03 3.92 29.6 2.02 38.82-13.79 2.23-3.82 6.99-9.65 9.6-9.17 11.57 2.13 25.13-.73 33.38 11.76 6.73 10.19 29.05 8.97 35.35-1.19 12.11 1.94 18.04 11 22.82 20.68 4.67 9.46 10.93 13.38 21.96 12.68 16.19-1.03 20.94 2.79 25.85 18.07 1.8 5.62.88 12.08 2.45 17.81.94 3.45 3.63 7.48 6.68 9.11 18.52 9.91 38.62 11.92 59.31 10.9 3.48-.17 9.07 1.08 10.3 3.44 6.17 11.78 14.28 20.53 27.75 21.77 1.19 15.61-8.93 24.27-16.13 34.52-3.14 4.46-6.15 9.66-7.08 14.9-2.04 11.5-3.74 23.25-3.65 34.88.09 11.84-4.4 20.54-14.6 24.82-7.22 3.03-15.76 3.85-23.73 3.89-6.64.03-9.78 2.4-13.44 7.69-5.81 8.38-3.03 16.39-.39 23.93 3.44 9.81 1.12 16.9-5.39 24.39-8.11 9.31-16.94 18.68-22.24 29.59-9.25 19.05-26.46 23.72-43.97 29.17-3.96 1.23-7.55 3.65-11.31 5.52 3.15 2.22 6.3 4.44 9.45 6.65.78.54 1.58 1.05 4.36 2.9-4.45 6.15-8.72 12.04-14.56 20.1 6.76 3.08 13.41 6.12 20.72 9.45 0 .12.06 1.43-.01 2.75-1.12 21.92-.92 21.76 12.68 39.93 1.51 2.01-1.27 10.32-1.76 10.29-10.92-.62-22.13 3.5-32.54-5-15.32-12.52-27.15-27.16-36.42-44.6-4.96-9.33-8.2-18.3-5.76-28.5 3.47-14.48.38-26.59-9.9-37.6-2.74-2.93-3.44-8.95-3.05-13.38.85-9.84 2.98-19.57 4.59-29.34-1.33.27-2.67.55-4 .82-1.85-4.34-5.19-8.65-5.3-13.03-.56-21.41-.12-42.84-.4-64.27-.04-3.3-1.03-8.11-3.3-9.6-11.32-7.43-23.24-13.94-34.87-20.9-2.08-1.24-5.37-2.98-5.46-4.63-.84-15.28-12.18-24.32-20.87-34.45-11.03-12.86-17.17-24.76-14.43-43.49 2.31-15.81 6.1-27.01 20.36-33.81 5.56-2.66 6.13-6.88 5.5-12.4-2.46-21.64-2.32-22.16-23.5-22.64-10.96-.25-19.35-3.52-25.29-12.81-11.21-17.53-27.39-26.61-48.02-28.11-.86-.06-1.65-.96-2.85-1.7.29-3.17.58-6.39.9-9.98-2.34-.61-4.35-1.78-6.06-1.44-4.88.97-10.07 4.53-14.36 3.57-19.31-4.3-41.62-4.34-49.61-28.37-1.17-3.51-1.95-8.5-.32-11.3 3.17-5.45 1.85-9.09-1.43-13.47-12.85-17.14-25.42-34.46-26.07-57.2-.01-.49-.78-.95-1.63-1.92-2.48.21-5.31.44-8.1.68.41 21.17 1.62 23.87 15.81 46.99 2.92 4.77 3.46 11 5.09 16.56l-3.51 2.79c-5.38-2.46-12.64-3.49-15.79-7.64-11.65-15.35-20.36-32.2-16.71-52.68.35-1.95.66-4.29-.09-5.96-1.46-3.23-3.12-8.04-5.7-8.81-12.26-3.66-15.86-11.58-13.83-23.33.31-1.78.04-3.66.04-7.31-77.61 168.82-44.67 438.3 186.39 582.36 218.6 136.29 482.36 63.39 611.74-103.21-4.53-.38-8.69-.71-13.77-1.12zm-4.85-617.51c-.85-.08-1.7-.16-2.55-.23 3.06 14.47-.96 24.52-15.44 28.52-1.62.45-2.6 3.18-3.88 4.85 1.9 1.42 3.71 3.9 5.72 4.07 6.62.56 13.42-.45 19.96.51 8.89 1.3 12.31-4.81 14.38-10.73 1.01-2.89-2.1-7.92-4.47-11.16-4.12-5.61-9.1-10.59-13.72-15.83zm-551.98 83.87c12.88.66 25.08 1.29 37.06 1.9 2.6-8.98-1.17-14.21-7.27-15.66-13.14-3.12-25.9 2.59-29.79 13.76zm6.74 32.11c5.79-8.09 11.8-16.49 18.21-25.44-13.96-2.41-22.76 2.71-25.71 13.39-1.76 6.37-1.38 11.13 7.5 12.05zm-76.84-144.22c19.61 2.32 28.44 2.44 26.64-13.69l-26.64 4.7v8.99zm42.13 66.95c3.74 7.44 6.08 12.08 8.19 16.26 12.8-.07 15.08-7.81 15.1-20.25-7.83 1.34-14.76 2.52-23.29 3.99zm54.59 84.48c18.41 1.55 22.98-2.14 19.5-15.67-7.97 3.3-18.43 2.75-19.5 15.67zm-95.46-133.03c.03 1.36.07 2.72.1 4.07 7.88 2.58 16.13 1.52 24.13-.34 1.18-.27 1.25-5.31 2.25-10.16-10.3 2.5-18.39 4.47-26.48 6.43zM410.4 331.15c.94-9.38-2.16-11.57-17.1-12.07-.95 12.76 1.21 14.29 17.1 12.07zm-37.15-9.28c13.45-1.13 15.82-3.56 13.98-13.9h-13.98v13.9zm591.28 4.36-2.34.6v21.64c3.77-.34 7.47-.68 12.52-1.14-3.8-7.87-6.99-14.48-10.18-21.1z"/><path class="st0" d="M779.91 225.26c10.66 31.75 12.2 34.12 27.17 41.88-9.15 17.66-25.41 10.99-40.05 12.81 1-8.95-1.82-18.71 15.53-18.41-4.79-5.65-7.29-9.13-10.32-12.06-4.44-4.29-13.55-5.17-11.27-14.28 2.42-9.69 10.93-9.07 18.94-9.94z"/><path class="st0" d="M736 272.75c-1.24-13.39 6.32-24.9 17.74-25.98 3.96-.37 8.23 2.61 12.36 4.06-1.6 4.02-2.06 9.56-5.02 11.76-7.13 5.3-13.43 13.94-25.08 10.16zM488.4 313.49c6.47-3.66 11.79-7.14 17.52-9.68 2.43-1.08 5.73-.18 11.2-.18-6.65 6.38-10.92 12.37-16.73 15.55-5.94 3.26-11.47.82-11.99-5.69z"/></svg>