<svg xmlns="http://www.w3.org/2000/svg" viewBox="0 0 1080 1080" style="enable-background:new 0 0 1080 1080" xml:space="preserve"><path class="st0" d="M558.11 637.43c-5.59 2.56-11.16 5.18-16.79 7.66-40.51 17.84-82.21 30.49-127.17 27.22-26.58-1.94-48.94-12.53-65.4-34.21-17.26-22.73-18.45-57.97-2.55-81.13 9.14-13.32 21.9-20.22 37.98-21.21 27.14-1.68 54.37-2.54 81.41-5.31 56.87-5.82 105.57-28.68 145.13-70.83 21.38-22.78 43.95-44.49 66.67-65.95 19.93-18.83 43.66-32.36 68.01-44.63 4.58-2.31 5.13-4.02 2.24-7.87-7.57-10.07-15.03-20.21-22.43-30.4-2.64-3.63-5.33-7.29-7.36-11.27-4.26-8.37-3.15-14.37 4.14-20.36 10.25-8.42 20.79-16.49 31.33-24.56 20.53-15.73 41.02-31.52 61.85-46.85 3.7-2.73 8.93-4.67 13.46-4.68 6.35-.01 11.67 3.68 13.47 10.37 1.93 7.2-.23 13.53-6 18.13-12.5 9.94-25.15 19.69-37.87 29.35-14.85 11.28-29.85 22.37-45.9 34.39 68.41 93.68 136.61 187.07 205.31 281.14 8.21-6.02 15.75-11.54 23.29-17.07 18.32-13.43 36.59-26.93 55.01-40.22 3.59-2.59 7.54-5.08 11.72-6.36 6.6-2.02 12.58.26 16.75 5.74 3.98 5.24 3.35 11.19.14 16.45-1.93 3.15-4.87 5.91-7.88 8.14-29.79 22.13-59.66 44.16-89.57 66.12-9.94 7.3-15.83 6.63-23.44-3.42-14.66-19.37-28.92-39.03-43.35-58.57-.78-1.05-1.57-2.1-3.12-4.19-3.29 3.97-6.43 7.32-9.09 11.01-30.23 42.05-57.79 85.76-78.67 133.26-24.02 54.65-58.9 100.26-105.97 137.32-63.82 50.25-132.56 91.23-210.28 115.6-72.79 22.82-147.23 35.28-223.91 30.59-66.78-4.09-130.52-19.42-189.69-51.39-17.71-9.57-34.09-21.25-46.38-37.49-5.09-6.72-9.48-14.3-12.57-22.12-5.98-15.11-3.19-29.66 7.96-41.28 6.3-6.57 6.87-12.76 5.84-21.08-3.47-27.91-2.71-55.73 6.08-82.76 6.68-20.52 17.99-37.16 39.93-44.09 13.01-4.11 25.79-2.2 38.54 1.09 6.74 1.73 13.38 3.87 20.16 5.41 3.23.73 6.74.97 10.02.57 9.26-1.13 12.82-6.46 11.68-15.62-2.44-19.59-4.58-39.22-6.88-59.09-10.44-1.49-21.82-2.52-32.94-4.81-57.46-11.9-101.34-56.7-112.32-114.21-2.98-15.59 2.05-22.84 18.17-24.75 42.96-5.11 81.36 6.08 113.67 34.85 11.74 10.46 21.03 23.67 31.27 35.43 8.98-18.63 16.87-39.15 18.2-61.42 1.12-18.84 1.32-37.75 1.23-56.62-.02-3.62-2.43-8.24-5.23-10.69-55.29-48.46-82.81-108.98-77.93-182.71 2.61-39.37 16.5-75.3 39.94-107.25 7.42-10.12 14.99-11.33 24.68-3.69 62.18 49.07 91.72 113.03 84.72 192.21-3.01 34.06-13.51 66.4-32.79 95.34-2.07 3.11-3.15 7.44-3.2 11.23-.1 7.78.81 15.57 1.4 24.72 2.58-2.15 4.21-3.5 5.82-4.86 38.01-32 81.48-41.04 129.45-30.42 10.64 2.36 15.35 10.67 12.26 21.62-13.32 47.16-43.18 79.5-88.72 97.22-22.58 8.79-46.05 11.65-70.23 9.01-2.18-.24-5.86 1.51-6.8 3.36-10.75 21.24-18.68 43.37-18.37 67.61.19 14.6.85 29.2 1.44 43.8.11 2.8.91 5.56 1.23 7.4 14.65-4.86 28.42-10.25 42.64-13.9 14.13-3.63 26.96.37 38.21 10.02 11.7 10.04 22.68 21.63 38.87 24.39 7.94 1.35 16.07 2.26 24.1 2.21 12.54-.08 22.65 4.43 31.3 13.25 17.81 18.14 35.9 36.01 53.56 54.29 3.61 3.73 6.48 1.84 9.61.55 27.73-11.48 53.8-25.93 77.99-43.75a271.917 271.917 0 0 0 49.71-47.34c1.61-1.97 2.9-4.2 4.34-6.3l-1.13-1.34zM309.73 940.72c35.36.25 74.56-3.37 113.16-11.35 59.81-12.36 116.11-34.31 169.39-64.26 43.39-24.39 82.9-53.98 119.19-87.83 24.34-22.71 44.98-48.55 58.34-79.39 27.4-63.27 61.96-122.21 105.4-175.82 3.18-3.93 1.58-6.38-.66-9.4-34.4-46.45-68.83-92.88-103.12-139.41-2.57-3.48-4.82-3.83-8.44-1.94-24.83 12.94-48.48 27.67-68.65 47.28-22.1 21.48-43.59 43.58-65.58 65.17-24.77 24.32-52.47 44.4-84.89 57.51-41.89 16.93-85.91 22.26-130.58 24.1-9.21.38-18.43.6-27.64 1.01-8.28.37-13.85 5.28-15.62 12.68-1.79 7.47-3.09 15.75-1.72 23.14 3.78 20.48 18.88 30.33 37.7 34.87 26.34 6.35 52.29 2.42 77.86-4.85 36.58-10.41 70.2-27.45 102.85-46.55 7.09-4.15 13.52-4.15 20.05.59 6.67 4.84 7.15 11.31 5.15 18.67-5.88 21.67-17.83 40.05-30.95 57.82-28.3 38.31-65.55 65.81-107.29 87.52-45.36 23.59-93.56 39.43-143.94 47.72-36.33 5.97-72.88 11.11-109.53 14.38-30.87 2.75-62.04 2.07-93.06 3.29-18.93.75-37.62 3.47-55.34 10.64-24.68 9.97-27.34 26.28-7.54 44.29 13.77 12.53 29.2 22.46 46.1 30.12 62.04 28.14 127.41 40.12 199.36 40zm79.24-187.16c-2.9-3.43-4.18-5.15-5.67-6.67-13.26-13.45-26.37-27.05-39.98-40.14-2.94-2.83-7.53-4.68-11.64-5.42-8.15-1.46-16.59-1.32-24.75-2.76-20.39-3.58-37.3-13.99-51.8-28.35-5.7-5.65-11.31-7.41-19.31-5.12-19.4 5.54-38.15 11.8-52.61 27.03-3.96 4.17-9.11 7.3-14 10.48-11.75 7.65-24.46 9.71-38.01 5.64-5.8-1.74-11.56-3.66-17.39-5.29-21.81-6.13-35.33-.05-41.92 21.55-4.13 13.55-5.34 28.12-6.67 42.34-.86 9.21.44 18.62.77 27.73 1.5.2 1.99.43 2.36.3 31.47-11.07 64.22-12.79 97.1-12.75 47.32.04 94.38-3.32 140.97-11.45 27.09-4.73 53.87-11.12 82.55-17.12zm-227.69-613.1c-24.24 41.33-31.01 84.78-22.15 130.44 7.81 40.24 26.89 74.58 57.74 102.42 23.77-38.4 33.95-91.39 21.41-139.68-9.4-36.21-26.58-68.26-57-93.18zM333.6 422.73c-35.36-2.69-65.17 8.29-90.31 32.09-10.99 10.4-20.74 21.78-25.05 37.18 45.94 5.8 97.73-24.05 115.36-69.27zM40.93 490.47c6.88 39.67 71.45 86.11 108.43 78.36-12.04-46.48-63.4-80.56-108.43-78.36z"/></svg>