<svg xmlns="http://www.w3.org/2000/svg" viewBox="0 0 512 512" style="enable-background:new 0 0 512 512" xml:space="preserve"><path class="st0" d="M256 0c70.68 0 134.69 28.66 181.01 74.99C483.34 121.31 512 185.32 512 256c0 70.69-28.66 134.69-74.99 181.01C390.69 483.34 326.69 512 256 512c-70.68 0-134.69-28.66-181.01-74.99C28.66 390.69 0 326.68 0 256S28.66 121.31 74.99 74.99C121.31 28.66 185.32 0 256 0zm-4.84 235.39h41.32v32.63h-36.53c-.46 7.66-1.86 14.59-4.23 20.77-1.91 4.69-5.06 9.58-9.53 14.64 5.07-1.12 9.44-1.67 13.07-1.67 4.64 0 10.69.88 18.12 2.65 10.18 2.32 18.31 3.48 24.4 3.48 4.98 0 9.3-.42 12.97-1.25 3.72-.84 8.56-2.6 14.51-5.3l18.54 40.72c-8.97 4.46-16.87 7.57-23.7 9.29-6.79 1.72-14.09 2.56-21.9 2.56-8.55 0-18.26-1.49-29.28-4.46-14.41-3.95-23.33-6.23-26.82-6.88-3.44-.61-7.16-.93-11.16-.93-11.71 0-24.63 4.09-38.76 12.27l-17.66-38.76c19.15-13.67 28.72-27.34 28.72-41 0-.75-.09-2.79-.28-6.13h-28.44v-32.63h20.36c-3.44-11.95-5.44-18.92-5.86-20.83-.56-2.88-.84-6.46-.84-10.74 0-11.34 3.02-21.52 9.06-30.53 6-9.02 13.95-15.57 23.8-19.62 9.86-4.09 23.11-6.14 39.79-6.14 15.62 0 27.98 1.77 37.09 5.26 9.12 3.48 16.83 9.3 23.1 17.38 6.32 8.13 10.65 17.94 13.02 29.47l-52.15 8.13c-2.6-9.66-5.62-16.08-9.02-19.24-3.39-3.16-7.25-4.74-11.57-4.74-5.26 0-9.48 1.72-12.74 5.16-3.25 3.44-4.88 8.32-4.88 14.64 0 3.39.32 6.6.98 9.72.6 3.16 2.79 10.5 6.5 22.08zM413.08 98.91C372.89 58.72 317.35 33.86 256 33.86S139.11 58.72 98.91 98.91C58.72 139.11 33.86 194.65 33.86 256s24.86 116.89 65.05 157.08c40.2 40.2 95.74 65.06 157.09 65.06s116.89-24.86 157.08-65.06c40.2-40.19 65.06-95.73 65.06-157.08s-24.86-116.89-65.06-157.09z"/></svg>