<svg xmlns="http://www.w3.org/2000/svg" viewBox="0 0 1080 1080" style="enable-background:new 0 0 1080 1080" xml:space="preserve"><path class="st0" d="M540.12 1059.66c-158.86 0-317.73-.04-476.59.06-17.87.01-31.29-7.25-39.01-23.28-7.24-15.03-6.1-30.15 4.24-43.44 4.02-5.16 9.69-10.28 15.67-12.37 8.39-2.93 9.18-7.8 9.17-15.25-.18-128.45-.13-256.9-.13-385.35 0-96.25.23-192.5-.14-288.75-.11-28.77 7.98-53.36 29.87-72.93 2.59-2.32 3.7-7.46 3.73-11.31.27-36.14.12-72.27.18-108.41.04-27.12 12.65-43.9 38.16-53.19 92.48-33.67 184.77-33.62 277.11.44 24.59 9.07 36.88 25.91 36.91 51.84.05 36.14-.23 72.28.3 108.41.07 4.89 2.86 10.81 6.32 14.38 12.56 12.94 21.86 27.56 24.85 45.36 1.16 6.94 4.57 8.65 10.41 9.52 130.13 19.57 260.25 39.21 390.36 58.87 37.11 5.61 74.23 11.16 111.31 16.99 25.83 4.06 42.83 23.26 43.67 49.36.46 14.3.12 28.62.12 42.93 0 173.53.04 347.07-.12 520.6-.01 8.08.7 13.15 9.97 16.86 17.98 7.19 26.62 27.19 22.48 46.29-4.2 19.35-20.49 32.33-41.19 32.34-159.2.05-318.42.02-477.65.03zm452.91-84.03V420.52c0-34.32-.02-34.14-34.21-39.29-130.11-19.59-260.19-39.31-390.29-58.97-31.39-4.74-62.79-9.45-94.82-14.27v667.37h115.82V741.93c-3.55-.2-6.37-.31-9.18-.53-23.75-1.88-40.88-20.32-40.24-43.29.65-23.07 18.67-40.39 42.77-40.42 94.47-.12 188.94-.11 283.41 0 23.21.03 40.72 15.99 42.75 38.3 1.96 21.52-13.78 41.22-36.02 44.9-4.47.74-9.03.9-13.61 1.33v233.4c44.63.01 88.52.01 133.62.01zM404.19 197.66c.7-1.07 1.4-1.64 1.4-2.22.09-33.61.23-67.21.08-100.82-.04-8.48-5.01-13.51-12.9-16.5-86.66-32.8-173.29-32.56-259.67.61-5.01 1.92-11.42 8.74-11.55 13.44-.98 34.95-.53 69.94-.53 105.97 95.01-35.76 189.25-35.99 283.17-.48zm338.08 544.31v233.26h82.42V741.97h-82.42zM624.25 975.36h82.83V742.25h-82.83v233.11zM321.17 861.62c-.04.19.63-1.49.63-3.18.06-45.8-.05-91.59.19-137.39.03-6.35-3.16-8.06-8.26-8.64-12.08-1.37-24.13-3.15-36.25-3.91-24.3-1.52-48.35.52-72.09 5.84v147.27c38.77.01 76.85.01 115.78.01zm218.87 148.28H71.05c-3.22 0-6.89-.91-9.54.34-3.06 1.44-7.12 4.72-7.24 7.36-.12 2.78 3.33 6.96 6.24 8.32 3.28 1.52 7.7.69 11.63.69 311.59.02 623.17.01 934.76.01 3.22 0 7.02 1.06 9.52-.29 3.79-2.04 6.67-5.76 9.94-8.77-3.28-2.55-6.27-5.67-9.93-7.43-2.32-1.12-5.62-.22-8.49-.22-155.96-.01-311.93-.01-467.9-.01zM204.71 509.34h116.61c-.2.5.28-.15.28-.8.11-41.12.07-82.24.37-123.36.05-6.52-3.62-7.56-8.57-8.38-33.09-5.47-66.14-5.53-99.29-.16-7.61 1.23-9.69 4.31-9.6 11.87.43 33.61.19 67.23.19 100.84.01 7.43.01 14.86.01 19.99zm.67-299.31v131.51h116.44c0-41.35.08-84.14-.26-126.92-.01-1.88-3.64-5.04-5.93-5.4-36.57-5.85-73.13-5.69-110.25.81zm116.46 467.04c0-41.11.12-83.24-.32-125.36-.02-2.35-4.42-6.23-7.24-6.71-11.6-2-23.35-3.44-35.1-4.2-24.96-1.6-49.66.29-73.79 5.78v130.49h116.45zm117.48 230.77c0-45.23.05-90.61-.13-135.99-.01-2.5-1.16-5.97-3.01-7.35-24.18-18.03-50.63-31.68-80.17-41.37v147.28c27.94 12.55 55.14 24.77 83.31 37.43zm-268.77-184c-29.97 9.5-55.85 23.57-79.81 41.19-2.41 1.77-3.48 6.69-3.5 10.16-.23 42.54-.16 85.07-.12 127.61 0 2.24.48 4.49.61 5.6 27.68-12.66 54.82-25.08 82.83-37.9-.01-47.3-.01-96.21-.01-146.66zm-.05-507.32c-17.68 6.47-34.58 11.99-50.93 18.8-21.67 9.04-32.4 26.01-32.46 49.51-.08 32.5-.03 65.01 0 97.51 0 2.29.28 4.58.38 6.11 27.97-12.79 55.31-25.28 83.01-37.95V216.52zm268.65 170.4c0-35.69.56-72.52-.26-109.32-.35-15.86-8.36-29.83-22.49-36.95-18.97-9.55-39.28-16.44-60.88-25.23 0 46.07-.08 88.93.22 131.79.02 2.23 2.77 5.52 5.03 6.5 25.78 11.17 51.72 21.98 78.38 33.21zm.15 336.31c0-39.93.05-80.22-.14-120.51-.01-2.12-1.45-4.98-3.15-6.23-24.28-17.83-50.61-31.66-80.11-41.03v130.32c27.82 12.49 55.02 24.7 83.4 37.45zM170.5 388.38c-4.01 1.3-7.52 1.92-10.53 3.5-22.06 11.61-44.21 23.09-65.83 35.46-3.58 2.05-6.69 8.24-6.75 12.56-.53 36.79-.31 73.59-.28 110.38 0 2.29.33 4.57.43 5.92 27.9-12.75 55.26-25.25 82.97-37.91-.01-42.33-.01-85.49-.01-129.91zm268.82 167.06v-92.93c0-34.01.24-34.45-29.67-50.81-17-9.29-34.95-16.84-53.77-25.78v132.09c28.08 12.6 55.26 24.79 83.44 37.43zm-268.85 1.42c-1.86.21-3.44-.02-4.59.58-24.91 13.01-49.86 25.95-74.49 39.48-2.47 1.36-4.09 6.41-4.12 9.76-.28 37.86-.18 75.72-.14 113.58 0 1.57.41 3.13.5 3.73 27.69-12.7 54.81-25.14 82.85-38.01-.01-41.8-.01-85.27-.01-129.12zm151.35 418.69c0-24.4.21-48.27-.35-72.11-.05-2.22-4.79-5.73-7.75-6.24-11.27-1.91-22.67-3.23-34.08-4.03-25.03-1.77-49.79.34-74.16 5.65v76.74c38.9-.01 77.04-.01 116.34-.01zm402.55-267.86h100.81c13.58 0 27.2.5 40.73-.38 3.28-.21 6.25-5.01 9.37-7.69-2.96-2.92-5.73-6.08-8.99-8.61-1.12-.87-3.47-.19-5.26-.19-90.8 0-181.59 0-272.39.01-2.5 0-5.76-.83-7.33.41-2.96 2.35-6.44 5.77-6.8 9.06-.23 2.15 4.31 5.54 7.36 7.1 2.28 1.16 5.6.3 8.46.3 44.68-.01 89.36-.01 134.04-.01zm-368 198.58v69.26h81.74c4.38-16.5 1.08-28.98-15.32-36.12-5.19-2.26-9.59-6.27-14.7-8.75-16.86-8.16-33.88-16.01-51.72-24.39zm-185.99 2.14c-4.14 1.34-7.64 1.99-10.68 3.54-19.64 9.99-39.6 19.46-58.62 30.53-16.34 9.5-17.08 13.65-12.52 32.82h81.82v-66.89z"/><path class="st0" d="M622.46 556.61h-31.5v-83.23c-.85-.2-1.7-.39-2.55-.59-4.62 11.5-9.41 22.93-13.78 34.52-3.22 8.55-7.45 15.69-17.87 15.71-10.5.03-14.53-7.31-17.75-15.79-4.35-11.44-9.1-22.73-15.82-33.56v82.54h-32.6c-.25-3.36-.71-6.75-.71-10.15-.05-39.32-.07-78.64-.02-117.95.02-17.02 5.34-22.17 22.57-22.3 21.31-.15 22.3.55 30.47 20.91 4.23 10.53 8.56 21.02 13.98 34.3 5.94-14.81 10.87-27.24 15.91-39.63 6.05-14.87 31.51-22.19 44-11.96 3.64 2.98 6.74 8.98 6.79 13.63.44 43.6.17 87.2.07 130.8-.01.62-.53 1.24-1.19 2.75zM774.17 552.65c-10.69 2.73-20.63 5.26-32.01 8.16-4.71-18.08-9.33-35.85-14.18-54.46-12.06 0-23.83-.43-35.52.35-2.47.16-5.88 4.42-6.73 7.4-4.31 15.07-7.92 30.34-12.04 46.57-10.91-2.72-21.1-5.26-32.38-8.07 4.11-16.34 8.02-31.8 11.87-47.26 6.83-27.39 13.57-54.8 20.45-82.17 3.42-13.59 7.96-17.17 21.69-17.33 8.94-.11 17.88.05 26.81-.02 10.42-.08 16.81 4.93 19.32 14.98 10.23 40.91 20.45 81.82 30.67 122.73.61 2.41 1.1 4.85 2.05 9.12zm-54.48-80c-2.66-10.62-4.77-19.91-7.44-29.04-.51-1.73-3.04-3.54-4.93-3.94-1.04-.22-3.49 2.17-3.94 3.77-2.66 9.41-4.91 18.94-7.5 29.21h23.81zM892.33 406.43h33.5v116.15h49.4v34.34h-46.35c-36.02 0-36.54-.53-36.54-36.48V417.42c-.01-3.48-.01-6.97-.01-10.99zM874.49 556.78c-22.66 0-44.77.4-66.85-.18-9.84-.26-15.91-7.55-15.96-18.11-.21-43.61-.09-87.22-.09-131.75h33.62v115.9h49.28v34.14z"/></svg>