<svg xmlns="http://www.w3.org/2000/svg" viewBox="0 0 1080 1080" style="enable-background:new 0 0 1080 1080" xml:space="preserve"><path class="st0" d="M807.24 761.17c40.05 0 79.6.01 119.16 0 22.69-.01 45.38.04 68.07-.08 19.95-.1 28.04 7.76 28.06 28.05.06 69.16.02 138.31.02 207.47 0 12.97.04 25.93-.01 38.9-.09 21.26-7.2 28.56-28.49 28.57-116.34.05-232.68.01-349.02-.01-182.26-.02-364.51-.05-546.77-.07-24.19 0-30.35-6.41-30.33-30.76.07-81.4 0-162.8 0-244.21 0-19.92 6.79-27.22 26.89-27.87 5.99-.2 8.14-1.71 8.08-8.04-.34-38.18-.72-76.36.04-114.53.17-8.33 4.88-16.57 7.53-24.84 1.26-3.93 3.69-7.82 3.72-11.74.27-42.14.28-84.29-.07-126.42-.03-3.53-3.22-7.04-4.95-10.55-3.65-7.39-9.73-14.53-10.47-22.2-1.75-18.21-1.59-36.69-.89-55.01.24-6.34 3.22-13.36 7.03-18.55 3.49-4.75 4.49-8.07 3.82-14.2-3.09-28.21-6.18-56.54 1.52-84.67 6.38-23.33 19.32-42.58 37.09-58.29 18.56-16.41 37.94-31.93 57.46-47.19 13.74-10.74 21.64-23.13 19.06-41.45-1.18-8.41.61-17.21.57-25.83-.02-3.02-.8-6.5-2.45-8.95-5.78-8.59-4.18-15.96 1.86-23.7 2.33-2.98 3.51-7.33 3.96-11.21 1.53-13.07 2.36-26.22 3.86-39.29.22-1.91 2.67-3.56 4.09-5.33 1.7 1.95 4.63 3.76 4.89 5.88 1.55 13.02 2.29 26.13 3.76 39.17.4 3.52 2.61 6.8 3.54 10.31 1.73 6.58 6.31 14.64 4.11 19.62-8.36 18.94-1.19 38.1-3.07 56.98-.21 2.15 2.63 5.08 4.71 6.89 15.7 13.66 31.29 27.48 47.46 40.57 19.1 15.47 37.3 31.61 50.55 52.69 20.94 33.31 19.97 69.74 15.27 106.61-1.19 9.36-3.98 18.21 4.86 25.82 2.14 1.84 2.36 6.63 2.39 10.08.2 20.89.3 41.78-.09 62.67-.09 4.69-2.25 9.34-3.92 15.79 10.57-5.96 19.96-11.99 29.96-16.74 31.47-14.94 63.18-29.36 94.75-44.08 4.22-1.97 8.21-4.45 12.26-6.78 26.36-15.11 26.23-15.12 26.29-45.71.01-7.26-2.82-11.5-9-15.52-32.06-20.83-34.02-64.07-4.36-88.12.74-.6 1.97-.61 5.12-1.51-2.96 23.1-.4 44.24 19.46 58.75 19.05 13.93 39.67 14.85 62.84 4.49-1 4.41-.95 6.9-2.06 8.66-9.33 14.73-22.55 24.07-39.8 26.99-5.75.97-8.45 3.3-7.69 9.16.05.35.07.73-.01 1.08-4.21 20.29 4.57 32.72 22.91 40.96 33.73 15.17 67.25 30.83 100.44 47.13 30.55 15 59.01 33.14 79.25 61.56 15.17 21.3 23.13 45.51 26.09 71.13 2.55 22.11 3.48 44.42 4.61 66.67.33 6.44 2.09 9.11 8.87 8.56 7.13-.59 14.35-.08 21.53-.2 16.63-.28 25.71 8.04 25.92 24.46.22 16.93.19 33.86-.06 50.78-.21 13.98-9.82 23.17-23.97 23.45-2.16.04-4.35.15-6.48-.12-10-1.25-13.28 2.87-9.77 13.87zm-45.71 260.14c.41-2.79 1.07-5.19 1.07-7.6.06-85.72-.02-171.44.19-257.16.02-7.45-2.81-8.84-9.61-8.84-138.66.13-277.33.07-415.99-.15-7.72-.01-10.92 2.07-10.88 10.34.31 84.27.4 168.55.26 252.82-.01 8.21 2.02 11.31 10.9 11.18 34.21-.5 68.43-.16 102.65-.21 3.06 0 6.13-.53 9.36-.82.18-4 .43-6.86.43-9.72 0-46.46-.48-92.93.21-139.38.2-13.08 1.93-26.76 6.18-39.04 17.32-50 76.72-75.24 124.45-53.91 39.35 17.59 58.36 48.82 59.09 91.01.8 46.09.2 92.2.21 138.3v13.17c41.34.01 81.15.01 121.48.01zM544.69 648.69v.15c66.59 0 133.19-.1 199.78.17 6.23.03 8.36-1.33 8.07-7.68-.58-12.58.13-25.23-.82-37.77-2.19-28.87-6.38-57.42-24.27-81.51-15.86-21.35-38.23-34.64-61.55-46.1-37.67-18.52-75.82-36.08-113.39-54.79-6.11-3.04-9.76-3.06-15.51.04-20.2 10.88-40.76 21.11-61.28 31.38-26.93 13.48-54.6 25.63-80.73 40.49-21.61 12.29-37.68 30.6-46.02 55.02-10.53 30.84-11.37 62.71-11.73 94.72-.09 7.76 5.37 5.89 9.85 5.89 65.86-.02 131.73-.01 197.6-.01zM237.25 362.86v-.07c26.28 0 52.57-.18 78.85.13 6.4.07 10.21-1.02 10.63-8.36 1.02-17.88 2.91-35.72 3.66-53.61.86-20.44-6.28-38.79-20.91-52.51-21.71-20.37-44.94-39.12-67.8-58.24-1.7-1.42-6.51-1.52-8.22-.16-20.53 16.32-41.4 32.3-60.83 49.86-15.43 13.95-27.32 31.15-27.56 53.13-.22 19.96 1.3 39.94 1.74 59.92.18 8.08 4.12 10.12 11.59 10.03 26.28-.31 52.57-.12 78.85-.12zm248.34 658.88c38.35 0 75.72-.01 113.09.01 7.29 0 6.43-5.25 6.43-9.87.02-48.94.31-97.88-.11-146.82-.3-33.86-30.38-61.68-63.86-59.06-30.48 2.38-57.19 25.67-56.53 65.22.78 46.41.32 92.84.43 139.27.01 3.49.34 6.99.55 11.25zM158.26 468.29c-.55 2.68-1.07 4.06-1.07 5.44-.21 42.08-.32 84.17-.6 126.25-.05 7.02 4.31 7.03 9.34 7.02 39.21-.08 78.42-.06 117.63-.12 16.27-.03 16.21-.09 16.99-16.85.17-3.57.93-7.11 1.4-10.67 4.02-30.34 17.36-59.01 14.01-90.84-2.09-19.92-.34-20.19-20.06-20.21-45.62-.06-91.25-.02-137.64-.02zm648.25 335.23c-.29 5.81-.71 10.38-.71 14.95-.01 54.01.05 108.02.08 162.03.01 11.16-.42 22.35.25 33.47.17 2.85 3.41 7.39 5.86 7.86 6.07 1.14 12.5.38 19.19.38.28-5.49.61-9.03.61-12.58.05-39.96-.67-79.95.53-119.87.34-11.28 4.34-23.52 10.06-33.34 12.9-22.15 40.68-32.26 64.56-25.84 27.32 7.34 45.84 29.2 46.32 56.74.66 37.43.25 74.89.33 112.33.05 24.5-3.98 22.84 23.33 22.17.57-.01 1.12-.76 2.68-1.88v-49.86c0-51.85-.02-103.7.03-155.54.01-5.97.71-11.22-8.44-11.17-54.33.31-108.67.15-164.68.15zm-670.43 216.16v-11.56c.01-40.33-.37-80.67.13-121 .49-39.54 43.6-68.9 80.56-55.45 27.3 9.94 42.16 31.75 42.23 62.24.1 39.25.39 78.51-.07 117.76-.1 8.53 2.76 11.1 10.49 9.97 6.49-.95 15.01 3.82 14.89-10.01-.58-66.22-.09-132.45.16-198.67.03-7.9-4.04-9.4-10.94-9.37-50.05.21-100.11.4-150.16-.04-10.05-.09-12.68 3.05-12.6 12.9.53 61.58.44 123.16.5 184.74.02 22.36-.05 22.36 22.27 19.98.31-.05.59-.35 2.54-1.49zm111.96-369.05c-30.34 0-62.66.15-94.97-.11-7.58-.06-7.77 4.17-7.75 9.75.1 30.62.26 61.24-.14 91.85-.09 7.29 2.27 9.17 9.25 9.11 37.82-.34 75.64.06 113.45-.63 5.39-.1 15.73 5.94 16.33-5.46.65-12.19-10.12-7.28-16.21-7.55-16.94-.76-25.56-9.22-25.54-26.44.01-13.69-.6-27.42.29-41.05.63-9.52 3.31-18.91 5.29-29.47zm617.42 371.19c16.79 0 31.89.37 46.93-.34 2.69-.13 6.96-4.41 7.4-7.26 1.03-6.66.07-13.6.09-20.43.1-32.73.38-65.46.37-98.18-.01-19.2-9.7-31.54-24.63-32.09-19.89-.73-30.32 10.58-30.29 32.8.05 31.29.09 62.58.13 93.88.01 9.97 0 19.95 0 31.62zm-694.92-71.63h-.09c0 20.5.22 41.01-.11 61.5-.13 7.8 2.36 10.95 10.57 10.49 11.47-.63 23.01-.36 34.5-.01 6.29.19 9.2-1.71 9.17-8.48-.21-41.01.13-82.03-.33-123.03-.2-17.53-10.84-28.06-26.19-27.84-16.71.24-27.43 11.5-27.5 29.1-.08 19.42-.02 38.85-.02 58.27zm117.59-246.78h40.19c156.24.04 312.48.11 468.72-.12 2.35 0 4.69-3.64 7.04-5.58-2.25-2-4.31-5.4-6.79-5.74-7.05-.98-14.28-.9-21.44-.9-135.4.05-270.79.14-406.19.22-27.08.02-54.16 0-82.11 0 .25 5.19.39 8.21.58 12.12zM236.69 425.7v-.07c28.43 0 56.87-.2 85.29.14 7.02.09 10.7-1.03 10.58-9.21-.11-8-1.1-12.67-11.04-12.6-56.86.37-113.72.38-170.58-.04-9.55-.07-9.98 4.43-10.36 11.81-.44 8.62 3.26 10.18 10.81 10.09 28.43-.31 56.87-.12 85.3-.12z"/></svg>