<svg xmlns="http://www.w3.org/2000/svg" viewBox="0 0 1080 1080" style="enable-background:new 0 0 1080 1080" xml:space="preserve"><path class="st0" d="M451.96 277.52c15.99 13.03 30.64 25.07 45.44 36.94 2.36 1.89 5.32 4.12 8.09 4.23 10.96.43 21.95.25 32.92-.1 2.24-.07 4.78-1.38 6.59-2.85 15.27-12.39 30.4-24.95 46.54-38.26-1.17-1.32-3.11-4.16-5.65-6.27-27.53-22.92-42.3-52.78-43.45-88-1.7-52.06 30.11-103.6 81.67-121.25 66.27-22.69 130.93 9.21 156.23 73 18.99 47.9 4.31 103.05-35.29 135.94-8.16 6.78-7.73 7.74 1 12.95 33.67 20.09 58.55 47.89 71.94 85.11 3.33 9.27 5.56 19.01 7.51 28.69 1.39 6.93 4.9 10.42 11.71 11.78 67.79 13.52 110.82 90.04 88.35 157.51-8.02 24.09-21.54 43.64-42.1 58.42-.76.55-1.05 1.77-1.94 3.36 10.02 7.11 20.47 13.64 29.93 21.38 36.12 29.55 56.12 67.83 60.16 114.32.57 6.62 3.03 9.32 9.94 9.2 20.96-.38 41.93-.01 62.9-.34 8.98-.14 16.03 2.84 20.63 10.49 5.04 8.38 2.84 16.11-2.39 23.82-19.3 28.44-38.47 56.98-57.29 85.74-1.63 2.49-1.72 7.84-.12 10.29 18.59 28.51 37.49 56.81 56.66 84.93 5.17 7.58 8.29 15 3.71 23.7-4.5 8.54-11.99 10.89-21.38 10.87-84.22-.24-168.45-.22-252.67-.23-17.9 0-25.36-7.04-25.44-25.03-.11-23.1.03-46.2.28-69.3.08-7.49-1.33-11.36-10.64-11.34-144.28.29-288.57.25-432.85-.11-9.87-.02-9.04 5.6-9.04 11.61 0 22.39.25 44.78.22 67.17-.03 20.47-6.67 26.98-26.7 26.98-83.51-.02-167.03-.07-250.54.14-9.63.02-17.89-1.89-22.5-10.87-4.42-8.6-1.13-16.15 4.03-23.72C37.6 960.31 56.49 932 75.08 903.5c1.58-2.42 1.42-7.75-.21-10.22-19.08-28.99-38.57-57.72-58.02-86.47-5.04-7.45-7.03-16.23-1.36-22.81 4.51-5.22 12.55-9.7 19.35-10.21 19.89-1.47 19.52-.7 22.41-19.64 7.84-51.51 34.49-90.68 78.63-118.12 3.48-2.17 6.79-4.62 8.64-5.89-11.79-14.9-24.62-27.86-33.59-43.09-18.52-31.49-19.44-65.4-7.27-99.51 12.47-34.96 36.01-59.96 70.55-73.68 10.08-4 21.18-5.68 31.96-7.55 7.19-1.25 11-3.83 12.53-11.66 9.75-49.94 37.08-87.26 81.83-111.7 7.7-4.21 3.09-7.91-.91-11.11-19.17-15.31-31.99-34.78-38.92-58.28-11.66-39.58-4.41-76.1 19.51-108.9 31.38-43.03 75.38-57.41 125.93-46.91 41.49 8.62 70.08 35.81 85.87 75.37 19.51 48.89 6.66 107.32-36.76 139.86-1.81 1.34-2.78 3.81-3.29 4.54zm88.55 600.98v-.05c96.3 0 192.6 0 288.91-.01 4.26 0 8.54.06 12.78-.31 15.61-1.36 28.36-14.62 28.45-30.19.2-36.25.76-72.53-.46-108.74-.27-8.01-6.11-16.78-11.55-23.43-7.85-9.61-20.22-7.13-30.93-7.15-144.62-.24-289.25-.21-433.87-.25-49.04-.01-98.08.39-147.11-.19-23.77-.28-38.04 14.42-37.49 36.92.83 33.74.1 67.52.47 101.29.06 5.05 1.59 10.52 3.94 15.01 7.28 13.95 19.98 17.23 34.76 17.2 97.36-.2 194.73-.1 292.1-.1zm-90.46-336.18c-3.21-3.38-5.28-6.09-7.85-8.18-27.31-22.13-41.39-51.75-42.88-85.84-2.03-46.32 16.02-84.14 55.74-110.17 4.73-3.1 6.55-6.43.88-10.66-19.73-14.73-41.81-24.26-66.21-26.28-64.14-5.29-120.9 36.56-133.51 100.05-1.25 6.28.59 9.35 5.62 11.86 6.95 3.47 14.08 6.67 20.75 10.63 62.55 37.14 78.14 124.99 32.18 181.41-6.83 8.38-14.39 16.16-22.13 24.79 7.37 4.96 15.87 9.99 23.58 16.04 8.07 6.33 14.87 14.35 23.17 20.31 10.36 7.43 20.36 2.39 22.76-9.94 4.96-25.51 15.89-48.35 32.06-68.65 14.92-18.75 33-33.79 55.84-45.37zm285.82 85.49c-6.56-6.08-13.66-11.48-19.31-18.11-30.38-35.66-37.58-76.1-23.09-120.35 12.38-37.8 38.06-63.33 74.94-77.29 20.95-7.93 21.19-7.29 13.42-29.12-.36-1-.57-2.06-.95-3.05-14.13-36.3-40.13-60.97-76.63-72.87-41.1-13.41-79.67-5.68-114.85 19.58-6.37 4.57-6.36 7.92-.15 11.88 35.8 22.79 53.25 56.89 55.1 97.81 1.75 38.56-12.18 72.2-42.63 97.69-2.55 2.13-4.58 4.88-7.62 8.16 50.84 27.76 80.32 69.57 90.15 126.11 17.97-14.08 34.47-27 51.62-40.44zM379.05 94.03c-49.16.35-85.2 34.16-84.99 84.26.21 48.35 34.44 82.25 83.89 83.12 47.53.83 84.12-35.31 84.45-82.53.34-48.26-35.3-84.55-83.35-84.85zm430.11 351.82c-52.49-1.81-84.58 39.68-84.3 83.01.32 48.68 35.97 83.12 86.07 82.74 46.82-.35 82.49-36.08 82.26-82.4-.23-46.41-34-84.88-84.03-83.35zM666.39 261.29c50.1-1.75 83.62-35.58 82.84-85.14-.78-49.59-35.76-81.89-85.98-81.95-46.68-.06-81.91 36.73-81.53 84.1.4 48.64 36.08 83.62 84.67 82.99zm-531.19 266c-.82 48.35 33.4 83.71 82.07 84.2 50.16.51 84-31.97 85.41-81.14 1.33-46.31-31.17-83.33-81.79-84.81-49.21-1.44-86.55 36.1-85.69 81.75zm468.69-86.11c1.92-50.53-36.35-84.63-82.82-84.16-43.49.44-80.86 31.2-81.54 82.69-.67 50.87 37.17 84.18 81.61 84.58 45.08.41 84.94-33.69 82.75-83.11zm-84.51 227.45v-.14c36.22 0 72.44.02 108.66-.04 3.51-.01 7.44.31 10.39-1.14 2.17-1.06 4.81-5.29 4.23-7.17-2.9-9.41-6.29-18.74-10.43-27.68-27.65-59.68-92.64-78.09-149.42-61.58-43.88 12.76-70.19 44.63-82.01 88.54-1.4 5.2-1.25 9.25 5.86 9.24 37.57-.06 75.14-.03 112.72-.03zM69.1 812.77c3.24 6 5.03 9.99 7.4 13.62 13.77 21.04 27.65 42 41.54 62.96 4.22 6.37 4.08 12.44-.21 18.8-6.73 9.98-13.09 20.21-19.75 30.23-9.69 14.6-19.5 29.12-30.34 45.28h186.4c-.6-2.17-.61-3.37-1.19-4.14-24.83-32.77-49.88-65.37-74.43-98.35-3.81-5.11-7.08-11.75-7.61-17.94-1.18-13.72-.43-27.61-.52-41.43-.03-4.96-.72-9.13-7.42-9.09-30.15.15-60.31.06-93.87.06zm755.96 170.8h186.73c-1.5-2.91-2.12-4.5-3.06-5.89-14.04-20.87-28.15-41.7-42.19-62.58-9.66-14.37-9.71-19.27-.58-32.73 13.13-19.35 26.34-38.66 39.3-58.13 1.99-2.99 2.79-6.76 4.63-11.4-32.26 0-62.77-.18-93.27.38-2.22.04-5.86 5.35-6.2 8.49-.78 7.35.46 14.89.14 22.33-.65 14.69-.9 28.53-11.6 41.65-25.25 30.98-48.35 63.73-73.9 97.88zM272.55 668.62c.46-1.1.92-2.2 1.39-3.3-2.33-1.58-4.46-3.83-7.03-4.64-29.71-9.35-59.37-12.31-89.7-1.56-46.87 16.61-77.2 57.65-82.45 105.46-.68 6.16 1.27 9.19 8.13 9.07 19.18-.33 38.37-.43 57.55-.08 8.37.15 10.38-3.29 9.53-11.04-.81-7.38-.63-14.91-.31-22.36 1.77-41.93 33.66-72.03 75.56-71.57 9.1.11 18.21.02 27.33.02zm480.57-.14c6.25 0 9.31.05 12.36-.01 21.97-.39 43.96-1.46 65.92-1.06 36.05.65 63.3 16.82 75.4 51.32 4.94 14.07 3.29 30.68 3.4 46.14.08 11.34 7.88 7.81 13.37 8.14 6.07.36 10.75-1.97 8.78-9.52-3.2-12.26-5.29-24.98-10.04-36.62-26.29-64.45-100.02-88.83-162.81-65.7-1.87.69-3.03 3.37-6.38 7.31zm53.07 274.91c6.9-9.14 12.1-16.02 18.03-23.89-18.46-4.19-20.8-1.07-18.03 23.89zm-550.52-23.62c6.46 7.97 11.76 14.51 17.06 21.04 2.61-23.53 1.07-25.5-17.06-21.04z"/><path class="st0" d="M540.66 737.5h240.75c14.4 0 23.19 7.64 23.35 20.26.16 12.89-7.9 20.68-22.8 20.74-49 .17-98-.04-147-.03-111.14.02-222.28.07-333.43.14-15.11.01-24.48-5.89-25.86-16.52-1.92-14.75 7.29-24.58 23.18-24.57 55.04.01 110.08.07 165.12.1 25.57.01 51.13 0 76.7 0-.01-.05-.01-.08-.01-.12zM540.3 807.95c45.81 0 91.63-.1 137.44.05 17.43.06 26.83 14.14 19.99 29.52-3.88 8.73-11.79 10.84-20.2 11-15.27.29-30.54.05-45.81.05-73.16.01-146.32.04-219.49.04-3.9 0-7.84.08-11.71-.31-12.88-1.31-20.62-9.11-20.3-20.2.35-11.92 9.44-20.13 22.63-20.14 45.82-.04 91.63-.01 137.45-.01z"/></svg>