<svg xmlns="http://www.w3.org/2000/svg" viewBox="0 0 9.91 9.86"><g data-name="Layer 2"><path d="M4.32 1.93c-.14-.05-.28-.11-.42-.15l-1-.35c-.06 0-.09-.05-.06-.1S3 1 3 .9s.06-.05.11-.05l1.63.24 1 .14a.2.2 0 0 0 .13 0C6.46.93 7.06.64 7.66.37A3.74 3.74 0 0 1 9.3 0h.23a.15.15 0 0 1 .13.21 1.43 1.43 0 0 1-.15.29 3.68 3.68 0 0 1-1.12.91c-.52.28-1.06.54-1.59.79a.58.58 0 0 0-.34.36c-.39 1-.8 1.95-1.2 2.92-.06.16-.06.16-.24.14l-.4-.06c-.1 0-.11 0-.09-.11L5 3.15a.23.23 0 0 1 0-.07h-.12l-.69.3A15.37 15.37 0 0 1 2 4.16c-.18 0-.37.06-.56.09a.22.22 0 0 1-.24-.11l-1-1.58a.1.1 0 0 1 0-.15l.21-.15h.13l1 .74.27.17a.23.23 0 0 0 .24 0l.55-.32a14.17 14.17 0 0 1 1.48-.81L4.32 2m5.59 7.86H8.65a.09.09 0 0 1-.09 0c-.39-.88-.79-1.75-1.18-2.63v-.06h.84a.09.09 0 0 1 .08 0L9.88 9.8v.06M2.53 7.14c-.06.15-.12.29-.19.43-.34.75-.68 1.5-1 2.25H0a.56.56 0 0 1 .05-.08l1.59-2.59a.08.08 0 0 1 .07 0h.82m3.06 2.71H4.32v-.7h1.22v.7m-.07-1.38h-1c0-.17 0-.33.07-.5s0 0 .06-.05h.85l.06.53m-.14-1.01H4.5c0-.1 0-.2.07-.29a.15.15 0 0 1 .1 0h.58c.09 0 .11 0 .12.13v.2" style="fill:#c7ac61" data-name="Layer 1"/></g></svg>