<svg xmlns="http://www.w3.org/2000/svg" xml:space="preserve" width="149px" height="9px" version="1.1" style="shape-rendering:geometricPrecision; text-rendering:geometricPrecision; image-rendering:optimizeQuality; fill-rule:evenodd; clip-rule:evenodd" viewBox="0 0 324.55 19.6"> 
  <style type="text/css"></style>
 <g id="Layer_x0020_1">
  <metadata id="CorelCorpID_0Corel-Layer"></metadata>
  <path fill="#C8AD61" class="bar-color" d="M162.28 0l7.98 7.98 145.34 0c0.71,-1.67 2.36,-2.84 4.29,-2.84 1.93,0 3.58,1.17 4.29,2.84l0.37 0 0 1.82 0 1.82 -0.37 0c-0.71,1.67 -2.36,2.84 -4.29,2.84 -1.93,0 -3.58,-1.17 -4.29,-2.84l-145.34 0 -7.98 7.98 -7.99 -7.98 -145.34 0c-0.71,1.67 -2.36,2.84 -4.29,2.84 -1.93,0 -3.58,-1.17 -4.29,-2.84l-0.37 0 0 -1.82 0 -1.82 0.37 0c0.71,-1.67 2.36,-2.84 4.29,-2.84 1.93,0 3.58,1.17 4.29,2.84l145.34 0 7.99 -7.98z"></path>
 </g>
</svg>