<svg xmlns="http://www.w3.org/2000/svg" viewBox="0 0 8.95 7.67"><defs><style>.cls-1{fill:#c7ac61}</style></defs><g id="Layer_2" data-name="Layer 2"><g id="Layer_1-2" data-name="Layer 1"><path class="cls-1" d="M5.08 5.18v-.53a.3.3 0 0 0-.29-.28h-.62a.3.3 0 0 0-.3.29v.52h-.28a8.35 8.35 0 0 1-1.78-.34 5.14 5.14 0 0 1-1.5-.7L0 3.9a.07.07 0 0 1 0-.06v-2a.25.25 0 0 1 .25-.25h8.51a.24.24 0 0 1 .24.24v2a4 4 0 0 1-1 .61A7.48 7.48 0 0 1 6.13 5c-.32 0-.64.07-1 .11"/><path class="cls-1" d="M9 4v2.78a.26.26 0 0 1-.29.28H.29A.26.26 0 0 1 0 6.77V4a4.67 4.67 0 0 0 1.4.77 7.9 7.9 0 0 0 1.79.42l.62.06v.48a.29.29 0 0 0 .3.29h.61a.29.29 0 0 0 .3-.3v-.44h.32a7.83 7.83 0 0 0 2.53-.62 4.25 4.25 0 0 0 1-.61H9"/><path class="cls-1" d="M9 7v.45a.25.25 0 0 1-.25.25H.29A.26.26 0 0 1 0 7.39V7a.3.3 0 0 0 .32.18h8.31A.3.3 0 0 0 9 7M6.48.92l-.6.33-.06-.08A1.24 1.24 0 0 0 5.2.78a2.29 2.29 0 0 0-1.65.08 1.05 1.05 0 0 0-.48.39l-.6-.33s0-.07.07-.09A1.78 1.78 0 0 1 3.39.2a2.76 2.76 0 0 1 1-.2A2.86 2.86 0 0 1 5.9.36a1.83 1.83 0 0 1 .58.56M4.21 5.21a.26.26 0 0 0 .26.25.26.26 0 0 0 .27-.25.27.27 0 0 0-.53 0m-.21 0v-.53a.19.19 0 0 1 .21-.21h.59a.19.19 0 0 1 .2.21v1.07a.19.19 0 0 1-.21.2h-.61a.19.19 0 0 1-.18-.2Zm2.3-4.1v.38h-.23v-.23l.21-.12m-3.39.35h-.23v-.37l.22.12v.23"/></g></g></svg>