<svg xmlns="http://www.w3.org/2000/svg" xmlns:xlink="http://www.w3.org/1999/xlink" xmlns:xodm="http://www.corel.com/coreldraw/odm/2003" xml:space="preserve" width="205px" height="205px" style="shape-rendering:geometricPrecision; text-rendering:geometricPrecision; image-rendering:optimizeQuality; fill-rule:evenodd; clip-rule:evenodd" viewBox="0 0 13.73 13.73"> <defs>  <style type="text/css">   <![CDATA[    .str0 {stroke:#C3A243;stroke-width:0.51;stroke-miterlimit:22.9256}    .fil0 {fill:none}    .fil1 {fill:#C3A243;fill-rule:nonzero}   ]]>  </style> </defs> <g id="Layer_x0020_1">  <metadata id="CorelCorpID_0Corel-Layer"></metadata>  <g id="_105553602892224">   <circle class="fil0 str0" cx="6.87" cy="6.87" r="6.61"></circle>   <path class="fil1" d="M4.55 10.6l0 -1.96 0.95 0c0.25,0 0.43,0.05 0.56,0.14 0.12,0.09 0.18,0.22 0.18,0.37 0,0.1 -0.02,0.19 -0.07,0.27 -0.05,0.07 -0.12,0.13 -0.21,0.17 -0.09,0.04 -0.19,0.06 -0.3,0.06l0.05 -0.11c0.12,0 0.23,0.02 0.33,0.06 0.09,0.04 0.17,0.1 0.22,0.18 0.05,0.07 0.08,0.17 0.08,0.28 0,0.17 -0.07,0.3 -0.2,0.4 -0.13,0.09 -0.33,0.14 -0.58,0.14l-1.01 0zm0.45 -0.34l0.52 0c0.12,0 0.21,-0.02 0.27,-0.06 0.06,-0.04 0.09,-0.1 0.09,-0.18 0,-0.09 -0.03,-0.15 -0.09,-0.19 -0.06,-0.04 -0.15,-0.06 -0.27,-0.06l-0.56 0 0 -0.33 0.49 0c0.1,0 0.19,-0.02 0.25,-0.05 0.06,-0.04 0.09,-0.1 0.09,-0.18 0,-0.07 -0.03,-0.13 -0.09,-0.17 -0.06,-0.04 -0.15,-0.06 -0.25,-0.06l-0.45 0 0 1.28zm1.68 0.34l0 -1.96 0.85 0c0.17,0 0.32,0.03 0.45,0.09 0.13,0.05 0.23,0.14 0.29,0.24 0.07,0.11 0.11,0.23 0.11,0.38 0,0.15 -0.04,0.27 -0.11,0.38 -0.06,0.1 -0.16,0.18 -0.29,0.24 -0.13,0.05 -0.28,0.08 -0.45,0.08l-0.6 0 0.21 -0.2 0 0.75 -0.46 0zm1.25 0l-0.49 -0.71 0.48 0 0.49 0.71 -0.48 0zm-0.79 -0.7l-0.21 -0.21 0.57 0c0.14,0 0.25,-0.03 0.32,-0.09 0.07,-0.06 0.1,-0.14 0.1,-0.25 0,-0.11 -0.03,-0.19 -0.1,-0.25 -0.07,-0.06 -0.18,-0.09 -0.32,-0.09l-0.57 0 0.21 -0.21 0 1.1zm1.6 0.7l0 -1.96 0.45 0 0 1.96 -0.45 0z"></path>   <g>    <path class="fil1" d="M6.76 6.6l0 -0.66c0,-0.15 0.22,-0.15 0.22,0l0 0.66c0,0.14 -0.15,0.15 -0.2,0.08 -0.01,-0.02 -0.02,-0.04 -0.02,-0.08zm0 -1.47l0 -0.66c0,-0.16 0.22,-0.16 0.22,0l0 0.66c0,0.15 -0.22,0.16 -0.22,0zm0 -1.47l0 -0.66c0,-0.16 0.22,-0.16 0.22,0l0 0.66c0,0.15 -0.22,0.15 -0.22,0zm-0.98 3.88l0.98 0c0,-0.1 -0.02,-0.23 0.11,-0.23 0.13,0 0.11,0.14 0.11,0.23l0.98 0 -0.01 -0.17c0,-0.06 0,-0.12 0,-0.17l-0.01 -0.43c0,-0.04 -0.01,-0.05 -0.01,-0.08 0,-0.05 0.01,-0.13 0,-0.18l-0.01 -0.42c0,-0.04 -0.01,-0.05 -0.01,-0.08 0,-0.06 0.01,-0.13 0,-0.18 -0.01,-0.05 0,-0.12 0,-0.17l-0.02 -0.52c-0.01,-0.04 0,-0.12 0,-0.17 0,-0.03 -0.01,-0.04 -0.01,-0.08l-0.01 -0.42c-0.01,-0.06 0,-0.12 0,-0.18l-0.01 -0.17c0,-0.06 -0.01,-0.1 -0.01,-0.17l0 -0.17c0,-0.05 0,-0.12 0,-0.17l-0.01 -0.34c0,-0.03 0,-0.06 0,-0.09 -0.01,-0.04 -0.01,-0.04 -0.01,-0.08 0,-0.13 -0.01,-0.23 -0.01,-0.35l-0.02 -0.69 -0.82 0c0,0.07 0.01,0.15 -0.03,0.2 -0.06,0.07 -0.19,0.05 -0.19,-0.09l0 -0.11 -0.83 0c0,0.13 0,0.22 0,0.34l-0.01 0.26c0,0.03 -0.01,0.04 -0.01,0.08 0,0.13 0,0.23 0,0.35l-0.01 0.17c0,0.06 -0.01,0.11 -0.01,0.17 0,0.12 0,0.22 0,0.35 0,0.03 -0.01,0.04 -0.01,0.07 0,0.03 0,0.06 0,0.09l-0.01 0.34c-0.01,0.06 0,0.12 0,0.18 -0.01,0.05 -0.01,0.11 -0.01,0.17l0 0.25c0,0.04 -0.01,0.05 -0.01,0.09 0,0.05 0,0.12 0,0.17l-0.01 0.42c0,0.04 -0.01,0.05 -0.01,0.09 0,0.05 0.01,0.12 0,0.17 -0.01,0.06 -0.01,0.12 -0.01,0.17l-0.01 0.52c-0.01,0.04 -0.01,0.12 -0.01,0.17 0,0.04 0,0.04 0,0.08 0,0.12 -0.01,0.33 -0.01,0.43 -0.01,0.05 0,0.12 -0.01,0.17 0,0.03 0,0.05 0,0.09 0,0.03 0,0.06 0,0.09z"></path>    <path class="fil1" d="M4.79 7.54l0.77 0c0,-0.04 0.01,-0.04 0.01,-0.08l0.01 -0.42c0,-0.06 0,-0.13 0,-0.18l0.01 -0.43c0,-0.04 0.01,-0.05 0.01,-0.08 0,-0.05 -0.01,-0.13 0,-0.18l0.01 -0.42c0,-0.04 0.01,-0.05 0.01,-0.08 0,-0.06 -0.01,-0.13 0,-0.18 0.01,-0.05 0,-0.12 0,-0.17l0.02 -0.51c0.01,-0.05 0,-0.13 0,-0.18 0,-0.03 0.01,-0.04 0.01,-0.08l0.01 -0.26c0,-0.06 0,-0.11 0,-0.17 0.01,-0.05 0,-0.12 0,-0.17l0.02 -0.43c0,-0.04 0,-0.05 0,-0.08 0,-0.06 0,-0.12 0,-0.18 0.01,-0.1 0.01,-0.31 0.01,-0.43 0.01,-0.03 0.01,-0.04 0.01,-0.08l0.02 -0.69 -0.31 0c-0.13,0 -0.12,0.15 -0.13,0.26l-0.25 2.12c-0.01,0.12 -0.03,0.24 -0.04,0.36 -0.04,0.23 -0.05,0.47 -0.09,0.7 -0.03,0.24 -0.05,0.47 -0.08,0.71 -0.03,0.24 -0.05,0.47 -0.08,0.71 -0.01,0.05 -0.07,0.49 -0.06,0.53 0.01,0.05 0.05,0.09 0.11,0.09z"></path>    <path class="fil1" d="M8.17 7.54l0.77 0c0.16,0 0.11,-0.2 0.1,-0.26 -0.02,-0.21 -0.07,-0.49 -0.08,-0.7 -0.02,-0.22 -0.07,-0.5 -0.09,-0.71l-0.04 -0.36c-0.01,-0.06 -0.01,-0.12 -0.02,-0.17 -0.01,-0.06 -0.02,-0.12 -0.02,-0.18l-0.04 -0.36c-0.04,-0.23 -0.05,-0.47 -0.09,-0.7 -0.03,-0.23 -0.05,-0.48 -0.08,-0.71 -0.03,-0.24 -0.05,-0.48 -0.08,-0.71l-0.07 -0.53c-0.01,-0.05 -0.05,-0.09 -0.11,-0.09l-0.31 0 0.01 0.26c0,0.03 0.01,0.04 0.01,0.08l0.02 0.68c0,0.13 0,0.23 0,0.35l0.02 0.51c0.01,0.05 0,0.12 0,0.18l0.02 0.5c0,0.06 0,0.12 0,0.18 0.01,0.1 0.01,0.31 0.01,0.42 0,0.04 0.01,0.05 0.01,0.09 0,0.05 -0.01,0.12 0,0.17l0.01 0.43c0,0.03 0.01,0.04 0.01,0.08 0,0.06 0,0.13 0,0.18 0.01,0.04 0.01,0.12 0.01,0.17 0,0.04 0,0.04 0,0.08 0,0.12 0.01,0.33 0.01,0.43 0.01,0.05 0,0.12 0.01,0.17l0.01 0.43c0,0.04 0,0.05 0,0.09z"></path>   </g>  </g> </g></svg>