<svg xmlns="http://www.w3.org/2000/svg" viewBox="0 0 13.09 9.11"><g data-name="Layer 2"><path d="M11 5.81a5.63 5.63 0 0 0 .71 0 .7.7 0 0 0 .58-.81c0-.37-.33-.7-.68-.63a6.43 6.43 0 0 0-1.46.49.66.66 0 0 0-.2.56c0 .16.26.32.43.37a2.35 2.35 0 0 0 .65 0m-9 0h.54a.5.5 0 0 0 .55-.39.51.51 0 0 0-.29-.63 8 8 0 0 0-1.34-.42.66.66 0 0 0-.72.65.72.72 0 0 0 .64.78c.21.05.43.03.64.03Zm.11-2.73h8.76c-.41-.68-.78-1.33-1.2-1.95A.93.93 0 0 0 9.09.8a21.21 21.21 0 0 0-5.16 0 .79.79 0 0 0-.52.28c-.41.64-.82 1.3-1.25 2Zm7.25 5.4H3.67c-.07.55-.42.67-.88.65s-1 0-1.48 0-.69-.22-.7-.72v-.27a3.37 3.37 0 0 0-.34-1.95 2.64 2.64 0 0 1-.27-.8 1.82 1.82 0 0 1 .6-1.82c-.35-.22-.71-.44-.53-.92a.61.61 0 0 1 .41-.32c.38-.05.74 0 .84.45.33-.58.64-1.18 1-1.74A2 2 0 0 1 4 .1a33.43 33.43 0 0 1 5.2 0 1.67 1.67 0 0 1 1.33.72c.37.53.69 1.1 1 1.66a2.69 2.69 0 0 1 .18.38c.23-.49.42-.61.89-.57a.44.44 0 0 1 .44.37c.1.46-.18.67-.5.84v.09a2 2 0 0 1 .3 2.46 5 5 0 0 0-.37 2.25c0 .6-.18.8-.76.8h-1.53c-.5 0-.63-.1-.79-.64Z" style="fill:#c7ac61" data-name="Layer 1"/></g></svg>