<svg xmlns="http://www.w3.org/2000/svg" xml:space="preserve" width="200px" height="200px" viewBox="0 0 29.83 29.83">  <style type="text/css">    .fil1 {fill:none}    .fil0 {fill:#C9AE62}  </style> <g id="Layer_x0020_1">  <metadata id="CorelCorpID_0Corel-Layer"></metadata>  <g id="_5493318912">   <g>    <path class="fil0" d="M19.37 13.56c0,2.39 -4.16,7.03 -4.17,7.05 -0.14,0.15 -0.38,0.17 -0.53,0.03 -0.01,-0.01 -0.03,-0.02 -0.04,-0.04 -0.12,-0.13 -4.17,-4.68 -4.17,-7.04l0 0c0,-1.24 0.5,-2.35 1.31,-3.16 0.8,-0.8 1.92,-1.3 3.15,-1.3 1.23,0 2.34,0.5 3.15,1.3 0.8,0.81 1.3,1.93 1.3,3.16zm-3.74 -0.28c0,-0.19 -0.08,-0.37 -0.21,-0.5 -0.13,-0.13 -0.31,-0.21 -0.5,-0.21 -0.2,0 -0.38,0.08 -0.51,0.21 -0.13,0.13 -0.21,0.31 -0.21,0.5 0,0.2 0.08,0.38 0.21,0.51l0 0c0.13,0.13 0.31,0.21 0.51,0.21 0.19,0 0.37,-0.08 0.5,-0.21l0.02 -0.02c0.12,-0.12 0.19,-0.3 0.19,-0.49zm0.32 -1.03c0.27,0.26 0.43,0.63 0.43,1.03 0,0.4 -0.16,0.75 -0.41,1.01l-0.02 0.03c-0.26,0.26 -0.63,0.43 -1.03,0.43 -0.41,0 -0.77,-0.17 -1.04,-0.43l0 0c-0.26,-0.27 -0.43,-0.63 -0.43,-1.04 0,-0.4 0.17,-0.77 0.43,-1.03 0.27,-0.27 0.63,-0.43 1.04,-0.43 0.4,0 0.77,0.16 1.03,0.43zm-1.03 7.54c0.9,-1.05 3.7,-4.46 3.7,-6.23 0,-1.03 -0.41,-1.95 -1.08,-2.63 -0.67,-0.67 -1.6,-1.08 -2.62,-1.08 -1.03,0 -1.95,0.41 -2.62,1.08 -0.68,0.68 -1.09,1.6 -1.09,2.63l0 0c0,1.77 2.8,5.18 3.71,6.23z"></path>    <path class="fil0" d="M6.42 6.74l0.01 -0.01 0 0 0 -0.01 0 0 0 -0.01 0.01 0 0 0 0 0 0 -0.01 0 0 0.01 -0.01 0 0 0.01 -0.01 0 0 0 -0.01 0 0 0.01 -0.01 0 0 0 0 0 0 0.01 -0.01 0 0 0.01 -0.01 0 0 0 -0.01 0 0 0.01 0 0 0 0.01 -0.01 0 0 0 -0.01 0 0 0.01 0 0 0 0.01 -0.01 0 0 0 -0.01 0.01 0 0 0 0 0 0.01 -0.01 0 0 0.01 -0.01 0 0 0.01 0 0 0 0 -0.01 0.01 0 0 0 0 0 0.01 -0.01 0 0 0.01 0 0 0 0.01 -0.01 0 0 0.01 0 0 0 0.01 -0.01c0.05,-0.02 0.11,-0.03 0.17,-0.03l0.01 0 3.14 0c0.23,0 0.41,0.18 0.41,0.41 0,0.23 -0.18,0.41 -0.41,0.41l-2.74 0 0 2.74c0,0.23 -0.19,0.42 -0.41,0.42 -0.23,0 -0.41,-0.19 -0.41,-0.42l0 -3.14 0 -0.01c0,-0.06 0.01,-0.12 0.03,-0.17z"></path>    <path class="fil0" d="M23.03 6.5l0.01 0c0.06,0 0.11,0.01 0.17,0.03l0.01 0.01 0 0 0 0 0 0 0.01 0.01 0 0 0.01 0 0 0 0.01 0.01 0 0 0.01 0 0 0 0.01 0.01 0 0 0 0 0.01 0 0 0.01 0 0 0.01 0.01 0 0 0.01 0 0 0 0.01 0.01 0 0 0 0.01 0 0 0.01 0 0 0 0.01 0.01 0 0 0 0.01 0 0 0.01 0 0 0 0.01 0.01 0 0 0 0.01 0 0 0.01 0.01 0 0 0.01 0 0 0 0 0.01 0 0 0.01 0.01 0 0 0 0.01 0 0 0.01 0.01 0 0 0 0.01 0 0 0.01 0 0 0 0 0.01 0 0 0.01 0.01 0 0 0 0.01c0.03,0.05 0.04,0.11 0.04,0.17l0 0.01 0 3.14c0,0.23 -0.19,0.42 -0.41,0.42 -0.23,0 -0.42,-0.19 -0.42,-0.42l0 -2.74 -2.74 0c-0.23,0 -0.41,-0.18 -0.41,-0.41 0,-0.23 0.18,-0.41 0.41,-0.41l3.15 0z"></path>    <path class="fil0" d="M23.41 23.09l0 0.01 0 0 -0.01 0.01 0 0 0 0.01 0 0 -0.01 0.01 0 0 0 0.01 0 0 -0.01 0 0 0.01 0 0 0 0 -0.01 0.01 0 0 0 0.01 0 0 -0.01 0.01 0 0 -0.01 0 0 0 0 0.01 0 0 -0.01 0.01 0 0 -0.01 0.01 0 0 0 0 0 0 -0.01 0.01 0 0 -0.01 0.01 0 0 0 0 0 0 -0.01 0.01 0 0 -0.01 0.01 0 0 -0.01 0 0 0 0 0.01 -0.01 0 0 0 0 0 -0.01 0.01 0 0 -0.01 0.01 0 0 -0.01 0 0 0 -0.01 0 0 0.01 -0.01 0 0 0 0 0 0 0 -0.01 0.01c-0.06,0.02 -0.11,0.03 -0.17,0.03l-0.01 0 -3.15 0c-0.23,0 -0.41,-0.18 -0.41,-0.41 0,-0.22 0.18,-0.41 0.41,-0.41l2.74 0 0 -2.74c0,-0.23 0.19,-0.41 0.42,-0.41 0.22,0 0.41,0.18 0.41,0.41l0 3.14 0 0.01c0,0.06 -0.01,0.12 -0.04,0.17z"></path>    <path class="fil0" d="M6.81 23.33l-0.01 0c-0.06,0 -0.12,-0.01 -0.17,-0.03l-0.01 -0.01 0 0 -0.01 0 0 0 -0.01 0 0 -0.01 -0.01 0 0 0 -0.01 0 0 0 0 -0.01 -0.01 0 0 -0.01 0 0 -0.01 0 0 0 -0.01 -0.01 0 0 -0.01 0 0 0 0 -0.01 -0.01 0 0 -0.01 0 0 -0.01 0 0 0 -0.01 -0.01 0 0 0 -0.01 0 0 -0.01 0 0 0 -0.01 -0.01 0 0 0 -0.01 0 0 -0.01 -0.01 0 0 -0.01 0 0 0 0 -0.01 0 0 -0.01 -0.01 0 0 0 -0.01 0 0 -0.01 0 0 -0.01 -0.01 0 0 0 0 -0.01 0 0 0 -0.01 -0.01 0 0 -0.01 0 0 0 -0.01 0 0 -0.01 -0.01c-0.02,-0.05 -0.03,-0.11 -0.03,-0.17l0 -0.01 0 -3.14c0,-0.23 0.18,-0.41 0.41,-0.41 0.22,0 0.41,0.18 0.41,0.41l0 2.74 2.74 0c0.23,0 0.41,0.19 0.41,0.41 0,0.23 -0.18,0.41 -0.41,0.41l-3.14 0z"></path>   </g>   <rect class="fil1" width="29.83" height="29.83"></rect>  </g> </g></svg>