<svg xmlns="http://www.w3.org/2000/svg" viewBox="0 0 11.91 9.61"><defs><style>.cls-1{fill:#c7ac61}</style></defs><g id="Layer_2" data-name="Layer 2"><g id="Layer_1-2" data-name="Layer 1"><path class="cls-1" d="M10 1.28a1 1 0 0 0-.9-.56.89.89 0 0 0-.79.55 2.3 2.3 0 0 1 1.69 0m-.33 4.55a1.73 1.73 0 0 1-1.08 0c0 .18-.07.36-.11.55a1.91 1.91 0 0 0 1.29 0 8.96 8.96 0 0 0-.1-.55ZM7.25 3.35h.33c.18 0 .23-.05.25-.23a.56.56 0 0 1 .59-.51h1.4a.55.55 0 0 1 .6.55c0 .12.08.18.21.19H11a1.81 1.81 0 0 0-.85-1.58 1.77 1.77 0 0 0-2-.05 1.82 1.82 0 0 0-.9 1.63Zm1.89 2.22a3 3 0 0 0 .41-.09 1.28 1.28 0 0 0 .89-1.19c0-.17.07-.22.24-.22h.13a.2.2 0 0 0 .19-.19.19.19 0 0 0-.18-.19h-.15a.56.56 0 0 1-.6-.54.2.2 0 0 0-.23-.15H8.41c-.15 0-.21 0-.22.21a.55.55 0 0 1-.5.52h-.22a.18.18 0 0 0-.21.19.18.18 0 0 0 .2.19h.12c.17 0 .23.06.24.23a1.33 1.33 0 0 0 1.32 1.23Zm2.77 3.92c-.05.09-.12.15-.23.11s-.12-.13-.12-.23v-1.9a.59.59 0 0 0-.47-.64l-.8-.23a.27.27 0 0 0-.18 0 2.27 2.27 0 0 1-2 0 .29.29 0 0 0-.16 0l-.84.25a.56.56 0 0 0-.44.59v1.9a.32.32 0 0 1 0 .14.16.16 0 0 1-.17.13.16.16 0 0 1-.16-.14.49.49 0 0 1 0-.12v-1.9a.92.92 0 0 1 .71-1l1-.29c.16 0 .18-.09.2-.26A.51.51 0 0 0 8 5.46a1.56 1.56 0 0 1-.54-1h-.13A.52.52 0 0 1 6.91 4 3.39 3.39 0 0 1 7 2.6a2.37 2.37 0 0 1 .74-1 .24.24 0 0 0 .09-.13 1.3 1.3 0 0 1 2.55 0 .3.3 0 0 0 .1.17 2.18 2.18 0 0 1 .85 1.73 5.8 5.8 0 0 1 0 .59.52.52 0 0 1-.44.51.16.16 0 0 0-.15.15 1.53 1.53 0 0 1-.62 1 .17.17 0 0 0-.09.18 1.76 1.76 0 0 1 0 .23.21.21 0 0 0 .18.24l.93.28a.94.94 0 0 1 .74.72v2.22ZM2.08 5.21l.71.4a.38.38 0 0 0 .37 0c.23-.13.46-.27.71-.4-.39-.19-.33-.54-.33-.88a1.78 1.78 0 0 1-1.14 0c0 .34.07.68-.32.88M1.3 1.85h.12c.19 0 .24-.05.26-.24a.49.49 0 0 1 .54-.44l1.83.3c.14 0 .22.08.23.22a.18.18 0 0 0 .15.16 1.77 1.77 0 0 0 .23 0v-.61a.9.9 0 0 0-.79-.87H2.42a.22.22 0 0 0-.15.08.3.3 0 0 1-.27.09.73.73 0 0 0-.73.65 4.84 4.84 0 0 0 .03.66ZM3 4.07a1.31 1.31 0 0 0 1.28-1.14c0-.31 0-.31.38-.34a.18.18 0 0 0 .18-.17.17.17 0 0 0-.15-.2.62.62 0 0 0-.19 0 .56.56 0 0 1-.5-.35.23.23 0 0 0-.1-.07l-1.65-.27c-.15 0-.21 0-.22.17a.54.54 0 0 1-.51.5h-.19c-.14 0-.23.09-.23.2s.09.19.24.19.32 0 .33.3A1.3 1.3 0 0 0 3 4.07ZM1.12 7.4H.54v2a.17.17 0 0 1-.13.19.14.14 0 0 1-.19-.08.22.22 0 0 1 0-.14v-2a.49.49 0 0 0-.07-.19A1.35 1.35 0 0 1 0 6.84V6.1a.92.92 0 0 1 .64-.86l1.18-.32c.2 0 .23-.1.23-.3A1.12 1.12 0 0 0 2 4.2c0-.11-.18-.19-.27-.29a1.54 1.54 0 0 1-.4-.91.1.1 0 0 0-.1-.1.48.48 0 0 1-.44-.34A.53.53 0 0 1 .88 2a.24.24 0 0 0 .05-.1 7 7 0 0 1 0-.8 1.06 1.06 0 0 1 1-.91.33.33 0 0 0 .14-.07.62.62 0 0 1 .35-.12h1.25A1.3 1.3 0 0 1 5 1.33v.37a.69.69 0 0 0 .11.44.53.53 0 0 1-.39.79h-.1A1.64 1.64 0 0 1 4.05 4a.32.32 0 0 0-.15.33v.32a.2.2 0 0 0 .18.22l1.16.32a.92.92 0 0 1 .71.9v.7a.64.64 0 0 1-.14.39.21.21 0 0 0 0 .14v2q0 .27-.18.27c-.13 0-.19-.08-.19-.28V7.4h-.61v2c0 .17-.06.25-.18.25s-.18-.08-.18-.25V6.49a.18.18 0 0 1 .18-.19.18.18 0 0 1 .18.19V7h.6a.18.18 0 0 0 .16-.2v-.7a.54.54 0 0 0-.41-.53l-.76-.21a.32.32 0 0 0-.16 0c-.29.16-.58.32-.86.49a.77.77 0 0 1-.85 0c-.28-.17-.57-.33-.86-.49a.21.21 0 0 0-.17 0l-.73.2a.57.57 0 0 0-.44.55v.69c.01.2.07.2.21.2h.56v-.53a.18.18 0 0 1 .18-.17.17.17 0 0 1 .17.17v3a.17.17 0 0 1-.17.16.17.17 0 0 1-.18-.16v-2Z"/><path class="cls-1" d="M7.63 8.7v.69c0 .14-.07.22-.18.22s-.18-.08-.18-.21V8c0-.14.07-.21.18-.21s.18.08.18.21v.7m3.37 0v.7c0 .13-.07.21-.18.21a.18.18 0 0 1-.17-.2V8c0-.13.07-.2.18-.2A.18.18 0 0 1 11 8v.7M9.11 5a3.07 3.07 0 0 1-.36-.11.17.17 0 0 1-.09-.24.19.19 0 0 1 .24-.08.51.51 0 0 0 .45 0 .18.18 0 0 1 .25.08.17.17 0 0 1-.1.23 2.85 2.85 0 0 1-.39.12m.58-1.3h.19a.18.18 0 0 1 .17.15.18.18 0 0 1-.12.15.18.18 0 0 0-.07.08c0 .07-.1.13-.18.11s-.11-.08-.16-.12L9.44 4a.16.16 0 0 1-.11-.19.16.16 0 0 1 .16-.15h.2m-1.12.04h.17a.19.19 0 0 1 .19.16.18.18 0 0 1-.12.19s-.05 0-.08.07-.11.11-.16.11-.12-.07-.17-.11-.05-.06-.08-.07a.18.18 0 0 1-.11-.2.17.17 0 0 1 .16-.15ZM3 3.56l-.4-.11a.17.17 0 0 1-.09-.23.17.17 0 0 1 .23-.09.55.55 0 0 0 .47 0 .17.17 0 0 1 .23.09.16.16 0 0 1-.1.23 3.25 3.25 0 0 1-.34.11m-.41-1.07c0 .17-.06.25-.18.25s-.17-.09-.17-.25v-.1a.18.18 0 0 1 .18-.19.19.19 0 0 1 .17.19v.08Zm1.12 0c0 .19 0 .26-.17.27s-.19-.09-.19-.28v-.06a.18.18 0 0 1 .17-.2c.1 0 .17.08.18.2v.07"/></g></g></svg>