<svg xmlns="http://www.w3.org/2000/svg" xmlns:xlink="http://www.w3.org/1999/xlink" xmlns:xodm="http://www.corel.com/coreldraw/odm/2003" xml:space="preserve" width="471px" height="471px" style="shape-rendering:geometricPrecision; text-rendering:geometricPrecision; image-rendering:optimizeQuality; fill-rule:evenodd; clip-rule:evenodd" viewBox="0 0 201.09 201.09"> <defs>  <style type="text/css">   <![CDATA[    .fil1 {fill:none}    .fil0 {fill:#C9AE62}   ]]>  </style> </defs> <g id="Layer_x0020_1">  <metadata id="CorelCorpID_0Corel-Layer"></metadata>  <g id="_105553263705248">   <g>    <path class="fil0" d="M81.91 95.36c0,-0.69 0.57,-1.26 1.27,-1.26 0.69,0 1.26,0.57 1.26,1.26l0 67.72c0,0.7 -0.57,1.27 -1.26,1.27 -0.7,0 -1.27,-0.57 -1.27,-1.27l0 -67.72z"></path>    <path class="fil0" d="M99.29 95.36c0,-0.69 0.56,-1.26 1.26,-1.26 0.69,0 1.26,0.57 1.26,1.26l0 67.72c0,0.7 -0.57,1.27 -1.26,1.27 -0.7,0 -1.26,-0.57 -1.26,-1.27l0 -67.72z"></path>    <path class="fil0" d="M116.66 95.36c0,-0.69 0.56,-1.26 1.26,-1.26 0.69,0 1.26,0.57 1.26,1.26l0 67.72c0,0.7 -0.57,1.27 -1.26,1.27 -0.7,0 -1.26,-0.57 -1.26,-1.27l0 -67.72z"></path>    <path class="fil0" d="M133.4 82.77c0,-1.05 0.84,-1.89 1.89,-1.89 1.04,0 1.89,0.84 1.89,1.89l0 80.31c0,1.05 -0.85,1.9 -1.89,1.9 -1.05,0 -1.89,-0.85 -1.89,-1.9l0 -80.31z"></path>    <path class="fil0" d="M63.91 82.77c0,-1.05 0.85,-1.89 1.89,-1.89 1.05,0 1.9,0.84 1.9,1.89l0 80.31c0,1.05 -0.85,1.9 -1.9,1.9 -1.04,0 -1.89,-0.85 -1.89,-1.9l0 -80.31z"></path>    <path class="fil0" d="M135.29 80.88c1.05,0 1.89,0.84 1.89,1.89 0,1.04 -0.84,1.89 -1.89,1.89l-69.49 0c-1.04,0 -1.89,-0.85 -1.89,-1.89 0,-1.05 0.85,-1.89 1.89,-1.89l69.49 0z"></path>    <path class="fil0" d="M138.82 72.09c1.04,0 1.89,0.85 1.89,1.9 0,1.04 -0.85,1.89 -1.89,1.89l-76.54 0c-1.05,0 -1.9,-0.85 -1.9,-1.89 0,-1.05 0.85,-1.9 1.9,-1.9l76.54 0z"></path>    <path class="fil0" d="M136.92 59.5c0,-1.04 0.85,-1.89 1.9,-1.89 1.04,0 1.89,0.85 1.89,1.89l0 13.5c0,1.05 -0.85,1.89 -1.89,1.89 -1.05,0 -1.9,-0.84 -1.9,-1.89l0 -13.5z"></path>    <path class="fil0" d="M60.39 59.5c0,-1.04 0.84,-1.89 1.89,-1.89 1.04,0 1.89,0.85 1.89,1.89l0 13.5c0,1.05 -0.85,1.89 -1.89,1.89 -1.05,0 -1.89,-0.84 -1.89,-1.89l0 -13.5z"></path>    <path class="fil0" d="M154.53 55.42c1.05,0 1.89,0.85 1.89,1.89 0,1.05 -0.84,1.89 -1.89,1.89l-107.97 0c-1.04,0 -1.89,-0.84 -1.89,-1.89 0,-1.04 0.85,-1.89 1.89,-1.89l107.97 0z"></path>    <path class="fil0" d="M154.53 36.12c1.05,0 1.89,0.84 1.89,1.89 0,1.04 -0.84,1.89 -1.89,1.89l-107.97 0c-1.04,0 -1.89,-0.85 -1.89,-1.89 0,-1.05 0.85,-1.89 1.89,-1.89l107.97 0z"></path>    <path class="fil0" d="M152.64 39.43c0,-1.05 0.85,-1.89 1.89,-1.89 1.05,0 1.89,0.84 1.89,1.89l0 17.88c0,1.05 -0.84,1.9 -1.89,1.9 -1.04,0 -1.89,-0.85 -1.89,-1.9l0 -17.88z"></path>    <path class="fil0" d="M44.67 39.43c0,-1.05 0.85,-1.89 1.89,-1.89 1.05,0 1.9,0.84 1.9,1.89l0 17.88c0,1.05 -0.85,1.9 -1.9,1.9 -1.04,0 -1.89,-0.85 -1.89,-1.9l0 -17.88z"></path>   </g>   <rect class="fil1" width="201.09" height="201.09"></rect>  </g> </g></svg>