<svg xmlns="http://www.w3.org/2000/svg" viewBox="0 0 11.15 11.17"><g data-name="Layer 2"><path d="M.75 10.73H2v-2H.75Zm2.79 0h1.29V7.07H3.54Zm2.78 0h1.3V5.81h-1.3Zm2.79 0h1.29v-6.1H9.11Zm-9 .44a.384.384 0 0 1-.11-.25.33.33 0 0 1 .14-.17.27.27 0 0 1 .16 0V8.56c0-.19.07-.27.26-.27h1.66c.19 0 .26.08.26.27v2.17h.61V6.91c0-.21.07-.28.28-.28H5c.2 0 .27.07.27.28v3.82h.61V5.65c0-.22.07-.28.29-.28h1.6c.22 0 .29.06.29.29v5.07h.61V4.49c0-.24.06-.3.31-.3h1.61c.18 0 .26.08.26.26v6.28a.28.28 0 0 1 .3.16v.28Zm1.48-5.03L1.68 6l2.37-2.33c.14-.14.25-.14.38 0s.19.19.28.28l.41.41.08-.08L7.44 2a.3.3 0 0 1 .33-.11v-.6h-.6a.26.26 0 0 1-.07.3L5.3 3.41a.22.22 0 0 1-.36 0l-.62-.62s-.05 0-.06-.06l-3 3 .36.37M5.11 3l1.56-1.6-.17-.14A.22.22 0 0 1 6.44 1a.22.22 0 0 1 .22-.13H8a.22.22 0 0 1 .24.24v1.32a.21.21 0 0 1-.13.22.22.22 0 0 1-.26-.06l-.14-.17-.11.09C6.83 3.26 6.09 4 5.34 4.75c-.17.18-.26.18-.44 0l-.65-.65-.09.08-2.37 2.38c-.17.16-.26.16-.42 0L.77 6a.22.22 0 0 1 0-.37l3.28-3.3a.24.24 0 0 1 .39 0Zm4.42-1.6V.84a.36.36 0 0 0-.17.32.25.25 0 0 0 .17.24m.45.69v.78a.47.47 0 0 0 .25-.45.35.35 0 0 0-.23-.33ZM9.54.37V.2a.21.21 0 0 1 .22-.2.2.2 0 0 1 .24.2c0 .15 0 .2.18.23a.72.72 0 0 1 .23.12.21.21 0 0 1 .07.31.21.21 0 0 1-.3.06L10 .83v.78a.85.85 0 0 1 .69.9 1 1 0 0 1-.7.84 1.21 1.21 0 0 1 0 .19.2.2 0 0 1-.21.21.21.21 0 0 1-.22-.21v-.15a2.38 2.38 0 0 1-.38-.11 1 1 0 0 1-.22-.13.21.21 0 0 1-.07-.29.22.22 0 0 1 .29-.08l.2.1a.76.76 0 0 0 .18.06V2s0-.05-.06-.07l-.2-.11a.65.65 0 0 1-.36-.66.76.76 0 0 1 .5-.76Z" style="fill:#c7ac61" data-name="Layer 1"/></g></svg>