<svg xmlns="http://www.w3.org/2000/svg" viewBox="0 0 10.33 11.05"><defs><style>.cls-1{fill:#c7ac61}</style></defs><g id="Layer_2" data-name="Layer 2"><g id="Layer_1-2" data-name="Layer 1"><path class="cls-1" d="M2.22 8.4V.26c0-.15.06-.24.17-.26a.2.2 0 0 1 .25.2v.34c0 .11 0 .14.12.17l4.3 1.43c.18.06.25.2.16.32a.41.41 0 0 1-.17.12l-2.55.85L2.65 4v4.3c.35 0 .7-.09 1-.11.51 0 1-.05 1.54-.05s.93 0 1.39.05a3.57 3.57 0 0 1 .47 0 .21.21 0 0 1 .21.25.23.23 0 0 1-.26.26c-.35 0-.7-.07-1-.08H4.33c-.41 0-.82.06-1.23.1h-.45v.35c0 .11 0 .05.07.06l.25.1a.38.38 0 0 1 0 .66 1.07 1.07 0 0 1-1.09 0 .37.37 0 0 1 0-.65 3.13 3.13 0 0 1 .32-.15v-.3L1.65 9c-.31.1-.61.22-.9.34a.73.73 0 0 0-.23.16c-.12.11-.13.19 0 .29A2.56 2.56 0 0 0 1 10a5.34 5.34 0 0 0 1.37.37c.5.08 1 .15 1.52.18s1.22 0 1.82 0c.41 0 .82 0 1.22-.06a9.09 9.09 0 0 0 2.32-.46 2.52 2.52 0 0 0 .58-.32c.15-.1.14-.19 0-.32l-.07-.06a.21.21 0 0 1 0-.3.22.22 0 0 1 .31 0 .63.63 0 0 1 0 1.1 3.11 3.11 0 0 1-1 .45 10.35 10.35 0 0 1-1.66.32 17.63 17.63 0 0 1-2.78.1c-.55 0-1.1 0-1.63-.08a8.31 8.31 0 0 1-1.91-.39 2.67 2.67 0 0 1-.74-.36.64.64 0 0 1 0-1.17 3.39 3.39 0 0 1 1-.44l.83-.2"/><path class="cls-1" d="M8.52 7.89a.83.83 0 0 1 .83.83.84.84 0 0 1-1.67 0 .83.83 0 0 1 .84-.82"/></g></g></svg>