<svg xmlns="http://www.w3.org/2000/svg" viewBox="0 0 12.42 14.53"><defs><style>.cls-1{fill:#c7ac61}</style></defs><g id="Layer_2" data-name="Layer 2"><g id="Layer_1-2" data-name="Layer 1"><path class="cls-1" d="M6.22 10.63c-1.42 0-2.84-.07-4.26-.2-.2 0-.24-.07-.22-.26a3.48 3.48 0 0 1 1.1-2.23 2.79 2.79 0 0 1 .87-.59 2 2 0 0 1 .54-.13.42.42 0 0 1 .41.25c.43.84.87 1.67 1.31 2.5a.78.78 0 0 0 .16.21c.12.1.19.08.27-.06l1-1.94.33-.62a.54.54 0 0 1 .78-.3 3.22 3.22 0 0 1 1.29.89 3.48 3.48 0 0 1 .9 2c0 .17 0 .23-.2.24-.68.05-1.37.1-2 .13s-1.5 0-2.25.07m-5.54 1.1c.15 0 .21 0 .23.15a.7.7 0 0 0 .12.34.28.28 0 0 0 .43.07.65.65 0 0 0 .15-.74.62.62 0 0 0-.57-.45.61.61 0 0 0-.42.21 1.49 1.49 0 0 0-.13 1.64.84.84 0 0 0 .8.41l2.08-.19L5.3 13a.28.28 0 0 1 0 .28.55.55 0 0 1-.4.23 1.67 1.67 0 0 1-.31 0 19.24 19.24 0 0 0-2.84.16 3.1 3.1 0 0 1-.68 0 1 1 0 0 1-.91-.73 2.53 2.53 0 0 1 0-1.61 1 1 0 0 1 1-.7c.52 0 1 .06 1.54.1l2.22.15a.38.38 0 0 1 .37.27 3.13 3.13 0 0 1 .21 1.25c0 .23-.07.3-.31.32l-1.36.13-2.16.15a3.09 3.09 0 0 1-.43 0 .56.56 0 0 1-.59-.57 7 7 0 0 1 .06-.79M11.1 1l-1.36.35-3 .76a2.13 2.13 0 0 1-1.12 0L1.59 1a2.44 2.44 0 0 1-.24-.1l.76-.15L5.9 0a2.5 2.5 0 0 1 1 .06l4 .77a1.87 1.87 0 0 1 .22.07V1m-3.68 9.88 1.46-.1 2.29-.15a1.91 1.91 0 0 1 .41 0 .76.76 0 0 1 .56.39 1.87 1.87 0 0 1 .26 1 8.94 8.94 0 0 1-.09.89c0 .19-.13.25-.33.23l-4.15-.4a.32.32 0 0 1-.14 0s-.1-.09-.09-.13a4.35 4.35 0 0 0-.18-1.68m1.1-7.58a2.19 2.19 0 0 1 .09 1 2.42 2.42 0 0 1-3.41 1.91A2.45 2.45 0 0 1 3.8 3.81v-.29c0-.1.07-.17.19-.08A3.44 3.44 0 0 0 5.28 4a3.86 3.86 0 0 0 3.21-.61"/><path class="cls-1" d="M8.75 1.78v.96a.7.7 0 0 1-.36.56 3.62 3.62 0 0 1-1.68.6 3.84 3.84 0 0 1-2.39-.5.87.87 0 0 1-.5-.77c0-.3 0-.59-.08-.9l.77.27L6 2.36a1.15 1.15 0 0 0 .61 0C7.26 2.15 8 2 8.63 1.8h.12m-3.36 9.08h1.67c.12 0 .17.08.2.18a3 3 0 0 1 .19 1.14 3.39 3.39 0 0 1-.17 1.05.19.19 0 0 1-.2.15H5.44a3.11 3.11 0 0 0-.05-2.5m.84-4.25h.22a.35.35 0 0 1 .33.29.32.32 0 0 1-.23.36.17.17 0 0 0-.12.15 1.19 1.19 0 0 0 .13.64l.15.28a.72.72 0 0 1 0 .64c-.12.27-.25.53-.38.8a.2.2 0 0 1-.07.09c-.08.07-.13.06-.17 0L5.7 9a.61.61 0 0 1 0-.57c.07-.16.16-.3.22-.46A1.89 1.89 0 0 0 6 7.56a.23.23 0 0 0-.16-.27.33.33 0 0 1-.21-.35.36.36 0 0 1 .37-.29 2.09 2.09 0 0 1 .25 0Zm5.86 6.8a1.17 1.17 0 0 1-.66.21c-.34 0-.67 0-1-.05a25.21 25.21 0 0 0-2.61-.14.9.9 0 0 1-.23 0 .18.18 0 0 1-.1-.3.33.33 0 0 1 .32-.17l1.06.08 2.69.25h.53M10.06 1.36v1.05a1.82 1.82 0 0 0 0 .33.46.46 0 0 0 .09.23.22.22 0 0 1 0 .25.69.69 0 0 0 0 .58c.07.23.12.46.18.69a.74.74 0 0 0 0 .12h-.64a.09.09 0 0 1-.09-.11l.09-.44c0-.15.08-.28.1-.43a.83.83 0 0 0 0-.35A.42.42 0 0 1 9.8 3a.78.78 0 0 0 .09-.33v-1a.71.71 0 0 1 0-.2c0-.05.06-.09.09-.14h.06M5.4 13.6h1.53a.36.36 0 0 1 .35.23 1.2 1.2 0 0 1 .13.51L7 14.09l-.29-.15c-.16-.08-.22-.06-.31.1s-.17.31-.27.49a.56.56 0 0 1-.13-.15 1.1 1.1 0 0 0-.6-.74"/></g></g></svg>