<svg xmlns="http://www.w3.org/2000/svg" xmlns:xlink="http://www.w3.org/1999/xlink" xmlns:xodm="http://www.corel.com/coreldraw/odm/2003" xml:space="preserve" width="205px" height="205px" style="shape-rendering:geometricPrecision; text-rendering:geometricPrecision; image-rendering:optimizeQuality; fill-rule:evenodd; clip-rule:evenodd" viewBox="0 0 20.48 20.48"> <defs>  <style type="text/css">   <![CDATA[    .fil0 {fill:#C3A243;fill-rule:nonzero}   ]]>  </style> </defs> <g id="Layer_x0020_1">  <metadata id="CorelCorpID_0Corel-Layer"></metadata>  <g id="_105553201847840">   <path class="fil0" d="M10.24 0.38c2.36,0 4.53,0.83 6.23,2.22 -0.74,0.28 -1.71,0.77 -3.03,1.62 -0.68,0.43 -0.91,0.62 -1.36,1.31 -0.38,0.5 -1.18,1.64 -1.35,2.19 -0.27,0.87 -0.36,2.32 0.16,2.98 0.78,0.24 0.78,-0.24 1.76,0.34 1.04,0.61 0.96,-0.12 1.68,0.3 -0.34,0.5 -0.26,0.3 -0.83,0.32 -0.64,0.03 -0.32,0.16 -0.89,0.23l-3.31 -0.11c-0.45,-0.05 -0.55,-0.14 -1.03,-0.21 -1.24,-0.17 -1.41,0.39 -1.62,-0.5l0.9 -0.21c0.83,-0.15 0.27,-0.09 0.63,-0.37 0.32,-0.27 1.23,-0.28 1.74,-0.37 0.2,-0.98 0.2,-1.73 0.02,-2.83 -0.16,-1.93 -1.81,-3.46 -3.35,-4.23 -0.76,-0.38 -1.42,-0.65 -2.09,-0.83 1.62,-1.16 3.6,-1.85 5.74,-1.85z"></path>   <path class="fil0" d="M5.08 15.25c-0.13,0 -0.26,-0.02 -0.38,-0.07 -0.11,-0.04 -0.21,-0.1 -0.3,-0.19 -0.08,-0.08 -0.15,-0.17 -0.2,-0.28 -0.04,-0.11 -0.07,-0.23 -0.07,-0.36 0,-0.13 0.03,-0.25 0.07,-0.36 0.05,-0.11 0.12,-0.21 0.2,-0.29 0.09,-0.08 0.19,-0.14 0.31,-0.19 0.11,-0.04 0.24,-0.06 0.38,-0.06 0.16,0 0.29,0.02 0.42,0.07 0.12,0.05 0.23,0.13 0.31,0.23l-0.26 0.24c-0.06,-0.07 -0.13,-0.12 -0.2,-0.15 -0.08,-0.03 -0.16,-0.05 -0.25,-0.05 -0.08,0 -0.16,0.01 -0.23,0.04 -0.07,0.03 -0.13,0.06 -0.18,0.11 -0.05,0.05 -0.09,0.11 -0.12,0.18 -0.03,0.07 -0.04,0.14 -0.04,0.23 0,0.08 0.01,0.15 0.04,0.22 0.03,0.07 0.07,0.13 0.12,0.18 0.05,0.05 0.11,0.09 0.18,0.11 0.07,0.03 0.14,0.04 0.23,0.04 0.08,0 0.15,-0.01 0.23,-0.03 0.07,-0.03 0.15,-0.07 0.22,-0.13l0.23 0.29c-0.1,0.07 -0.21,0.12 -0.33,0.16 -0.13,0.04 -0.25,0.06 -0.38,0.06zm0.34 -0.28l0 -0.65 0.37 0 0 0.71 -0.37 -0.06zm1.16 0.25l-0.57 -1.74 0.42 0 0.49 1.54 -0.21 0 0.52 -1.54 0.38 0 0.49 1.54 -0.2 0 0.51 -1.54 0.39 0 -0.57 1.74 -0.44 0 -0.44 -1.36 0.12 0 -0.46 1.36 -0.43 0zm2.15 0l0.78 -1.74 0.4 0 0.78 1.74 -0.43 0 -0.63 -1.54 0.16 0 -0.64 1.54 -0.42 0zm0.39 -0.38l0.11 -0.3 0.89 0 0.11 0.3 -1.11 0zm1.75 0.38l0 -1.74 0.79 0c0.19,0 0.36,0.03 0.5,0.1 0.14,0.08 0.26,0.18 0.34,0.31 0.08,0.13 0.12,0.28 0.12,0.46 0,0.17 -0.04,0.33 -0.12,0.46 -0.08,0.13 -0.2,0.23 -0.34,0.3 -0.14,0.07 -0.31,0.11 -0.5,0.11l-0.79 0zm0.4 -0.33l0.37 0c0.12,0 0.22,-0.02 0.3,-0.07 0.09,-0.04 0.15,-0.11 0.2,-0.19 0.05,-0.08 0.07,-0.17 0.07,-0.28 0,-0.11 -0.02,-0.21 -0.07,-0.29 -0.05,-0.08 -0.11,-0.14 -0.2,-0.19 -0.08,-0.04 -0.18,-0.06 -0.3,-0.06l-0.37 0 0 1.08zm1.4 0.33l0.78 -1.74 0.4 0 0.77 1.74 -0.42 0 -0.64 -1.54 0.16 0 -0.64 1.54 -0.41 0zm0.39 -0.38l0.11 -0.3 0.89 0 0.11 0.3 -1.11 0zm1.75 0.38l0 -1.74 0.75 0c0.16,0 0.29,0.02 0.4,0.07 0.12,0.05 0.2,0.12 0.27,0.22 0.06,0.09 0.09,0.21 0.09,0.34 0,0.13 -0.03,0.24 -0.09,0.33 -0.07,0.1 -0.15,0.17 -0.27,0.22 -0.11,0.05 -0.24,0.07 -0.4,0.07l-0.53 0 0.18 -0.17 0 0.66 -0.4 0zm1.1 0l-0.43 -0.63 0.43 0 0.44 0.63 -0.44 0zm-0.7 -0.62l-0.18 -0.19 0.51 0c0.12,0 0.22,-0.03 0.28,-0.08 0.06,-0.05 0.09,-0.13 0.09,-0.22 0,-0.1 -0.03,-0.17 -0.09,-0.23 -0.06,-0.05 -0.16,-0.08 -0.28,-0.08l-0.51 0 0.18 -0.19 0 0.99z"></path>   <path class="fil0" d="M10.24 0c2.83,0 5.39,1.15 7.24,3 1.86,1.85 3,4.41 3,7.24 0,2.83 -1.14,5.39 -3,7.24 -1.85,1.86 -4.41,3 -7.24,3 -2.83,0 -5.39,-1.14 -7.24,-3 -1.85,-1.85 -3,-4.41 -3,-7.24 0,-2.83 1.15,-5.39 3,-7.24 1.85,-1.85 4.41,-3 7.24,-3zm6.7 3.54c-1.71,-1.71 -4.08,-2.77 -6.7,-2.77 -2.62,0 -4.98,1.06 -6.7,2.77 -1.71,1.72 -2.77,4.08 -2.77,6.7 0,2.62 1.06,4.99 2.77,6.7 1.72,1.72 4.08,2.78 6.7,2.78 2.62,0 4.99,-1.06 6.7,-2.78 1.72,-1.71 2.78,-4.08 2.78,-6.7 0,-2.62 -1.06,-4.98 -2.78,-6.7z"></path>  </g> </g></svg>