<svg xmlns="http://www.w3.org/2000/svg" xmlns:xlink="http://www.w3.org/1999/xlink" xmlns:xodm="http://www.corel.com/coreldraw/odm/2003" xml:space="preserve" width="205px" height="205px" style="shape-rendering:geometricPrecision; text-rendering:geometricPrecision; image-rendering:optimizeQuality; fill-rule:evenodd; clip-rule:evenodd" viewBox="0 0 27.18 27.18"> <defs>  <style type="text/css">   <![CDATA[    .str0 {stroke:#C3A243;stroke-width:1.02;stroke-miterlimit:22.9256}    .str1 {stroke:#C3A243;stroke-width:0.7;stroke-miterlimit:22.9256}    .str3 {stroke:#C3A243;stroke-width:0.7;stroke-miterlimit:22.9256}    .str2 {stroke:#C3A243;stroke-width:0.7;stroke-miterlimit:22.9256}    .str11 {stroke:#C3A243;stroke-width:0.23;stroke-miterlimit:22.9256}    .str12 {stroke:#C3A243;stroke-width:0.7;stroke-linecap:round;stroke-linejoin:round;stroke-miterlimit:22.9256}    .str6 {stroke:#C3A243;stroke-width:0.7;stroke-linecap:round;stroke-linejoin:round;stroke-miterlimit:22.9256}    .str5 {stroke:#C3A243;stroke-width:0.7;stroke-linecap:round;stroke-linejoin:round;stroke-miterlimit:22.9256}    .str9 {stroke:#C3A243;stroke-width:0.7;stroke-linecap:round;stroke-linejoin:round;stroke-miterlimit:22.9256}    .str4 {stroke:#C3A243;stroke-width:0.7;stroke-linecap:round;stroke-linejoin:round;stroke-miterlimit:22.9256}    .str8 {stroke:#C3A243;stroke-width:0.7;stroke-linecap:round;stroke-linejoin:round;stroke-miterlimit:22.9256}    .str7 {stroke:#C3A243;stroke-width:0.7;stroke-linecap:round;stroke-linejoin:round;stroke-miterlimit:22.9256}    .str10 {stroke:#C3A243;stroke-width:0.7;stroke-linecap:round;stroke-linejoin:round;stroke-miterlimit:22.9256}    .fil0 {fill:none}    .fil1 {fill:#C3A243;fill-rule:nonzero}   ]]>  </style> </defs> <g id="Layer_x0020_1">  <metadata id="CorelCorpID_0Corel-Layer"></metadata>  <g id="_105553603077248">   <circle class="fil0 str0" cx="13.59" cy="13.59" r="13.08"></circle>   <path class="fil0 str1" d="M6.19 15.99l1.64 0c0.1,0 0.19,0.08 0.19,0.19l0 4.96 -2.02 0.04 0 -0.05 0 -4.95c0,-0.11 0.08,-0.19 0.19,-0.19z"></path>   <path class="fil0 str2" d="M9.11 21.14l0 -6.14c0,-0.11 0.09,-0.19 0.19,-0.19l1.64 0c0.11,0 0.19,0.08 0.19,0.19l0 6.18"></path>   <path class="fil0 str3" d="M14.25 21.16l0 0.02m-2.02 -0.03l0 -7.4c0,-0.11 0.08,-0.19 0.19,-0.19l1.64 0c0.1,0 0.19,0.08 0.19,0.19l0 7.41"></path>   <path class="fil0 str4" d="M17.36 19.5l0 1.7m-2.02 -0.09l0 -8.6c0,-0.1 0.09,-0.19 0.19,-0.19l1.64 0c0.1,0 0.19,0.09 0.19,0.19l0 0.82"></path>   <g>    <path class="fil0 str5" d="M18.9 19c-1.25,-0.16 -2.21,-1.23 -2.21,-2.52 0,-1.25 0.9,-2.29 2.08,-2.51"></path>    <line class="fil0 str6" x1="18.37" y1="13.39" x2="18.96" y2="14"></line>    <line class="fil0 str7" x1="18.51" y1="14.76" x2="19.02" y2="14.09"></line>   </g>   <g>    <path class="fil0 str8" d="M19.73 13.89c1.25,0.16 2.22,1.23 2.22,2.52 0,1.25 -0.9,2.29 -2.09,2.51"></path>    <line class="fil0 str9" x1="20.27" y1="19.5" x2="19.68" y2="18.89"></line>    <line class="fil0 str10" x1="20.13" y1="18.13" x2="19.62" y2="18.8"></line>   </g>   <path class="fil1 str11" d="M5.72 11.74l4.24 -4.3c0.09,-0.1 0.25,-0.1 0.35,0l2.73 2.77 2.92 -2.8 -0.68 -0.87c-0.09,-0.11 -0.07,-0.27 0.04,-0.35 0.04,-0.03 0.09,-0.05 0.14,-0.05l2.84 -0.16c0.14,0 0.25,0.1 0.26,0.24 0,0.01 0,0.02 0,0.03l0 0 -0.26 2.9c-0.01,0.13 -0.13,0.23 -0.27,0.22 -0.06,0 -0.12,-0.03 -0.16,-0.08l-0.73 -0.67 -4.03 3.86c-0.1,0.09 -0.26,0.09 -0.35,-0.01l-2.62 -2.67 -2.99 3.31c-0.09,0.1 -0.24,0.11 -0.35,0.01l-1.08 -1.03c-0.1,-0.09 -0.1,-0.25 -0.01,-0.35l0.01 0zm4.41 -3.77l-3.88 3.94 0.71 0.67 2.98 -3.3 0.01 -0.01c0.1,-0.1 0.26,-0.1 0.35,0l2.64 2.68 4.02 -3.85 0 0c0.1,-0.09 0.24,-0.09 0.34,0l0.55 0.5 0.19 -2.11 -2.08 0.12 0.52 0.66c0.08,0.1 0.08,0.25 -0.02,0.34l-3.25 3.13c-0.1,0.09 -0.25,0.09 -0.35,-0.01l-2.73 -2.76z"></path>   <g>    <path class="fil1" d="M5.24 21.53c-0.19,0 -0.35,-0.16 -0.35,-0.35 0,-0.2 0.16,-0.36 0.35,-0.36l0 0.71zm13.27 0l-13.27 0 0 -0.71 13.27 0 0 0.71zm0 -0.71c0.2,0 0.36,0.16 0.36,0.36 0,0.19 -0.16,0.35 -0.36,0.35l0 -0.71z"></path>   </g>   <path class="fil0 str12" d="M20 15.7c0,-0.37 -0.32,-0.47 -0.47,-0.47 -0.16,0 -0.47,0.1 -0.47,0.47 0,0.38 0,0.63 0,0.71m0 0l0 0.47c0,0.15 -0.1,0.47 -0.47,0.47l1.41 0m-0.94 -0.94l0.47 0m-0.47 0l-0.47 0"></path>  </g> </g></svg>