<svg xmlns="http://www.w3.org/2000/svg" viewBox="0 0 10.85 10.59"><defs><style>.cls-1{fill:#c7ac61}</style></defs><g id="Layer_2" data-name="Layer 2"><g id="Layer_1-2" data-name="Layer 1"><path class="cls-1" d="M2.42.32H1.26v.2h1.16ZM2.2.85h-.73v1l.44-.34c.1-.07.24-.14.28-.24a.89.89 0 0 0 0-.37S2.2.87 2.2.85Zm1 8.73h.65c.3 0 .31 0 .26-.3a.63.63 0 0 0-.46-.53.67.67 0 0 0-.65.17.74.74 0 0 1 .22.66Zm7.28-2.48-.07-.1c-1.05-.8-2.1-1.6-3.14-2.41a.16.16 0 0 0-.24 0L4 7l-.2.1.13.15.07-.06 3-2.28c.14-.11.17-.11.31 0l2.22 1.7.84.65ZM.49 3.25c1-.77 2-1.54 3-2.32.15-.11.19-.11.34 0l2 1.53 1.06.81.12-.16L7 3 3.85.63c-.13-.1-.15-.1-.28 0L1.05 2.57l-.68.52Zm-.12 7h4.17V9.9H2.62c-.12 0-.19-.06-.19-.15s.07-.17.19-.17h.26a.36.36 0 0 0-.1-.41.42.42 0 0 0-.43-.11c-.18.06-.21 0-.29-.12a.66.66 0 0 0-.63-.36.62.62 0 0 0-.59.49.27.27 0 0 1-.19.22.27.27 0 0 0-.2.29h1.36a.18.18 0 0 1 .19.16c0 .09-.07.15-.18.16H.37Zm10.48-3.11-.27.36c-.11.15-.21.16-.36 0l-.4-.3v3h.42c.12 0 .19.06.19.16s-.06.16-.19.16H.23a.27.27 0 0 1-.23-.18v-.55c0-.05.05-.25.09-.38A.63.63 0 0 1 .45 9a.21.21 0 0 0 .09-.1A1 1 0 0 1 1 8.39a.17.17 0 0 0 0-.1v-5l-.37.29c-.18.13-.28.12-.41 0l-.13-.31C0 3.09 0 3 .15 2.86l.93-.71A.16.16 0 0 0 1.15 2V.93a.11.11 0 0 0-.08-.12.25.25 0 0 1-.14-.22V.25A.26.26 0 0 1 1.2 0h1.28a.24.24 0 0 1 .26.21 2.14 2.14 0 0 1 0 .44.18.18 0 0 1-.1.14c-.11 0-.11.12-.09.23L2.64 1l.78-.6A.42.42 0 0 1 4 .35l3.29 2.52c.16.12.17.21 0 .37l-.2.27a.22.22 0 0 1-.34.05l-.42-.32v.27a.16.16 0 1 1-.32 0v-.43A.2.2 0 0 0 6 3L3.71 1.19l-.15.12-2.13 1.63a.16.16 0 0 0-.07.14v5.16h.35a1 1 0 0 1 .56.39c0 .05.07.07.13.05a.33.33 0 0 1 .14 0c.13 0 .21 0 .31-.1a.94.94 0 0 1 1-.14.91.91 0 0 1 .6.77 1.76 1.76 0 0 1 0 .33h.12a.27.27 0 0 1 .29.29 1.34 1.34 0 0 1 0 .2v.2h1.2V7.91c0-.27.1-.37.36-.37h1.47a.29.29 0 0 1 .33.32v1.32a.34.34 0 0 1 0 .1.14.14 0 0 1-.16.11.12.12 0 0 1-.14-.11.59.59 0 0 1 0-.13V7.87H6.41v2.4h1.48V10c0-.13.07-.21.17-.21s.16.08.16.21v.24h1.27V7.1a.17.17 0 0 0-.08-.16L7.24 5.26c-.07 0-.11-.06-.18 0l-3 2.27c-.17.14-.27.12-.4 0l-.18-.23a.23.23 0 0 1 .05-.37L6 5a.18.18 0 0 0 .08-.18V4.3c0-.12.06-.19.16-.19s.16.07.16.19v.41l.1-.07.37-.29a.44.44 0 0 1 .59 0l2 1.56 1.24 1a.73.73 0 0 1 .14.16Z"/><path class="cls-1" d="M4.45 3.64h-.57v.55h.57ZM3 4.2h.57v-.56H3Zm1.45-1.53h-.57v.63h.57Zm-.91 0H3v.63h.57Zm.34 2.49h.57v-.63h-.57Zm-.34-.63H3v.63h.57Zm1.24-.61v1.22c0 .24-.1.34-.34.34H3a.28.28 0 0 1-.32-.31V2.66A.28.28 0 0 1 3 2.35h1.47c.21 0 .31.1.31.32Z"/><path d="M6.49 9v-.2a.15.15 0 0 1 .16-.15.15.15 0 0 1 .15.15 2.67 2.67 0 0 1 0 .4.16.16 0 0 1-.31 0V9" style="fill:#fff"/></g></g></svg>