<svg xmlns="http://www.w3.org/2000/svg" xmlns:xlink="http://www.w3.org/1999/xlink" xmlns:xodm="http://www.corel.com/coreldraw/odm/2003" xml:space="preserve" width="205px" height="205px" style="shape-rendering:geometricPrecision; text-rendering:geometricPrecision; image-rendering:optimizeQuality; fill-rule:evenodd; clip-rule:evenodd" viewBox="0 0 27.18 27.18"> <defs>  <style type="text/css">   <![CDATA[    .str0 {stroke:#C3A243;stroke-width:1.02;stroke-miterlimit:22.9256}    .fil1 {fill:none}    .fil0 {fill:#C3A243}    .fil2 {fill:#C3A243;fill-rule:nonzero}   ]]>  </style> </defs> <g id="Layer_x0020_1">  <metadata id="CorelCorpID_0Corel-Layer"></metadata>  <g id="_105553602932608">   <path id="anchor-solid.svg" class="fil0" d="M14.21 6.75c0,0.34 -0.28,0.61 -0.62,0.61 -0.34,0 -0.61,-0.27 -0.61,-0.61 0,-0.34 0.27,-0.62 0.61,-0.62 0.34,0 0.62,0.28 0.62,0.62l0 0zm0.41 1.53c0.49,-0.33 0.82,-0.89 0.82,-1.53 0,-1.02 -0.83,-1.85 -1.85,-1.85 -1.01,0 -1.84,0.83 -1.84,1.85 0,0.64 0.33,1.2 0.82,1.53l-0.21 0c-0.34,0 -0.61,0.28 -0.61,0.62 0,0.34 0.27,0.61 0.61,0.61l0.62 0 0 4 -0.92 0c-1.02,0 -1.85,-0.82 -1.85,-1.84l0 -0.12 0.14 0.14c0.18,0.18 0.47,0.18 0.65,0 0.18,-0.19 0.18,-0.48 0,-0.66l-1.08 -1.07c-0.18,-0.18 -0.47,-0.18 -0.65,0l-1.08 1.07c-0.18,0.18 -0.18,0.48 0,0.66 0.18,0.17 0.47,0.18 0.65,0l0.14 -0.14 0 0.12c0,1.7 1.37,3.07 3.07,3.07l1.54 0 1.54 0c1.7,0 3.08,-1.37 3.08,-3.07l0 -0.12 0.13 0.14c0.18,0.18 0.47,0.18 0.65,0 0.18,-0.19 0.18,-0.48 0,-0.66l-1.07 -1.07c-0.18,-0.18 -0.48,-0.18 -0.66,0l-1.07 1.07c-0.18,0.18 -0.18,0.48 0,0.66 0.18,0.17 0.47,0.18 0.65,0l0.13 -0.14 0 0.12c0,1.02 -0.82,1.84 -1.84,1.84l-0.92 0 0 -4 0.62 0c0.34,0 0.61,-0.27 0.61,-0.61 0,-0.34 -0.27,-0.62 -0.61,-0.62l-0.21 0z"></path>   <circle class="fil1 str0" cx="13.59" cy="13.59" r="13.08"></circle>   <path class="fil2" d="M7.96 21.04c-0.29,0 -0.57,-0.05 -0.83,-0.14 -0.25,-0.1 -0.48,-0.24 -0.66,-0.42 -0.19,-0.18 -0.34,-0.39 -0.44,-0.64 -0.11,-0.24 -0.16,-0.51 -0.16,-0.8 0,-0.29 0.05,-0.56 0.16,-0.8 0.1,-0.24 0.25,-0.46 0.44,-0.64 0.19,-0.18 0.41,-0.32 0.66,-0.41 0.26,-0.1 0.54,-0.15 0.84,-0.15 0.33,0 0.64,0.06 0.91,0.17 0.27,0.12 0.5,0.29 0.68,0.52l-0.57 0.53c-0.14,-0.16 -0.28,-0.27 -0.45,-0.34 -0.16,-0.08 -0.33,-0.12 -0.53,-0.12 -0.18,0 -0.34,0.03 -0.49,0.09 -0.16,0.06 -0.29,0.14 -0.4,0.26 -0.11,0.11 -0.19,0.24 -0.25,0.39 -0.06,0.15 -0.1,0.32 -0.1,0.5 0,0.19 0.04,0.35 0.1,0.5 0.06,0.16 0.14,0.29 0.25,0.4 0.11,0.11 0.24,0.19 0.4,0.25 0.15,0.06 0.31,0.09 0.49,0.09 0.2,0 0.37,-0.04 0.53,-0.11 0.17,-0.08 0.31,-0.19 0.45,-0.35l0.57 0.53c-0.18,0.23 -0.41,0.4 -0.68,0.52 -0.27,0.11 -0.58,0.17 -0.92,0.17zm2.2 -0.06l0 -3.87 1.68 0c0.35,0 0.64,0.05 0.9,0.16 0.25,0.12 0.44,0.28 0.58,0.49 0.13,0.21 0.2,0.46 0.2,0.75 0,0.29 -0.07,0.54 -0.2,0.75 -0.14,0.21 -0.33,0.37 -0.58,0.48 -0.26,0.11 -0.55,0.17 -0.9,0.17l-1.18 0 0.4 -0.4 0 1.47 -0.9 0zm0.9 -1.38l-0.4 -0.42 1.13 0c0.28,0 0.48,-0.06 0.62,-0.18 0.14,-0.12 0.2,-0.28 0.2,-0.49 0,-0.21 -0.06,-0.38 -0.2,-0.5 -0.14,-0.12 -0.34,-0.17 -0.62,-0.17l-1.13 0 0.4 -0.43 0 2.19zm3.92 -0.94l1.86 0 0 0.7 -1.86 0 0 -0.7zm0.07 1.6l2.1 0 0 0.72 -2.99 0 0 -3.87 2.92 0 0 0.71 -2.03 0 0 2.44zm4.67 0.78c-0.3,0 -0.58,-0.05 -0.83,-0.14 -0.26,-0.1 -0.48,-0.24 -0.67,-0.42 -0.19,-0.18 -0.33,-0.39 -0.44,-0.64 -0.1,-0.24 -0.16,-0.51 -0.16,-0.8 0,-0.29 0.06,-0.56 0.16,-0.8 0.11,-0.24 0.25,-0.46 0.44,-0.64 0.19,-0.18 0.41,-0.32 0.67,-0.41 0.25,-0.1 0.53,-0.15 0.83,-0.15 0.34,0 0.64,0.06 0.91,0.17 0.27,0.12 0.5,0.29 0.69,0.52l-0.58 0.53c-0.13,-0.16 -0.28,-0.27 -0.44,-0.34 -0.16,-0.08 -0.34,-0.12 -0.53,-0.12 -0.18,0 -0.35,0.03 -0.5,0.09 -0.15,0.06 -0.28,0.14 -0.39,0.26 -0.11,0.11 -0.2,0.24 -0.26,0.39 -0.06,0.15 -0.09,0.32 -0.09,0.5 0,0.19 0.03,0.35 0.09,0.5 0.06,0.16 0.15,0.29 0.26,0.4 0.11,0.11 0.24,0.19 0.39,0.25 0.15,0.06 0.32,0.09 0.5,0.09 0.19,0 0.37,-0.04 0.53,-0.11 0.16,-0.08 0.31,-0.19 0.44,-0.35l0.58 0.53c-0.19,0.23 -0.42,0.4 -0.69,0.52 -0.27,0.11 -0.57,0.17 -0.91,0.17z"></path>  </g> </g></svg>