<svg xmlns="http://www.w3.org/2000/svg" viewBox="0 0 11.91 12"><g data-name="Layer 2"><path d="M6.35 8.61h-.79v.6a.34.34 0 0 0 .18.31c0-.23.08-.32.2-.32s.21.16.23.32a.34.34 0 0 0 .17-.31v-.6M4.24 7c.08.31.16.61.23.91s.09.26.33.26h2.38a.21.21 0 0 0 .23-.14c.1-.35.18-.7.27-1.05Zm2.9-3.47a.8.8 0 0 1-1.14 0 .76.76 0 0 1-.59.27.85.85 0 0 1-.6-.26.77.77 0 0 1-.88.16.8.8 0 0 1-.56-.7v-.28A.66.66 0 0 0 3 3.2v1h6v-.82a.79.79 0 0 0-.39-.66.91.91 0 0 1-.52 1 .78.78 0 0 1-.95-.18Zm1.39-1.48a.54.54 0 0 0 .27-.57L8.62.62c0-.17-.1-.22-.28-.22H4.05c-.21 0-.28.07-.28.28V3a.42.42 0 0 0 .42.4.4.4 0 0 0 .37-.4V1.85c0-.16.08-.25.2-.25s.2.09.2.24a.27.27 0 0 1 0 .09v1a.75.75 0 0 0 0 .21.39.39 0 0 0 .79-.14V1.9c0-.2.07-.31.21-.3s.2.1.2.3v1.12a.38.38 0 0 0 .37.38.39.39 0 0 0 .4-.35.86.86 0 0 0 0-.16V1.83a.21.21 0 0 1 .21-.23c.12 0 .19.09.2.24V3a.38.38 0 0 0 .53.36.42.42 0 0 0 .25-.43V1.64c0-.15.07-.24.19-.24s.2.09.2.24Zm3 5.14V5.08A.42.42 0 0 0 11 4.6H.87a.42.42 0 0 0-.47.48v2.11h3.46a.44.44 0 0 1 .08-.47.49.49 0 0 1 .38-.12h3.44a.38.38 0 0 1 .31.31 2.43 2.43 0 0 1 0 .27ZM.4 7.6v3.56a.4.4 0 0 0 .44.44h1.54V9.7c0-.2.07-.3.2-.3s.2.1.2.3v1.9h6.34V9.7q0-.3.21-.3c.13 0 .2.1.2.3v1.9H11a.42.42 0 0 0 .48-.48V7.6H8a.1.1 0 0 0-.11.08c0 .12-.06.23-.08.35a.64.64 0 0 1-.72.57h-.35v.64a.79.79 0 0 1-1 .73.77.77 0 0 1-.58-.74V8.6h-.47a.6.6 0 0 1-.6-.46C4.06 8 4 7.87 4 7.73s-.06-.13-.16-.13H.4ZM11.25 12H.65a2 2 0 0 1-.33-.16.81.81 0 0 1-.32-.5V4.85a.82.82 0 0 1 .86-.63h1.7V3.4a1.17 1.17 0 0 1 .7-1.07.13.13 0 0 0 .09-.15V.64A.6.6 0 0 1 4 0h4.39A.59.59 0 0 1 9 .48c.06.27.13.54.18.82a1.7 1.7 0 0 1 0 .45 1 1 0 0 1-.4.64 1.61 1.61 0 0 1 .22.22 1.11 1.11 0 0 1 .3.8v.79H11a.85.85 0 0 1 .89.89v6.09a.8.8 0 0 1-.34.68 2.37 2.37 0 0 1-.3.14Z" style="fill:#c7ac61" data-name="Layer 1"/></g></svg>