<svg xmlns="http://www.w3.org/2000/svg" fill-rule="evenodd" viewBox="0 0 609.32 374.95"><path fill="#c9ae62" d="M400.2 202.4v-49.1l35.6-35.5-35.6-35.6v-48h-48L319.7 1.9 318 0l-12.7 12.7-11-10.9-1.7-1.8-34.3 34.3h-49.1v49L173.6 119l35.5 35.5v48h48l34.2 34.3 12.8-12.8 12.7 12.8 34.2-34.3h49.2zm0-56.3v-18.3l10-10-10-10.1V89.5l28.3 28.3-28.3 28.3zM345 34.3h-18.3l-17.9-18 9.1-9 27 27zm-37.3 186 17.9-17.9h18.3l-27 27-9.2-9zm49.6-180.9 13.2 13.2V39.4h-13.2zm18.4 18.3L395 77.2V39.3h-19.4v18.4zM395 158.4 375.7 178v19.4H395v-38.9zM370.5 183l-14.3 14.3h14.3V183zm-70 37.3-18-17.9h-18.2l27 27 9.2-9zm-23-23-38.8-38.7V177l20.5 20.4h18.3zm-44-43.8L214.3 134v18.2l19.4 19.5v-18.3zM209.2 129l-10-10 10-10.2V90.6l-28.3 28.3 28.3 28.3V129zm5.1-25.2 19.4-19.5V66.1l-19.4 19.4v18.3zm24.5-24.6 39.8-39.8h-18.2l-21.6 21.5v18.3zm45-45 17.9-17.8-9.1-9.2-27 27h18.2zM395 84.4 375.7 65v18.3l19.4 19.4V84.3zM370.5 60l-20.4-20.5h-18.2l38.6 38.7V59.9zm-65.3-40-14.3 14.4h28.6L305.2 20zm-19.4 19.5-47 47v65l45.9 45.9h38.8l47-47v-65l-45.9-45.9h-38.8zm-52.2 52.1L214.2 111v15.9l19.4 19.3V91.5zM209 116.1l-2.8 2.8 2.8 2.9V116zm80.7 86.3 14.3 14.3 14.2-14.3h-28.5zm59.2-5.1 21.5-21.6v-18.2l-39.8 39.8H349zm26.7-26.7 19.4-19.4v-18.3l-19.4 19.4v18.3zm24.5-50v-5.7l2.9 2.9-3 2.8zM252 197.3 238.7 184v13.2H252zm-18.4-18.4-19.4-19.4v37.8h19.4V179zM214.2 78.3l19.4-19.5V39.3h-19.4v39zm24.5-24.5 14.4-14.4h-14.4v14.4zm156.4 56-19.4-19.4v54.8l19.4-19.5V110zm1.4 175.1-16.6-22h8.4l11.9 15.8 11.8-15.8h8.2l-16.4 21.9v20.5h-7.3v-20.4zm-40.9 4.1-5-12.1-5.3 12.1h10.3zm-24.3 15.1 18.4-41.8h1.8l19 43h-8l-4.5-10.6h-15l-4.5 10.6h-7.7l.5-1.2zm-54 1.1L263.8 263h7.6l8 26 11.5-26.6h1.8l10.7 26.7L312 263h7.3L305 306h-2l-11.4-29-12.3 29h-1.8l-.2-.7zm-49-35.2h-6.8v28h6.8c4.2 0 7.2-1.3 9.1-3.5 2.3-2.6 3.4-6.3 3.4-10.5 0-4.1-1-7.9-3.3-10.4-2-2.2-5-3.6-9.2-3.6zm-14.1 34.4V263H228a19 19 0 0 1 14.5 5.5c3.8 4.1 5.4 9.8 5.4 15.5a23 23 0 0 1-5.4 15.7c-3.2 3.4-8 5.7-14.5 5.7h-14v-.9zM180.9 289l-5.1-12.2-5.2 12.2H181zm-24.3 15.1 18.4-41.8h1.8l19 43h-8l-4.5-10.6h-15l-4.5 10.6H156l.5-1.2zM130 273.5c-2-2.5-5-4-8.8-4-3.8 0-6.8 1.5-8.9 4a16 16 0 0 0-3.4 10.5c0 4.3 1.2 8 3.5 10.6 2 2.5 5 4 8.8 4 3.7 0 6.7-1.5 8.8-4a16 16 0 0 0 3.5-10.5c0-4.3-1.2-8-3.5-10.6zm-22.8-5.2c3.3-3.6 8-6 14-6 5.9 0 10.7 2.4 14 6.1 3.7 4.1 5.6 9.8 5.6 15.7 0 5.8-2 11.5-5.7 15.6-3.3 3.7-8 6.1-14 6.1a18 18 0 0 1-14-6 23.7 23.7 0 0 1-5.5-15.8c0-5.8 2-11.5 5.6-15.6zM67.6 270h-8.7v11.7h8.7c1.8 0 3-.6 4-1.5 1-1 1.4-2.6 1.4-4.3 0-1.7-.5-3.3-1.4-4.4a5.4 5.4 0 0 0-4-1.5zm-16 34.4V263h16.7c3.8 0 6.7 1.2 8.7 3.3 2.2 2.3 3.3 5.6 3.3 9 0 2.6-.6 5.2-1.9 7.2a10 10 0 0 1-4.2 4l10.7 18.9h-8.2L67 287.7h-8v17.6h-7.4v-.9zM17.5 270H7.3v10.2h11.2c1.5 0 2.6-.5 3.3-1.2.8-.8 1.2-2 1.2-3.5 0-1.6-.4-3-1.5-4-.9-1-2.2-1.5-4-1.5zm1.3 15.6H7.3v12.5h11c1.8 0 3.2-.7 4.2-1.7 1-1.1 1.6-2.8 1.6-4.6a7 7 0 0 0-1.5-4.5 5 5 0 0 0-3.8-1.7zM0 304.4V263h18c3.9 0 6.7 1.2 8.7 3 2.4 2.3 3.4 5.4 3.4 8.7 0 2-.5 3.8-1.2 5.3a8.9 8.9 0 0 1-2.5 2.8 12 12 0 0 1 5 10 13 13 0 0 1-3.5 9.1c-2 2.1-5 3.5-8.8 3.5H0v-.9zm585.5-19.5-16.6-22h8.4l11.9 15.8 12-15.8h8.1L593 284.8v20.5h-7.3v-20.4zm-60.8-15.7v-6.3h31v7.1H544v35.3h-7.3V270h-12v-.8zM500 304.4V263h7.4v42.4H500v-.9zm-25.7-40.6c2.7 1 5.1 2.5 7.1 4.4l.6.5-4.5 5.9-.6-.6a19 19 0 0 0-5-3.2c-1.7-.8-3.7-1.3-6-1.3-3.7 0-7 1.4-9.3 4-2.2 2.3-3.5 5.9-3.5 10.4 0 4.6 1.3 8.2 3.5 10.7 2.3 2.6 5.6 4 9.3 4 2.2 0 4.4-.5 6.3-1.6 1.8-1 3.2-2.5 4.2-4.4l.4-1 5.5 4.6-.3.6c-1.5 3-3.8 5.2-6.5 6.6a19.8 19.8 0 0 1-9.6 2.4c-5.9 0-11-2.2-14.6-6.2a23 23 0 0 1-5.5-15.8 22 22 0 0 1 5.5-15.5c3.6-3.9 8.8-6 14.7-6 3 0 5.8.6 8.3 1.5zM425 339.2h-8.5v11.7h8.6c1.8 0 3.1-.6 4-1.5 1-1.1 1.5-2.7 1.5-4.4 0-1.7-.5-3.2-1.5-4.3a5.3 5.3 0 0 0-4-1.5zm-15.9 34.4v-41.7H426c3.8 0 6.6 1.4 8.6 3.4a13 13 0 0 1 3.3 9.1c0 2.6-.6 5-1.8 7.1-1 1.7-2.4 3-4.3 4l10.7 19h-8.2l-9.7-17.7h-8v17.6h-7.4v-.8zM385 358.2l-5.1-12.2-5.2 12.2H385zm-24.3 15 18.4-41.8h1.8c6.3 14.4 12.5 28.7 18.9 43h-8l-4.4-10.6h-15l-4.5 10.6H360l.6-1.1zm-26.6-34H327v28h6.9c4.1 0 7.1-1.4 9-3.6 2.3-2.5 3.3-6.3 3.3-10.4 0-4.2-1-8-3.2-10.5-2-2.2-5-3.5-9.1-3.5zm-14.3 34.4v-41.7h14c6.6 0 11.3 2.3 14.5 5.6 3.8 4 5.4 9.9 5.4 15.5 0 5.7-1.6 11.6-5.4 15.7a18.7 18.7 0 0 1-14.5 5.7h-14v-.8zm-24.2-15.4-5.1-12.2-5.2 12.2h10.3zm-24.4 15 18.4-41.8h1.9l18.8 43h-7.9l-4.4-10.6h-15l-4.6 10.6h-7.7l.5-1.1zm-45 1.1L212.4 332h7.6l8 26.1 11.6-26.6h1.7l10.8 26.6 8.5-26h7.3l-14.3 43H252l-11.6-29-12.3 29h-1.8l-.1-.7zm-38.7-19.1v-5.5H205l.2.7c.1.5.3 1.1.3 1.9l.1 2.3c0 6-1.8 11.1-5 14.7a18 18 0 0 1-13.7 5.6 19 19 0 0 1-14.4-6.2 23.4 23.4 0 0 1-5.5-15.9c0-6.8 2.1-11.9 5.6-15.4 3.8-4 9.3-6 15-6a23.4 23.4 0 0 1 14.9 5.2l.6.5-3.8 6.1-.7-.6c-3.2-2.7-7-4-10.8-4-4 0-7.4 1.4-9.8 4-2.3 2.4-3.7 6-3.7 10.5 0 4.4 1.2 8 3.5 10.6a12 12 0 0 0 9.3 4c3.6 0 6.5-1.3 8.5-3.4 1.9-2 3-5 3.2-8.3h-11.3v-.9z"/></svg>