<svg xmlns="http://www.w3.org/2000/svg" xml:space="preserve" width="126px" height="60px" version="1.1" viewBox="0 0 14.89 7.11">
  <style type="text/css">
    .fil4 {fill:none}
    .fil1 {fill:#BA994D}
    .fil0 {fill:#C9AE62}
    .fil2 {fill:#C9AE62;fill-rule:nonzero}
    .fil3 {fill:#BA994D;fill-opacity:0.529412}
  </style>
 <g id="Layer_x0020_1">
  <metadata id="CorelCorpID_0Corel-Layer"/>
  <g id="_12356091616">
   <g>
    <polygon class="fil0" points="10.98,3.65 10.98,7.11 7.53,7.11 7.53,3.65 "/>
    <polygon class="fil0" points="7.53,0.05 10.98,0.05 10.98,3.51 7.53,3.51 "/>
    <polygon class="fil0" points="7.38,3.65 7.38,7.11 3.93,7.11 3.93,3.65 "/>
    <polygon class="fil1" points="7.53,1.78 10.98,1.78 10.98,3.51 7.53,3.51 "/>
    <polygon class="fil2" points="3.93,0 7.41,0 7.41,3.51 3.91,3.51 3.91,0 "/>
    <polygon class="fil1" points="3.93,0.05 5.66,3.49 7.38,0.05 7.38,3.51 5.65,3.51 3.93,3.51 "/>
    <polygon class="fil1" points="7.38,7.11 3.93,7.11 3.93,3.65 "/>
    <polygon class="fil1" points="10.98,7.11 7.53,7.11 7.53,3.65 "/>
    <polygon class="fil3" points="7.53,7.11 10.98,7.11 10.98,3.65 "/>
   </g>
   <rect class="fil4" width="14.89" height="7.11"/>
  </g>
 </g>
</svg>
