<svg xmlns="http://www.w3.org/2000/svg" xmlns:xlink="http://www.w3.org/1999/xlink" id="Layer_1" x="0px" y="0px" viewBox="0 0 500 500" style="enable-background:new 0 0 500 500;" xml:space="preserve"><style type="text/css">	.st0{fill:#C6A444;}	.st1{fill:#FFFFFF;}</style><circle class="st0" cx="250" cy="250" r="250"></circle><g>	<path class="st1" d="M430.66,249.77c-0.49,45.37-15.28,85.42-45.17,119.67c-16.17,18.53-35.56,32.96-57.77,43.56  c-16.14,7.71-33.05,12.91-50.75,15.64c-15.02,2.31-30.08,2.57-45.15,1.15c-17.62-1.67-34.62-6.05-51-12.8  c-19.78-8.15-37.57-19.42-53.32-33.9c-17.15-15.78-30.81-34.17-40.82-55.21c-11.55-24.26-17.62-49.79-17.73-76.75  c-0.07-15.68,1.66-31.09,5.57-46.24c6.02-23.32,16.19-44.68,30.68-63.94c12.72-16.91,28-31.09,45.69-42.65  c13.9-9.09,28.82-16.05,44.66-21.11c23.3-7.44,47.14-9.67,71.42-7.55c12.57,1.1,24.9,3.6,36.91,7.54c4.76,1.56,7.28,6.33,6,10.94  c-1.29,4.63-5.92,7.42-10.74,6.3c-6.56-1.52-13.03-3.48-19.64-4.73c-21.06-3.99-42.12-3.72-63.12,0.69  c-24.15,5.07-46.05,15.09-65.66,30.02c-14.01,10.68-25.95,23.37-35.82,37.99C104.35,174,96.68,190.9,91.96,209.15  c-6,23.24-6.82,46.66-2.44,70.25c4.76,25.62,15.01,48.84,30.85,69.5c17.39,22.67,39.34,39.56,65.62,50.82  c15.48,6.63,31.61,10.73,48.34,12.33c17.72,1.69,35.27,0.46,52.61-3.63c22.5-5.31,42.98-14.91,61.39-28.86  c14.19-10.76,26.26-23.55,36.24-38.31c10.63-15.72,18.31-32.75,23.02-51.13c5.94-23.19,6.76-46.57,2.27-70.08  c-1.16-6.08-2.8-12.07-4.41-18.06c-1.43-5.33,0.35-9.87,4.93-11.79c4.81-2.02,10.44,0.27,11.89,5.3  c2.04,7.04,3.93,14.14,5.35,21.32C429.79,227.66,430.86,238.65,430.66,249.77z"></path>	<path class="st1" d="M245.37,375.34c-23.86-0.29-49.83-8.95-72.57-26.74c-21.73-17.01-36.39-38.85-43.92-65.42  c-4.58-16.17-5.74-32.6-3.73-49.27c2.91-24.22,12.17-45.77,27.55-64.62c13.89-17.03,31.15-29.59,51.64-37.63  c16.16-6.34,32.91-9.24,50.26-8.53c1.96,0.08,3.95,0.25,5.85,0.7c6.1,1.45,9.05,8.89,5.57,13.93c-1.97,2.86-4.82,4.1-8.21,3.69  c-7.78-0.93-15.49-0.4-23.19,0.72c-16.51,2.4-31.67,8.33-45.4,17.8c-18.88,13.03-32.38,30.34-40.38,51.82  c-5.88,15.8-7.79,32.17-5.99,48.95c2.04,19.04,8.69,36.34,19.92,51.84c10.19,14.07,23.04,25.11,38.53,32.97  c19.3,9.79,39.74,13.44,61.26,11.08c19.05-2.1,36.31-8.86,51.73-20.18c16.77-12.3,29-28.18,36.72-47.51  c4.92-12.33,7.36-25.16,7.57-38.41c0.05-3.09-0.37-6.19-0.53-9.28c-0.22-4.35,2.78-8.37,6.88-9.26c4.61-1,9.05,1.2,10.52,5.55  c0.68,2,0.89,4.21,0.97,6.34c1.18,33.26-9,62.62-30.66,87.87c-16.75,19.52-37.76,32.5-62.53,39.33  C272.49,374.02,261.48,375.36,245.37,375.34z"></path>	<path class="st1" d="M334.16,195.03c-4.95,0-9.91,0.05-14.86-0.03c-1.44-0.02-2.46,0.44-3.46,1.45  c-19.34,19.39-38.72,38.74-58.07,58.12c-1.86,1.86-3.87,3.39-6.58,3.64c-3.7,0.35-7.19-1.57-8.89-4.84  c-1.71-3.28-1.32-7.13,1.27-10c2.32-2.56,4.83-4.96,7.27-7.41c17.34-17.34,34.68-34.68,52.05-51.99c1.14-1.13,1.67-2.27,1.66-3.91  c-0.07-9.55,0.03-19.09-0.07-28.64c-0.04-3.59,1.19-6.39,3.73-8.92c17.39-17.29,34.72-34.64,52.04-52.01  c2.51-2.51,5.26-4.06,8.93-3.42c3.98,0.68,7.09,3.86,7.31,7.91c0.21,3.93,0.11,7.87,0.12,11.81c0.01,4.71,0.05,9.43-0.03,14.14  c-0.03,1.58,0.5,2.07,2.06,2.05c8.17-0.06,16.35-0.07,24.52-0.02c5.19,0.03,8.82,3.14,9.41,7.96c0.28,2.28-0.22,4.41-1.65,6.24  c-0.84,1.08-1.8,2.07-2.76,3.04c-16.91,16.93-33.87,33.81-50.72,50.79c-2.8,2.82-5.86,4.24-9.86,4.07  C343.12,194.88,338.64,195.03,334.16,195.03z M381.26,141.46c-0.08-0.17-0.16-0.35-0.25-0.52c-0.57,0-1.14,0-1.71,0  c-3.76,0-7.51,0.06-11.27-0.02c-5.75-0.13-9.32-3.76-9.38-9.49c-0.04-3.76,0-7.51-0.01-11.27c0-0.56-0.07-1.12-0.13-2.04  c-0.66,0.46-1.06,0.66-1.37,0.96c-11.22,11.21-22.43,22.43-33.6,33.68c-0.55,0.56-0.96,1.54-0.97,2.33  c-0.07,6.68,0,13.36-0.07,20.03c-0.02,1.53,0.53,1.94,1.98,1.92c6.38-0.06,12.76-0.07,19.14,0c1.55,0.02,2.67-0.41,3.78-1.53  c10.93-10.99,21.91-21.93,32.87-32.89C380.65,142.27,380.94,141.85,381.26,141.46z"></path>	<path class="st1" d="M252.64,321.24c-34.12-0.04-62.1-20.83-71.35-51.31c-9.53-31.39,3.75-65.73,32.01-82.64  c11.25-6.73,23.48-10.15,36.6-10.25c6.3-0.05,10.61,5.18,9.17,11.19c-0.83,3.48-3.13,5.76-6.66,6.5c-1.91,0.4-3.91,0.35-5.87,0.51  c-24.17,1.94-43.48,18.56-48.98,42.15c-6.1,26.17,9.18,53.87,34.57,62.68c27.74,9.62,56.99-3.4,68.37-30.49  c2.62-6.23,3.88-12.78,3.96-19.53c0.04-3.66,1.24-6.7,4.49-8.61c6.03-3.54,13.5,0.72,13.55,7.81c0.06,9.11-1.57,17.96-5.03,26.38  c-8.38,20.4-23.01,34.36-43.77,41.79C266.19,320.1,258.35,321.3,252.64,321.24z"></path></g></svg>