<svg xmlns="http://www.w3.org/2000/svg" xml:space="preserve" width="126px" height="60px" version="1.1" viewBox="0 0 25.22 12.05">
  <style type="text/css">
    .fil1 {fill:none}
    .fil0 {fill:#C9AE62}
  </style>
 <g id="Layer_x0020_1">
  <metadata id="CorelCorpID_0Corel-Layer"/>
  <g id="_5520274208">
   <path class="fil0" d="M13.31 0l1.34 0 0 8.52 -1.34 0 0 -8.52zm-0.7 9.54c3.68,0 6.74,1.08 7.43,2.51 -1.07,-1.25 -3.99,-2.14 -7.43,-2.14 -3.44,0 -6.36,0.89 -7.43,2.14 0.69,-1.43 3.76,-2.51 7.43,-2.51zm-1.94 -4.25l0 3.23 -1 0 0 -3.23 1 0zm1.84 -2.24l0 5.47 -1.06 0 0 -5.47 1.06 0z"/>
   <rect class="fil1" width="25.22" height="12.05"/>
  </g>
 </g>
</svg>
