<svg xmlns="http://www.w3.org/2000/svg" viewBox="0 0 11.39 11.15"><defs><style>.cls-1{fill:#c7ac61}</style></defs><g id="Layer_2" data-name="Layer 2"><g id="Layer_1-2" data-name="Layer 1"><path class="cls-1" d="M5.86 5.51 10.3.67l-.84.25-.12-.36.12-.05L10.88 0c.1 0 .19-.06.27 0a.25.25 0 0 1 0 .27l-.45 1.51v.11l-.35-.13.19-.76-.54.58-3.9 4.24c-.16.18-.2.19-.41 0L2.8 4l-.09-.05L.35 7 0 6.81l.58-.71 1.88-2.5c.13-.17.2-.18.38-.06l2.91 1.91.11.06m-.15 1.54-1 1h.18c.2 0 .26.05.26.25v2.43h1.12V8.31c0-.17.06-.23.23-.23h.22l-1-1m-1 1.41H4.2a.18.18 0 0 1-.2-.14.19.19 0 0 1 0-.23l1.55-1.51a.19.19 0 0 1 .3 0l1.49 1.5a.2.2 0 0 1 0 .23.18.18 0 0 1-.2.12h-.49v2.44c0 .19-.06.25-.25.25H5c-.18 0-.24-.06-.24-.24V8.46Zm-3.58 2.27h.76V9.27c0-.17.1-.27.23-.27h.3l-.91-1-.9 1h.3c.16 0 .22.07.22.23v1.49ZM.77 9.42H.22A.29.29 0 0 1 0 9.31c-.06-.07 0-.15 0-.22l1.28-1.5a.22.22 0 0 1 .35 0L3 9.09a.28.28 0 0 1 0 .22c0 .09-.1.12-.19.11h-.53v1.49c0 .18-.06.24-.23.24H1c-.17 0-.23-.06-.23-.23-.01-.49 0-.99 0-1.5ZM10.78 9l-.91-1L9 9h.29c.18 0 .24.06.24.24v1.48h.75V9.26c0-.15.07-.22.22-.22h.31m-.15.38v1.46c0 .22-.05.27-.27.27h-1c-.17 0-.23-.06-.23-.23v-1.5h-.55a.21.21 0 0 1-.24-.11.22.22 0 0 1 .07-.25l1.25-1.45c.13-.15.24-.15.37 0l1.25 1.45a.23.23 0 0 1 .07.25.21.21 0 0 1-.24.11Z"/><path class="cls-1" d="M4.57 2.68h.74V.39h-.74Zm-.39-1.14V.24c0-.18.06-.24.23-.24h1.06c.16 0 .23.06.23.23v2.62c0 .16-.07.23-.22.23H4.4c-.15 0-.22-.07-.22-.23ZM2.67 2.68h.75V1.16h-.75Zm-.39-.76V1c0-.16.07-.23.23-.23h1.07A.19.19 0 0 1 3.8 1v1.85c0 .16-.06.23-.22.23H2.5a.19.19 0 0 1-.22-.22Zm-.76-.37H.77v1.13h.75Zm-1.13.56v-.72c0-.17.06-.24.22-.24h1.07c.16 0 .22.07.22.24v1.45c0 .17-.06.24-.22.24H.61c-.16 0-.22-.08-.22-.24Zm8.92 3.66h-.76v-.38h.75v-.77h.38v.76h.76v.38h-.75v.77h-.38v-.76z"/></g></g></svg>