<svg xmlns="http://www.w3.org/2000/svg" xml:space="preserve" width="200px" height="200px" viewBox="0 0 29.83 29.83">  <style type="text/css">    .fil1 {fill:none}    .fil0 {fill:#C9AE62}  </style> <g id="Layer_x0020_1">  <g id="_5603202912">   <g>    <path class="fil0" d="M3.93 23.26c-0.23,0 -0.41,-0.18 -0.41,-0.41 0,-0.23 0.18,-0.41 0.41,-0.41l21.97 0c0.23,0 0.41,0.18 0.41,0.41 0,0.23 -0.18,0.41 -0.41,0.41l-21.97 0z"></path>    <path class="fil0" d="M23.62 13.27c0,-0.15 0.13,-0.28 0.28,-0.28 0.16,0 0.29,0.13 0.29,0.28l0 8.35c0,0.16 -0.13,0.28 -0.29,0.28 -0.15,0 -0.28,-0.12 -0.28,-0.28l0 -8.35z"></path>    <path class="fil0" d="M24.02 13.01c0.13,0.09 0.16,0.26 0.07,0.39 -0.09,0.12 -0.27,0.15 -0.4,0.06l-8.9 -6.38c-0.13,-0.09 -0.15,-0.27 -0.06,-0.39 0.09,-0.13 0.26,-0.16 0.39,-0.07l8.9 6.39z"></path>    <path class="fil0" d="M5.65 13.27c0,-0.15 0.12,-0.28 0.28,-0.28 0.15,0 0.28,0.13 0.28,0.28l0 8.35c0,0.16 -0.13,0.28 -0.28,0.28 -0.16,0 -0.28,-0.12 -0.28,-0.28l0 -8.35z"></path>    <path class="fil0" d="M6.14 13.46c-0.13,0.09 -0.3,0.06 -0.39,-0.06 -0.09,-0.13 -0.06,-0.3 0.06,-0.39l8.91 -6.39c0.12,-0.09 0.3,-0.06 0.39,0.07 0.09,0.12 0.06,0.3 -0.07,0.39l-8.9 6.38z"></path>    <path class="fil0" d="M13.51 13.02c0,-0.15 0.12,-0.28 0.28,-0.28 0.15,0 0.28,0.13 0.28,0.28l0 9.87c0,0.16 -0.13,0.28 -0.28,0.28 -0.16,0 -0.28,-0.12 -0.28,-0.28l0 -9.87z"></path>    <path class="fil0" d="M9.68 15.84c0,-0.15 0.13,-0.28 0.28,-0.28 0.16,0 0.28,0.13 0.28,0.28l0 7.05c0,0.16 -0.12,0.28 -0.28,0.28 -0.15,0 -0.28,-0.12 -0.28,-0.28l0 -7.05z"></path>    <path class="fil0" d="M9.9 16.1c-0.14,-0.06 -0.21,-0.23 -0.15,-0.37 0.07,-0.14 0.23,-0.2 0.37,-0.14l3.69 1.61c0.14,0.06 0.2,0.23 0.14,0.37 -0.06,0.14 -0.23,0.2 -0.37,0.14l-3.68 -1.61z"></path>    <path class="fil0" d="M10.18 16.03c-0.13,0.09 -0.3,0.07 -0.39,-0.06 -0.1,-0.12 -0.07,-0.29 0.05,-0.39l3.73 -2.76c0.13,-0.1 0.3,-0.07 0.39,0.05 0.1,0.13 0.07,0.3 -0.05,0.4l-3.73 2.76z"></path>    <path class="fil0" d="M15.76 13.02c0,-0.15 0.13,-0.28 0.28,-0.28 0.16,0 0.29,0.13 0.29,0.28l0 9.87c0,0.16 -0.13,0.28 -0.29,0.28 -0.15,0 -0.28,-0.12 -0.28,-0.28l0 -9.87z"></path>    <path class="fil0" d="M19.59 15.84c0,-0.15 0.12,-0.28 0.28,-0.28 0.15,0 0.28,0.13 0.28,0.28l0 7.05c0,0.16 -0.13,0.28 -0.28,0.28 -0.16,0 -0.28,-0.12 -0.28,-0.28l0 -7.05z"></path>    <path class="fil0" d="M19.71 15.59c0.14,-0.06 0.31,0 0.37,0.14 0.06,0.14 0,0.31 -0.15,0.37l-3.68 1.61c-0.14,0.06 -0.3,0 -0.37,-0.14 -0.06,-0.14 0.01,-0.31 0.15,-0.37l3.68 -1.61z"></path>    <path class="fil0" d="M19.99 15.58c0.12,0.1 0.15,0.27 0.06,0.39 -0.09,0.13 -0.27,0.15 -0.39,0.06l-3.73 -2.76c-0.13,-0.1 -0.15,-0.27 -0.06,-0.4 0.09,-0.12 0.27,-0.15 0.39,-0.05l3.73 2.76z"></path>   </g>   <rect class="fil1" width="29.83" height="29.83"></rect>  </g> </g></svg>