<svg xmlns="http://www.w3.org/2000/svg" viewBox="0 0 14.87 12.19"><defs><style>.cls-1{fill:#c7ac61}</style></defs><g id="Layer_2" data-name="Layer 2"><g id="Layer_1-2" data-name="Layer 1"><path class="cls-1" d="M13 8.54h.64V8l-.64.5m.6-2.2-.6.52h.65Zm-.66 1.37h.66v-.52Zm.66 1h-.76v.23h.76Zm-.77-1.07.79-.6h-.7a.09.09 0 0 0-.06.07c-.03.13-.03.32-.03.54Zm0 .18v.7l.73-.58a.48.48 0 0 0 0-.12Zm0-1.94v.91c.21-.18.41-.33.61-.49s.19-.19.12-.42Zm-.4-3.74a.68.68 0 0 0 .57-.75.68.68 0 1 0-1.35.16c0 .31.3.6.56.58a.19.19 0 0 0-.11-.26.43.43 0 0 1-.2-.52.45.45 0 0 1 .43-.31.47.47 0 0 1 .43.32.46.46 0 0 1-.19.52.21.21 0 0 0-.12.27Zm-1.72 3.5h1.09V2.38a.41.41 0 0 0-.31-.4L7.27 1 5 .49c-.2 0-.2 0-.2.16v1.94h-.18v-2a.31.31 0 0 0-.07-.15.26.26 0 0 1 0-.37.25.25 0 0 1 .36 0 .42.42 0 0 0 .19.09l4 .45 2.4.29a.23.23 0 0 0 .15-.07.88.88 0 0 1 1-.24.94.94 0 0 1 .55.89.91.91 0 0 1-.68.85h-.11v3.28h1.39v3.31h1v3.26H9.78V8.92h1ZM.63 8.66c.3.78.59 1.56.89 2.33V8.14l-.9.52m3.26 3.53H1.82s-.1-.07-.12-.12L.62 9.23.4 8.65a.19.19 0 0 1 0-.15l3.42-2ZM6.53 11l.87-2.26a.18.18 0 0 0-.06-.13l-.74-.43h-.07Zm-2.37 1.18V6.42l.44.27 3 1.78c.09.06.12.1.07.22-.43 1.12-.86 2.25-1.28 3.37 0 .07-.05.13-.15.13h-2Z"/><path class="cls-1" d="M6.66 5H1.4a.62.62 0 0 1 0 .13h5.26Zm-5.24.29v2l.17-.1 2.31-1.5a.2.2 0 0 1 .25 0c.77.49 1.54 1 2.32 1.46l.19.11v-2Zm-.15-.43h5.54v2.37a.23.23 0 0 0 .11.21l1.17.72c-.07.12-.14.24-.22.36l-1.27-.8-2.45-1.53a.2.2 0 0 0-.25 0L.35 8.43l-.14.09L0 8.17l.13-.09c.34-.21.68-.44 1-.65a.2.2 0 0 0 .11-.22V4.83Zm2.84-.96h1.24v.81H4.11zM2 3.73v-.81h1.2v.74s-.06.06-.09.06H2m1.34-.8h1.24v.8H3.34zm-.61.98h1.24v.8H2.73zm2.75-.01h1.25v.75a.11.11 0 0 1-.08.07H5.48Zm-.76-.18a.25.25 0 0 1 0-.07v-.72H6v.79Z"/><path class="cls-1" d="M13 8.54h.64V8l-.64.5m.6-2.2-.6.52h.65Zm-.66 1.37h.66v-.52Zm.66 1h-.76v.23h.76Zm-.77-1.07.79-.6h-.7a.09.09 0 0 0-.06.07c-.03.13-.03.32-.03.54Zm0 .18v.7l.73-.58a.48.48 0 0 0 0-.12Zm0-1.94v.91c.21-.18.41-.33.61-.49s.19-.19.12-.42Zm-.4-3.74a.68.68 0 0 0 .57-.75.68.68 0 1 0-1.35.16c0 .31.3.6.56.58a.19.19 0 0 0-.11-.26.43.43 0 0 1-.2-.52.45.45 0 0 1 .43-.31.47.47 0 0 1 .43.32.46.46 0 0 1-.19.52.21.21 0 0 0-.12.27Zm-1.72 3.5h1.09V2.38a.41.41 0 0 0-.31-.4L7.27 1 5 .49c-.2 0-.2 0-.2.16v1.94h-.18v-2a.31.31 0 0 0-.07-.15.26.26 0 0 1 0-.37.25.25 0 0 1 .36 0 .42.42 0 0 0 .19.09l4 .45 2.4.29a.23.23 0 0 0 .15-.07.88.88 0 0 1 1-.24.94.94 0 0 1 .55.89.91.91 0 0 1-.68.85h-.11v3.28h1.39v3.31h1v3.26H9.78V8.92h1ZM.63 8.66c.3.78.59 1.56.89 2.33V8.14l-.9.52m3.26 3.53H1.82s-.1-.07-.12-.12L.62 9.23.4 8.65a.19.19 0 0 1 0-.15l3.42-2ZM6.53 11l.87-2.26a.18.18 0 0 0-.06-.13l-.74-.43h-.07Zm-2.37 1.18V6.42l.44.27 3 1.78c.09.06.12.1.07.22-.43 1.12-.86 2.25-1.28 3.37 0 .07-.05.13-.15.13h-2Z"/><path class="cls-1" d="M6.66 5H1.4a.62.62 0 0 1 0 .13h5.26Zm-5.24.29v2l.17-.1 2.31-1.5a.2.2 0 0 1 .25 0c.77.49 1.54 1 2.32 1.46l.19.11v-2Zm-.15-.43h5.54v2.37a.23.23 0 0 0 .11.21l1.17.72c-.07.12-.14.24-.22.36l-1.27-.8-2.45-1.53a.2.2 0 0 0-.25 0L.35 8.43l-.14.09L0 8.17l.13-.09c.34-.21.68-.44 1-.65a.2.2 0 0 0 .11-.22V4.83Zm2.84-.96h1.24v.81H4.11zM2 3.73v-.81h1.2v.74s-.06.06-.09.06H2m1.34-.8h1.24v.8H3.34zm-.61.98h1.24v.8H2.73zm2.75-.01h1.25v.75a.11.11 0 0 1-.08.07H5.48Zm-.76-.18a.25.25 0 0 1 0-.07v-.72H6v.79Z"/></g></g></svg>