<svg xmlns="http://www.w3.org/2000/svg" xmlns:xlink="http://www.w3.org/1999/xlink" xmlns:xodm="http://www.corel.com/coreldraw/odm/2003" xml:space="preserve" width="205px" height="205px" style="shape-rendering:geometricPrecision; text-rendering:geometricPrecision; image-rendering:optimizeQuality; fill-rule:evenodd; clip-rule:evenodd" viewBox="0 0 78.65 78.65"> <defs>  <style type="text/css">   <![CDATA[    .str0 {stroke:#C3A243;stroke-width:2.94;stroke-miterlimit:22.9256}    .str4 {stroke:#C3A243;stroke-width:2.04;stroke-miterlimit:22.9256}    .str6 {stroke:#C3A243;stroke-width:2.04;stroke-miterlimit:22.9256}    .str2 {stroke:#C3A243;stroke-width:2.04;stroke-linejoin:round;stroke-miterlimit:22.9256}    .str1 {stroke:#C3A243;stroke-width:2.04;stroke-linejoin:round;stroke-miterlimit:22.9256}    .str3 {stroke:#C3A243;stroke-width:2.04;stroke-linecap:round;stroke-linejoin:round;stroke-miterlimit:22.9256}    .str5 {stroke:#C3A243;stroke-width:2.04;stroke-linecap:round;stroke-linejoin:round;stroke-miterlimit:22.9256}    .fil0 {fill:none}    .fil1 {fill:#C3A243;fill-rule:nonzero}   ]]>  </style> </defs> <g id="Layer_x0020_1">  <metadata id="CorelCorpID_0Corel-Layer"></metadata>  <g id="_105553603149280">   <circle class="fil0 str0" cx="39.33" cy="39.33" r="37.86"></circle>   <g>    <path class="fil0 str1" d="M26.33 39.19l0 -7.47 0 -14.34 19.46 0 6.49 6.49 0 15.37m0 12.85l0 1.99 -25.95 0 0 -2.35"></path>    <polyline class="fil0 str2" points="45.79,17.83 45.79,24.32 52.28,24.32 "></polyline>    <g>     <path class="fil1" d="M46.45 44.71l0 -2.05c0.57,0 1.02,0.46 1.02,1.03 0,0.56 -0.45,1.02 -1.02,1.02zm-14.29 0l0 -2.05 14.29 0 0 2.05 -14.29 0zm0 -2.05l0 2.05c-0.56,0 -1.02,-0.46 -1.02,-1.02 0,-0.57 0.46,-1.03 1.02,-1.03z"></path>    </g>    <g>     <path class="fil1" d="M43.5 48.61l0 -2.03c0.56,0 1.01,0.45 1.01,1.01 0,0.56 -0.45,1.02 -1.01,1.02zm-11.34 0l0 -2.03 11.34 0 0 2.03 -11.34 0zm0 -2.03l0 2.03c-0.56,0 -1.01,-0.46 -1.01,-1.02 0,-0.56 0.45,-1.01 1.01,-1.01z"></path>    </g>    <g>     <path class="fil0 str3" d="M25.18 45.38l0 -4.15c0,-1.03 0.84,-1.87 1.86,-1.87 1.03,0 1.87,0.84 1.87,1.87l0 8.42c0,0.76 -0.88,1.71 -1.75,2.15 -1.1,0.56 -0.89,-0.16 -0.89,1.49l0 0.72 0 3.45m-8.68 -0.47l0 -15.87 8.68 -9.78"></path>     <path class="fil0 str4" d="M17.41 57.43l8.52 0c0.49,0 0.89,0.41 0.89,0.9l0 2.05c0,0.49 -0.4,0.89 -0.89,0.89l-8.52 0c-0.5,0 -0.9,-0.4 -0.9,-0.89l0 -2.05c0,-0.49 0.4,-0.9 0.9,-0.9z"></path>    </g>    <g>     <path class="fil0 str5" d="M53.48 45.38l0 -4.15c0,-1.03 -0.84,-1.87 -1.87,-1.87 -1.03,0 -1.87,0.84 -1.87,1.87l0 8.42c0,0.76 0.88,1.71 1.75,2.15 1.1,0.56 0.89,-0.16 0.89,1.49l0 0.72 0 3.45m8.69 -0.47l0 -15.87 -8.69 -9.78"></path>     <path class="fil0 str6" d="M61.25 57.43l-8.53 0c-0.49,0 -0.89,0.41 -0.89,0.9l0 2.05c0,0.49 0.4,0.89 0.89,0.89l8.53 0c0.49,0 0.89,-0.4 0.89,-0.89l0 -2.05c0,-0.49 -0.4,-0.9 -0.89,-0.9z"></path>    </g>    <g>     <path class="fil1" d="M46.45 41.43l0 -2.04c0.57,0 1.02,0.46 1.02,1.02 0,0.57 -0.45,1.02 -1.02,1.02zm-14.29 0l0 -2.04 14.29 0 0 2.04 -14.29 0zm0 -2.04l0 2.04c-0.56,0 -1.02,-0.45 -1.02,-1.02 0,-0.56 0.46,-1.02 1.02,-1.02z"></path>    </g>    <g>     <path class="fil1" d="M46.45 38.16l0 -2.05c0.57,0 1.02,0.46 1.02,1.03 0,0.56 -0.45,1.02 -1.02,1.02zm-14.29 0l0 -2.05 14.29 0 0 2.05 -14.29 0zm0 -2.05l0 2.05c-0.56,0 -1.02,-0.46 -1.02,-1.02 0,-0.57 0.46,-1.03 1.02,-1.03z"></path>    </g>    <g>     <path class="fil1" d="M46.45 34.89l0 -2.05c0.57,0 1.02,0.46 1.02,1.02 0,0.57 -0.45,1.03 -1.02,1.03zm-14.29 0l0 -2.05 14.29 0 0 2.05 -14.29 0zm0 -2.05l0 2.05c-0.56,0 -1.02,-0.46 -1.02,-1.03 0,-0.56 0.46,-1.02 1.02,-1.02z"></path>    </g>    <g>     <path class="fil1" d="M46.45 31.61l0 -2.04c0.57,0 1.02,0.46 1.02,1.02 0,0.56 -0.45,1.02 -1.02,1.02zm-14.29 0l0 -2.04 14.29 0 0 2.04 -14.29 0zm0 -2.04l0 2.04c-0.56,0 -1.02,-0.46 -1.02,-1.02 0,-0.56 0.46,-1.02 1.02,-1.02z"></path>    </g>    <g>     <path class="fil1" d="M46.45 28.34l0 -2.05c0.57,0 1.02,0.46 1.02,1.03 0,0.56 -0.45,1.02 -1.02,1.02zm-14.29 0l0 -2.05 14.29 0 0 2.05 -14.29 0zm0 -2.05l0 2.05c-0.56,0 -1.02,-0.46 -1.02,-1.02 0,-0.57 0.46,-1.03 1.02,-1.03z"></path>    </g>   </g>  </g> </g></svg>