<svg xmlns="http://www.w3.org/2000/svg" viewBox="0 0 8.65 10.17"><defs><style>.cls-1{fill:#c7ac61}</style></defs><g id="Layer_2" data-name="Layer 2"><g id="Layer_1-2" data-name="Layer 1"><path class="cls-1" d="M.61 3.46c0 .46 0 .92.07 1.38a7 7 0 0 0 .21 1.37 4.56 4.56 0 0 0 1.68 2.47 5.89 5.89 0 0 0 1.69.87.18.18 0 0 0 .16 0 10.87 10.87 0 0 0 1-.47 4.5 4.5 0 0 0 1.9-1.89A6.22 6.22 0 0 0 8 4.69c.06-.74 0-1.47 0-2.21A.48.48 0 0 0 7.69 2a1.66 1.66 0 0 0-.22 0c-.35-.06-.71-.09-1-.18a4.25 4.25 0 0 1-2-1.1c-.12-.11-.12-.1-.25 0a7.69 7.69 0 0 1-.8.61A4.72 4.72 0 0 1 1.18 2a.52.52 0 0 0-.57.59v.9m3.58 6.71c-.35-.14-.71-.27-1.05-.44A5.25 5.25 0 0 1 .2 5.9 9.09 9.09 0 0 1 0 4V2.44a1.07 1.07 0 0 1 .9-1 7.71 7.71 0 0 0 1.17-.19A3.89 3.89 0 0 0 3.72.32 1.93 1.93 0 0 1 4 .1a.64.64 0 0 1 .77.07c.15.13.3.27.46.39A3.91 3.91 0 0 0 7 1.31c.22 0 .45.05.67.08a1.08 1.08 0 0 1 .93 1v1.66a8.89 8.89 0 0 1-.3 2.45 5.12 5.12 0 0 1-2.18 2.88 7.05 7.05 0 0 1-1.64.78h-.29Z"/><path class="cls-1" d="M4.33 7A1.93 1.93 0 1 0 2.4 5.08 1.93 1.93 0 0 0 4.33 7M1.79 5.1a2.54 2.54 0 1 1 2.55 2.52A2.54 2.54 0 0 1 1.79 5.1Z"/><path class="cls-1" d="m3.87 5.48.42-.42.71-.73a.29.29 0 0 1 .35-.09.3.3 0 0 1 .12.46.46.46 0 0 1-.07.07l-1.3 1.3a.31.31 0 0 1-.51 0l-.48-.49a.3.3 0 0 1 .13-.5.3.3 0 0 1 .3.09l.3.31"/></g></g></svg>