<svg xmlns="http://www.w3.org/2000/svg" id="f75b7138-9ce9-4613-839b-8ff6890fff96" data-name="Layer 1" viewBox="0 0 361.08 56.24"><defs><style>      .b1fa6255-c792-4ccd-aa90-9292ae3ad28f {        fill: #6d6e70;        opacity: 0.49;      }      .af8d5952-38be-439e-b09c-5578e147739f {        fill: #fff;      }      .a1d71e09-ffc2-4595-89f3-5d1258c76717, .e99ae80f-b830-4f6e-a631-27e0dfe27f18 {        fill: none;        stroke-miterlimit: 10;      }      .a1d71e09-ffc2-4595-89f3-5d1258c76717 {        stroke: #8dd7f7;        stroke-width: 1.27px;        stroke-dasharray: 2.55 1.27;      }      .e99ae80f-b830-4f6e-a631-27e0dfe27f18 {        stroke: #d2d81d;        stroke-width: 0.75px;      }    </style></defs><title>ship-Distance</title><rect class="b1fa6255-c792-4ccd-aa90-9292ae3ad28f" width="361.08" height="56.24"></rect><path class="af8d5952-38be-439e-b09c-5578e147739f" d="M-430.93,381.92v-.83h-.81v-.5h.34l-.34-.38h-.45v-.5h.36l-.34-.38h-.32v-.5h.3l-.28-.38h-.65l-.6-.64h-.37l-.43-.52h-1.57l-1,.51h-3.18l-.88.65h-1.34v-.54h-.07v-.34h.07v-.33h.08v-.1h-3.11v.1h.09v.33h.06v.34h-.06v.54h-.28v.38h.12v.5h-3.21v.38h.33v.5H-449v.38h.42v.5h-1v.83h-1.55l.4,4.55h20.31l3.34-4.55Zm-5-4.45h1.44l.2.24h-1.82Zm-1.49.56h3.72l.33.35h-4.4Zm-.54,0a.13.13,0,0,1,.13.13.13.13,0,0,1-.13.13.12.12,0,0,1-.12-.13A.12.12,0,0,1-437.92,378Zm-.43,0a.13.13,0,0,1,.13.13.13.13,0,0,1-.13.13.13.13,0,0,1-.13-.13A.13.13,0,0,1-438.35,378Zm-.44,0a.13.13,0,0,1,.13.13.13.13,0,0,1-.13.13.13.13,0,0,1-.13-.13A.13.13,0,0,1-438.79,378Zm-.43,0a.13.13,0,0,1,.13.13.13.13,0,0,1-.13.13.13.13,0,0,1-.13-.13A.13.13,0,0,1-439.22,378Zm-.44,0a.13.13,0,0,1,.13.13.13.13,0,0,1-.13.13.13.13,0,0,1-.13-.13A.13.13,0,0,1-439.66,378Zm-3.32-.46h.28v.34H-443Zm-.32,0h.28v.34h-.28Zm-.32,0h.27v.34h-.27Zm-.33,0h.28v.34h-.28Zm-.32,0h.27v.34h-.27Zm-.32,0h.27v.34h-.27Zm-.32,0h.27v.34h-.27Zm-.33,0h.27v.34h-.27Zm-.14,1.39h12.81v.24h-12.81Zm-2.77.88h15.85v.24h-15.85Zm0,.88h16.32V381h-16.32Zm.43.75h15v.18h-15Zm11.74.9h-.31v-.44h.31Zm-1.08,0h-.32v-.44h.32Zm-1.09,0h-.31v-.44h.31Zm-1.09,0h-.31v-.44h.31Zm-1.09,0h-.31v-.44h.31Zm-1.09,0h-.31v-.44h.31Zm-1.09,0h-.31v-.44h.31Zm-1.08,0h-.32v-.44h.32ZM-447,384a.22.22,0,0,1-.22-.22.22.22,0,0,1,.22-.23.23.23,0,0,1,.23.23A.22.22,0,0,1-447,384Zm1.09,0a.22.22,0,0,1-.22-.22.22.22,0,0,1,.22-.23.22.22,0,0,1,.22.23A.22.22,0,0,1-445.93,384Zm1.09,0a.22.22,0,0,1-.23-.22.23.23,0,0,1,.23-.23.22.22,0,0,1,.22.23A.22.22,0,0,1-444.84,384Zm1.09,0a.22.22,0,0,1-.23-.22.23.23,0,0,1,.23-.23.22.22,0,0,1,.22.23A.22.22,0,0,1-443.75,384Zm1.09,0a.22.22,0,0,1-.23-.22.23.23,0,0,1,.23-.23.22.22,0,0,1,.22.23A.22.22,0,0,1-442.66,384Zm1.08,0a.22.22,0,0,1-.22-.22.22.22,0,0,1,.22-.23.23.23,0,0,1,.23.23A.22.22,0,0,1-441.58,384Zm1.09,0a.22.22,0,0,1-.22-.22.22.22,0,0,1,.22-.23.23.23,0,0,1,.23.23A.22.22,0,0,1-440.49,384Zm1.09,0a.22.22,0,0,1-.22-.22.22.22,0,0,1,.22-.23.23.23,0,0,1,.23.23A.22.22,0,0,1-439.4,384Zm1.09,0a.23.23,0,0,1-.23-.22.23.23,0,0,1,.23-.23.22.22,0,0,1,.22.23A.22.22,0,0,1-438.31,384Zm1.09,0a.22.22,0,0,1-.23-.22.23.23,0,0,1,.23-.23.22.22,0,0,1,.22.23A.22.22,0,0,1-437.22,384Zm1.09,0a.22.22,0,0,1-.23-.22.23.23,0,0,1,.23-.23.22.22,0,0,1,.22.23A.22.22,0,0,1-436.13,384Zm1.09,0a.22.22,0,0,1-.23-.22.23.23,0,0,1,.23-.23.22.22,0,0,1,.22.23A.22.22,0,0,1-435,384Zm1.08,0a.22.22,0,0,1-.22-.22.22.22,0,0,1,.22-.23.23.23,0,0,1,.23.23A.22.22,0,0,1-434,384Zm1.09,0a.22.22,0,0,1-.22-.22.22.22,0,0,1,.22-.23.23.23,0,0,1,.23.23A.23.23,0,0,1-432.87,384Zm1.09,0a.22.22,0,0,1-.22-.22.22.22,0,0,1,.22-.23.22.22,0,0,1,.22.23A.22.22,0,0,1-431.78,384Z" transform="translate(643.43 -366.9)"></path><path class="af8d5952-38be-439e-b09c-5578e147739f" d="M-593.23,391.2h.84v.6h-.84v2.33H-594V391.8h-.46v-.6h.46V390a1.62,1.62,0,0,1,.08-.54.91.91,0,0,1,.24-.35.92.92,0,0,1,.34-.18,1.86,1.86,0,0,1,.42-.05,1.73,1.73,0,0,1,.42.05,1.33,1.33,0,0,1,.32.12l-.17.59a.8.8,0,0,0-.4-.11.45.45,0,0,0-.34.12.59.59,0,0,0-.12.42Zm-2-2.26v5.19H-596v-5.19Zm-4,2.26v1.71a.67.67,0,0,0,.14.5.53.53,0,0,0,.39.14,1.24,1.24,0,0,0,.27,0,1.1,1.1,0,0,0,.26-.06l.23-.1a.85.85,0,0,0,.17-.1V391.2h.78v2.93h-.76v-.27a2,2,0,0,1-.54.24,2.75,2.75,0,0,1-.7.1,1.05,1.05,0,0,1-.77-.26A1.3,1.3,0,0,1-600,393V391.2Zm-1.68,0a1.37,1.37,0,0,1,0,.23,2.69,2.69,0,0,1,0,.31,3.12,3.12,0,0,1-.17,1.05,2.33,2.33,0,0,1-.48.79,2,2,0,0,1-.72.49,2.46,2.46,0,0,1-.91.17,2.4,2.4,0,0,1-1-.2,2.23,2.23,0,0,1-.78-.54,2.55,2.55,0,0,1-.51-.86,3,3,0,0,1-.19-1.11,2.93,2.93,0,0,1,.21-1.16,2.43,2.43,0,0,1,.56-.82A2.56,2.56,0,0,1-604,389a3.12,3.12,0,0,1,1-.16,3.1,3.1,0,0,1,1,.17,3,3,0,0,1,.82.46l-.46.76a2.22,2.22,0,0,0-.63-.37,2.18,2.18,0,0,0-.72-.13,1.81,1.81,0,0,0-.67.12,1.45,1.45,0,0,0-.52.35,1.52,1.52,0,0,0-.35.56,2.17,2.17,0,0,0-.13.74,2.09,2.09,0,0,0,.12.72,1.59,1.59,0,0,0,.31.56,1.42,1.42,0,0,0,.5.37,1.51,1.51,0,0,0,.65.13,1.55,1.55,0,0,0,.59-.11,1.21,1.21,0,0,0,.44-.29,1.23,1.23,0,0,0,.3-.44,1.81,1.81,0,0,0,.12-.58h-1.3v-.73Zm-9.64,0v.27a2.29,2.29,0,0,1,.54-.24,2.65,2.65,0,0,1,.71-.1,1.51,1.51,0,0,1,.44.06.69.69,0,0,1,.32.19.78.78,0,0,1,.19.36,1.82,1.82,0,0,1,.07.56v1.83H-609v-1.72a.67.67,0,0,0-.14-.49.53.53,0,0,0-.39-.14l-.27,0-.26.07-.23.09a.71.71,0,0,0-.17.11v2.05h-.78V391.2Zm-3.25,2.47a1.23,1.23,0,0,0,.42-.07,2.31,2.31,0,0,0,.41-.16v-.77l-.93.18a.49.49,0,0,0-.33.16.46.46,0,0,0-.08.25.36.36,0,0,0,.13.31A.61.61,0,0,0-613.77,393.67Zm.83-1.4a.51.51,0,0,0-.16-.39.94.94,0,0,0-.58-.13,2.91,2.91,0,0,0-.49.05,2.31,2.31,0,0,0-.56.19l-.11-.58a2.73,2.73,0,0,1,.68-.23,4.13,4.13,0,0,1,.57-.05,1.76,1.76,0,0,1,1.09.27.93.93,0,0,1,.34.8v1.93h-.76v-.28a2.2,2.2,0,0,1-.54.25,1.57,1.57,0,0,1-.58.1,1,1,0,0,1-.72-.23.82.82,0,0,1-.25-.65.83.83,0,0,1,.19-.56,1,1,0,0,1,.68-.3Zm-2.81-2.87v1h-.82v-1Zm0,1.8v2.93h-.78V391.2Zm-4.05,2.07.18.09.22.09.25.07a1,1,0,0,0,.24,0,.63.63,0,0,0,.53-.24,1,1,0,0,0,.19-.64,1.07,1.07,0,0,0-.19-.65.63.63,0,0,0-.54-.24l-.24,0-.25.07a2,2,0,0,0-.22.09l-.17.08Zm0-4.33v2.52l.22-.11.28-.11.31-.08a1.63,1.63,0,0,1,.31,0,1.13,1.13,0,0,1,.56.13,1,1,0,0,1,.39.33,1.4,1.4,0,0,1,.24.49,1.91,1.91,0,0,1,.08.59,2.25,2.25,0,0,1-.07.58,1.53,1.53,0,0,1-.23.48,1,1,0,0,1-.38.34,1.09,1.09,0,0,1-.55.13,1.63,1.63,0,0,1-.31,0l-.32-.08a2.09,2.09,0,0,1-.3-.11l-.25-.13v.28h-.76v-5.19Zm-3.31,4.73a1.25,1.25,0,0,0,.43-.07,2,2,0,0,0,.4-.16v-.77l-.93.18a.46.46,0,0,0-.32.16.39.39,0,0,0-.08.25.36.36,0,0,0,.13.31A.58.58,0,0,0-623.13,393.67Zm.83-1.4a.47.47,0,0,0-.16-.39.88.88,0,0,0-.57-.13,2.81,2.81,0,0,0-.49.05,2.24,2.24,0,0,0-.57.19l-.11-.58a2.79,2.79,0,0,1,.69-.23,4.13,4.13,0,0,1,.57-.05,1.76,1.76,0,0,1,1.09.27,1,1,0,0,1,.34.8v1.93h-.76v-.28a2.61,2.61,0,0,1-.54.25,1.63,1.63,0,0,1-.59.1,1.05,1.05,0,0,1-.72-.23.86.86,0,0,1-.25-.65.83.83,0,0,1,.2-.56,1,1,0,0,1,.67-.3Zm-4.28-1.07v.45a1.77,1.77,0,0,1,.44-.38,1,1,0,0,1,.57-.14,1.25,1.25,0,0,1,.46.09.85.85,0,0,1,.37.27l-.18.56a.89.89,0,0,0-.67-.27.93.93,0,0,0-.53.14,1.54,1.54,0,0,0-.43.42v1.79h-.79V391.2Zm-4.39,1.18h1.39l-.69-1.66Zm.76-3.51,2.32,5.26h-1l-.46-1.12h-1.92l-.47,1.12h-.92l2.32-5.26Zm64.8-5.81v.27a2.49,2.49,0,0,1,.49-.24,2.15,2.15,0,0,1,.64-.1,1.27,1.27,0,0,1,.52.1.72.72,0,0,1,.3.34,2,2,0,0,1,.6-.34,2.09,2.09,0,0,1,.6-.1.92.92,0,0,1,.69.23,1.2,1.2,0,0,1,.22.8v2h-.79v-1.84a.56.56,0,0,0-.11-.4.49.49,0,0,0-.33-.11,1,1,0,0,0-.4.09,1.85,1.85,0,0,0-.4.23v2h-.79v-1.84a.58.58,0,0,0-.1-.4.44.44,0,0,0-.32-.11,1.2,1.2,0,0,0-.45.09.9.9,0,0,0-.34.21V386h-.79v-2.93Zm-3.09.56a.64.64,0,0,0-.54.25,1,1,0,0,0-.2.66,1.07,1.07,0,0,0,.19.65.64.64,0,0,0,.55.25.64.64,0,0,0,.54-.25,1,1,0,0,0,.19-.65,1,1,0,0,0-.19-.66A.64.64,0,0,0-568.5,383.62Zm-1.52.91a1.8,1.8,0,0,1,.1-.57,1.77,1.77,0,0,1,.29-.5,1.54,1.54,0,0,1,.48-.34,1.64,1.64,0,0,1,.65-.13,1.59,1.59,0,0,1,.64.13,1.54,1.54,0,0,1,.48.34,1.4,1.4,0,0,1,.29.5,1.56,1.56,0,0,1,.1.57,1.59,1.59,0,0,1-.1.57,1.44,1.44,0,0,1-.29.49,1.54,1.54,0,0,1-.48.34,1.44,1.44,0,0,1-.64.13,1.48,1.48,0,0,1-.65-.13,1.54,1.54,0,0,1-.48-.34,1.86,1.86,0,0,1-.29-.49A1.9,1.9,0,0,1-570,384.53Zm-2.2-1.47v.46a1.63,1.63,0,0,1,.44-.39,1,1,0,0,1,.56-.14,1.27,1.27,0,0,1,.47.09.91.91,0,0,1,.37.27l-.18.56a.91.91,0,0,0-.68-.27.9.9,0,0,0-.52.14,1.42,1.42,0,0,0-.43.42V386H-573v-2.93Zm-2.33,0h.84v.6h-.84V386h-.78v-2.33h-.46v-.6h.46v-1.21a1.4,1.4,0,0,1,.08-.54A.89.89,0,0,1-575,381a.84.84,0,0,1,.34-.17,1.52,1.52,0,0,1,.42-.06,1.88,1.88,0,0,1,.43,0,1.33,1.33,0,0,1,.32.12l-.18.59a.77.77,0,0,0-.4-.1.44.44,0,0,0-.33.11.54.54,0,0,0-.13.42Zm-6.34,2.18a2.39,2.39,0,0,0,.32.11l.37.08.35.05.31,0a1.19,1.19,0,0,0,.46-.08.29.29,0,0,0,.17-.28.24.24,0,0,0-.09-.2,1.18,1.18,0,0,0-.27-.1l-.46-.08a3.76,3.76,0,0,1-.6-.15l-.22-.08a.6.6,0,0,1-.21-.14.64.64,0,0,1-.16-.2.71.71,0,0,1-.06-.31.73.73,0,0,1,.38-.67,2,2,0,0,1,1-.22,3,3,0,0,1,.67.07,2.41,2.41,0,0,1,.59.18l-.15.56a3,3,0,0,0-.56-.17,2.72,2.72,0,0,0-.55-.06,1.26,1.26,0,0,0-.48.08.25.25,0,0,0-.17.25.21.21,0,0,0,.11.21.86.86,0,0,0,.32.1l.31.06.24.06.22.05.22.06a1.42,1.42,0,0,1,.46.25.54.54,0,0,1,.17.43.7.7,0,0,1-.12.42.86.86,0,0,1-.3.3,1.5,1.5,0,0,1-.45.17,2.51,2.51,0,0,1-.55.06l-.39,0a2.32,2.32,0,0,1-.38-.06l-.34-.08-.26-.09Zm-2.22-1.66a.73.73,0,0,0-.54.2.93.93,0,0,0-.24.56h1.5a.82.82,0,0,0-.18-.54A.65.65,0,0,0-583.11,383.58Zm-.77,1.16a.83.83,0,0,0,.28.53,1.07,1.07,0,0,0,.69.19,1.73,1.73,0,0,0,.45,0,1.87,1.87,0,0,0,.42-.13l.13.53a1.61,1.61,0,0,1-.45.18,2.64,2.64,0,0,1-.65.07,2,2,0,0,1-.76-.13,1.47,1.47,0,0,1-.51-.34,1.44,1.44,0,0,1-.29-.49,1.71,1.71,0,0,1-.09-.55,1.85,1.85,0,0,1,.09-.58,1.56,1.56,0,0,1,.29-.5,1.34,1.34,0,0,1,.49-.34,1.59,1.59,0,0,1,.68-.14,1.54,1.54,0,0,1,.67.14,1.35,1.35,0,0,1,.47.34,1.37,1.37,0,0,1,.26.49,1.76,1.76,0,0,1,.09.55v.12s0,.07,0,.11Zm-2.14-3v1.34h.84v.6H-586v1.19a.54.54,0,0,0,.14.44.49.49,0,0,0,.34.12l.19,0a.64.64,0,0,0,.19-.08l.17.57a1,1,0,0,1-.32.13,1.77,1.77,0,0,1-.41.05,1.49,1.49,0,0,1-.43-.06.81.81,0,0,1-.34-.19,1,1,0,0,1-.24-.34,1.52,1.52,0,0,1-.08-.51v-1.3h-.46v-.6h.46v-1.34Zm-4.15,1.34v1.71a.71.71,0,0,0,.13.5.57.57,0,0,0,.4.14l.27,0a1.22,1.22,0,0,0,.26-.06l.23-.1a.74.74,0,0,0,.16-.1v-2.06h.79V386h-.77v-.27a2,2,0,0,1-.53.24,2.77,2.77,0,0,1-.71.1,1,1,0,0,1-.76-.26,1.25,1.25,0,0,1-.26-.91v-1.83Zm-3.16.56a.64.64,0,0,0-.54.25,1,1,0,0,0-.19.66,1,1,0,0,0,.19.65.64.64,0,0,0,.54.25.61.61,0,0,0,.54-.25,1,1,0,0,0,.19-.65,1,1,0,0,0-.19-.66A.61.61,0,0,0-593.33,383.62Zm-1.51.91a1.56,1.56,0,0,1,.1-.57,1.4,1.4,0,0,1,.29-.5,1.62,1.62,0,0,1,.47-.34,1.67,1.67,0,0,1,.65-.13,1.64,1.64,0,0,1,.65.13,1.39,1.39,0,0,1,.47.34,1.59,1.59,0,0,1,.3.5,1.79,1.79,0,0,1,.09.57,1.84,1.84,0,0,1-.09.57,1.66,1.66,0,0,1-.3.49,1.39,1.39,0,0,1-.47.34,1.48,1.48,0,0,1-.65.13,1.51,1.51,0,0,1-.65-.13,1.62,1.62,0,0,1-.47-.34,1.44,1.44,0,0,1-.29-.49A1.63,1.63,0,0,1-594.84,384.53Zm-2.21-1.47v.46a1.79,1.79,0,0,1,.44-.39A1.1,1.1,0,0,1-596,383a1.22,1.22,0,0,1,.46.09.85.85,0,0,1,.37.27l-.17.56a.93.93,0,0,0-.68-.27.93.93,0,0,0-.53.14,1.54,1.54,0,0,0-.43.42V386h-.79v-2.93Zm-5.21,2.47a1.52,1.52,0,0,0,.42-.06,3,3,0,0,0,.41-.17v-.77l-.93.18a.49.49,0,0,0-.33.16.46.46,0,0,0-.08.25.36.36,0,0,0,.13.31A.61.61,0,0,0-602.26,385.53Zm.83-1.4a.51.51,0,0,0-.16-.39.94.94,0,0,0-.58-.13,2.7,2.7,0,0,0-.48.05,2.24,2.24,0,0,0-.57.19l-.11-.58a2.73,2.73,0,0,1,.68-.23,4.13,4.13,0,0,1,.57-.05,1.76,1.76,0,0,1,1.09.27.93.93,0,0,1,.34.8V386h-.76v-.28a2.2,2.2,0,0,1-.54.25,1.57,1.57,0,0,1-.58.1,1.05,1.05,0,0,1-.72-.23.82.82,0,0,1-.25-.65.83.83,0,0,1,.19-.56,1.08,1.08,0,0,1,.68-.3Zm-4.12-.55a.73.73,0,0,0-.54.2.92.92,0,0,0-.23.56h1.49a.82.82,0,0,0-.18-.54A.65.65,0,0,0-605.55,383.58Zm-.77,1.16a.8.8,0,0,0,.29.53,1,1,0,0,0,.68.19,1.64,1.64,0,0,0,.45,0,1.87,1.87,0,0,0,.42-.13l.13.53a1.39,1.39,0,0,1-.45.18,2.62,2.62,0,0,1-.64.07,2,2,0,0,1-.77-.13,1.47,1.47,0,0,1-.51-.34,1.63,1.63,0,0,1-.29-.49,1.71,1.71,0,0,1-.09-.55,1.61,1.61,0,0,1,.1-.58,1.4,1.4,0,0,1,.29-.5,1.31,1.31,0,0,1,.48-.34,1.62,1.62,0,0,1,.68-.14,1.51,1.51,0,0,1,.67.14,1.27,1.27,0,0,1,.47.34,1.57,1.57,0,0,1,.27.49,2.09,2.09,0,0,1,.08.55v.12s0,.07,0,.11Zm-4,.5.33.11.36.08.35.05.31,0a1.19,1.19,0,0,0,.46-.08.29.29,0,0,0,.17-.28.24.24,0,0,0-.09-.2,1,1,0,0,0-.27-.1l-.46-.08a3.41,3.41,0,0,1-.59-.15l-.23-.08a.85.85,0,0,1-.21-.14.62.62,0,0,1-.15-.2.71.71,0,0,1-.06-.31.72.72,0,0,1,.37-.67,2,2,0,0,1,1-.22,3,3,0,0,1,.67.07,2.41,2.41,0,0,1,.59.18l-.15.56a2.78,2.78,0,0,0-.56-.17,2.62,2.62,0,0,0-.54-.06,1.28,1.28,0,0,0-.49.08.26.26,0,0,0-.17.25.21.21,0,0,0,.12.21.75.75,0,0,0,.31.1l.31.06.24.06.22.05.22.06a1.32,1.32,0,0,1,.46.25.51.51,0,0,1,.17.43.77.77,0,0,1-.11.42,1,1,0,0,1-.31.3,1.5,1.5,0,0,1-.45.17,2.44,2.44,0,0,1-.55.06l-.39,0a2.32,2.32,0,0,1-.38-.06l-.34-.08-.26-.09Zm-2.9-4.44V386h-.79V380.8Zm-3.31,4.73a1.52,1.52,0,0,0,.42-.06,3,3,0,0,0,.41-.17v-.77l-.93.18a.51.51,0,0,0-.33.16.46.46,0,0,0-.08.25.39.39,0,0,0,.13.31A.61.61,0,0,0-616.58,385.53Zm.83-1.4a.51.51,0,0,0-.16-.39.9.9,0,0,0-.58-.13,2.7,2.7,0,0,0-.48.05,2.24,2.24,0,0,0-.57.19l-.11-.58A2.87,2.87,0,0,1-617,383a4.13,4.13,0,0,1,.57-.05,1.76,1.76,0,0,1,1.09.27.93.93,0,0,1,.34.8V386h-.76v-.28a2.32,2.32,0,0,1-.53.25,1.66,1.66,0,0,1-.59.1,1.05,1.05,0,0,1-.72-.23.82.82,0,0,1-.25-.65.83.83,0,0,1,.19-.56,1.11,1.11,0,0,1,.68-.3Zm-5-1.07v1.71a.67.67,0,0,0,.14.5.53.53,0,0,0,.39.14l.27,0a1.1,1.1,0,0,0,.26-.06l.23-.1a.85.85,0,0,0,.17-.1v-2.06h.78V386h-.76v-.27a2,2,0,0,1-.54.24,2.69,2.69,0,0,1-.7.1,1.05,1.05,0,0,1-.77-.26,1.3,1.3,0,0,1-.26-.91v-1.83Zm-2.39-1.34v1.34h.84v.6h-.84v1.19a.58.58,0,0,0,.14.44.5.5,0,0,0,.34.12l.2,0a.49.49,0,0,0,.18-.08l.17.57a1,1,0,0,1-.32.13,1.68,1.68,0,0,1-.4.05,1.44,1.44,0,0,1-.43-.06.85.85,0,0,1-.35-.19.93.93,0,0,1-.23-.34,1.29,1.29,0,0,1-.09-.51v-1.3h-.46v-.6h.46v-1.34Zm-2.09,2.13a.86.86,0,0,0-.34-.18,1,1,0,0,0-.34-.05.85.85,0,0,0-.63.24.9.9,0,0,0-.24.67,1.27,1.27,0,0,0,0,.34.75.75,0,0,0,.16.29.75.75,0,0,0,.26.2,1,1,0,0,0,.36.07.82.82,0,0,0,.44-.11,1,1,0,0,0,.3-.27l.4.33a1.54,1.54,0,0,1-.47.48,1.36,1.36,0,0,1-.76.2,1.45,1.45,0,0,1-.65-.13,1.38,1.38,0,0,1-.47-.35,1.49,1.49,0,0,1-.28-.49,1.9,1.9,0,0,1-.09-.58,1.61,1.61,0,0,1,.12-.63,1.58,1.58,0,0,1,.33-.48,1.44,1.44,0,0,1,.49-.3,1.64,1.64,0,0,1,.6-.11,1.78,1.78,0,0,1,.59.1,1.52,1.52,0,0,1,.53.29Zm-5.72.39h1.39l-.69-1.66Zm.76-3.51,2.32,5.26h-1l-.46-1.12h-1.92l-.47,1.12h-.92l2.32-5.26Z" transform="translate(643.43 -366.9)"></path><polyline class="a1d71e09-ffc2-4595-89f3-5d1258c76717" points="93.19 16.58 93.19 20.57 315.45 20.57 315.45 16.7"></polyline><path class="af8d5952-38be-439e-b09c-5578e147739f" d="M-304.1,392.05l-.17-.09-.22-.08-.24-.07-.24,0a.63.63,0,0,0-.52.23,1,1,0,0,0-.18.61,1,1,0,0,0,.18.62.62.62,0,0,0,.53.23l.24,0,.24-.07.21-.08.17-.09Zm.79-.85v3a1.43,1.43,0,0,1-.09.5,1.23,1.23,0,0,1-.28.43,1.45,1.45,0,0,1-.5.3,2.31,2.31,0,0,1-.74.11,3.23,3.23,0,0,1-.69-.07,2.12,2.12,0,0,1-.57-.2l.12-.6a1.78,1.78,0,0,0,.49.17,2.22,2.22,0,0,0,.51.06,1.47,1.47,0,0,0,.46-.06,1,1,0,0,0,.3-.17.51.51,0,0,0,.15-.24,1,1,0,0,0,0-.29v-.4a2.57,2.57,0,0,1-.49.21,1.86,1.86,0,0,1-.61.1,1.2,1.2,0,0,1-.55-.12,1.34,1.34,0,0,1-.39-.32,1.44,1.44,0,0,1-.24-.46,2,2,0,0,1-.07-.56,2,2,0,0,1,.07-.55,1.53,1.53,0,0,1,.23-.46,1.21,1.21,0,0,1,.38-.33,1.18,1.18,0,0,1,.55-.12,1.88,1.88,0,0,1,.62.11,2.9,2.9,0,0,1,.52.22v-.26Zm-6.1,0v.27a2.29,2.29,0,0,1,.54-.24,2.65,2.65,0,0,1,.71-.1,1.51,1.51,0,0,1,.44.06.69.69,0,0,1,.32.19.89.89,0,0,1,.2.36,2.23,2.23,0,0,1,.06.56v1.83h-.79v-1.72a.67.67,0,0,0-.14-.49.53.53,0,0,0-.39-.14l-.27,0-.26.07-.23.09a.5.5,0,0,0-.16.11v2.05h-.79V391.2Zm-1.74-1.8v1H-312v-1Zm0,1.8v2.93H-312V391.2Zm-1.8-1.8v1h-.82v-1Zm0,1.8v3.23a1.38,1.38,0,0,1-.09.54.82.82,0,0,1-.23.34.78.78,0,0,1-.35.18,2,2,0,0,1-.43.05,1.51,1.51,0,0,1-.39,0,.91.91,0,0,1-.28-.1l.12-.61a.37.37,0,0,0,.18.08l.2,0a.48.48,0,0,0,.35-.12.59.59,0,0,0,.14-.45V391.2Zm-2.07-1.8v1h-.83v-1Zm0,1.8v2.93h-.79V391.2Zm-3.12.52a.72.72,0,0,0-.54.2.92.92,0,0,0-.23.56h1.5a.94.94,0,0,0-.18-.54A.66.66,0,0,0-318.2,391.72Zm-.76,1.16a.81.81,0,0,0,.28.53,1.05,1.05,0,0,0,.69.19,1.73,1.73,0,0,0,.45-.05,2,2,0,0,0,.42-.13l.12.53a1.39,1.39,0,0,1-.45.18,3.14,3.14,0,0,1-.64.07,1.92,1.92,0,0,1-.76-.13,1.47,1.47,0,0,1-.51-.34,1.44,1.44,0,0,1-.29-.49,1.71,1.71,0,0,1-.09-.55,1.85,1.85,0,0,1,.09-.58,1.56,1.56,0,0,1,.29-.5,1.5,1.5,0,0,1,.49-.35,1.74,1.74,0,0,1,.67-.13,1.72,1.72,0,0,1,.68.13,1.37,1.37,0,0,1,.46.35,1.39,1.39,0,0,1,.27.49,1.76,1.76,0,0,1,.09.55c0,.05,0,.09,0,.12a.45.45,0,0,1,0,.11Zm-4.28-1.76h1.31a.54.54,0,0,0,.43-.17.62.62,0,0,0,.15-.44.76.76,0,0,0-.17-.48.63.63,0,0,0-.5-.2h-1.22Zm0,2.12h1.31a.67.67,0,0,0,.54-.22.85.85,0,0,0,.18-.55.8.8,0,0,0-.18-.54.6.6,0,0,0-.49-.22h-1.36Zm1.29-4.3a1.69,1.69,0,0,1,.66.12,1.21,1.21,0,0,1,.45.31,1.14,1.14,0,0,1,.26.44,1.91,1.91,0,0,1,.08.54,1.21,1.21,0,0,1-.15.64,1.07,1.07,0,0,1-.37.39,1.43,1.43,0,0,1,.49.49,1.41,1.41,0,0,1,.19.76,1.79,1.79,0,0,1-.09.57,1.64,1.64,0,0,1-.28.48,1.29,1.29,0,0,1-.46.33,1.54,1.54,0,0,1-.63.12h-2.33v-5.19Zm24.75-5.88v.27a2.24,2.24,0,0,1,.49-.24,2.1,2.1,0,0,1,.64-.1,1.3,1.3,0,0,1,.52.1.65.65,0,0,1,.29.34,2.21,2.21,0,0,1,.61-.34,2.09,2.09,0,0,1,.6-.1.94.94,0,0,1,.69.23,1.2,1.2,0,0,1,.21.8v2h-.78v-1.84a.52.52,0,0,0-.12-.4.44.44,0,0,0-.32-.11,1,1,0,0,0-.4.09,1.64,1.64,0,0,0-.4.23v2H-296v-1.84a.58.58,0,0,0-.11-.4.42.42,0,0,0-.31-.11,1.2,1.2,0,0,0-.45.09,1,1,0,0,0-.35.21V386H-298v-2.93Zm-3.73-2.26v3.47l1.28-1.21h.89l-1,.94,1.15,2h-.86l-.83-1.48-.63.59V386h-.79V380.8Zm-3.69.82a1,1,0,0,0-.48.13,1.34,1.34,0,0,0-.35.36,1.83,1.83,0,0,0-.22.57,3.26,3.26,0,0,0-.07.72,3.26,3.26,0,0,0,.07.72,1.77,1.77,0,0,0,.22.56,1,1,0,0,0,.35.36.83.83,0,0,0,.47.13.83.83,0,0,0,.47-.13,1.12,1.12,0,0,0,.36-.36,1.77,1.77,0,0,0,.22-.56,3.24,3.24,0,0,0,.08-.72,3.24,3.24,0,0,0-.08-.72,1.83,1.83,0,0,0-.22-.57,1.2,1.2,0,0,0-.35-.36A1,1,0,0,0-304.62,381.62Zm0,4.44a1.65,1.65,0,0,1-.86-.23,2.15,2.15,0,0,1-.63-.61,2.75,2.75,0,0,1-.38-.85,3.56,3.56,0,0,1-.13-1,4.07,4.07,0,0,1,.13-1,2.88,2.88,0,0,1,.39-.85,2.35,2.35,0,0,1,.63-.59,1.65,1.65,0,0,1,.86-.23,1.65,1.65,0,0,1,.86.23,2.09,2.09,0,0,1,.63.59,2.94,2.94,0,0,1,.39.86,3.64,3.64,0,0,1,.13,1,3.64,3.64,0,0,1-.13,1,2.88,2.88,0,0,1-.39.85,2,2,0,0,1-.63.6A1.75,1.75,0,0,1-304.64,386.06Zm-4.76-4.44a.92.92,0,0,0-.47.13,1.1,1.1,0,0,0-.35.36,1.83,1.83,0,0,0-.22.57,3.24,3.24,0,0,0-.08.72,3.24,3.24,0,0,0,.08.72,2,2,0,0,0,.21.56,1.1,1.1,0,0,0,.35.36.85.85,0,0,0,.47.13.86.86,0,0,0,.48-.13,1.12,1.12,0,0,0,.36-.36,2,2,0,0,0,.22-.56,3.26,3.26,0,0,0,.07-.72,3.26,3.26,0,0,0-.07-.72,2.12,2.12,0,0,0-.22-.57,1.23,1.23,0,0,0-.36-.36A.92.92,0,0,0-309.4,381.62Zm0,4.44a1.6,1.6,0,0,1-.86-.23,2.15,2.15,0,0,1-.63-.61,2.54,2.54,0,0,1-.38-.85,3.56,3.56,0,0,1-.13-1,3.64,3.64,0,0,1,.13-1,2.88,2.88,0,0,1,.39-.85,2.09,2.09,0,0,1,.63-.59,1.61,1.61,0,0,1,.85-.23,1.66,1.66,0,0,1,.87.23,2.35,2.35,0,0,1,.63.59,2.94,2.94,0,0,1,.39.86,4.07,4.07,0,0,1,.13,1,4.07,4.07,0,0,1-.13,1,2.88,2.88,0,0,1-.39.85,2.15,2.15,0,0,1-.64.6A1.74,1.74,0,0,1-309.41,386.06Zm-4.61-2.32a1.61,1.61,0,0,0,.49-.07,1.89,1.89,0,0,0,.44-.19,2.82,2.82,0,0,0,.09-.71,1.37,1.37,0,0,0-.23-.85.89.89,0,0,0-.74-.3,1.56,1.56,0,0,0-.44.07,1,1,0,0,0-.34.2.89.89,0,0,0-.23.34,1.21,1.21,0,0,0-.08.48,1,1,0,0,0,.27.76A1,1,0,0,0-314,383.74Zm-.64,2.25a4.36,4.36,0,0,0,.73-.76,5.69,5.69,0,0,0,.54-.87,3.09,3.09,0,0,1-.43.14,2.52,2.52,0,0,1-.48.05,1.82,1.82,0,0,1-.67-.13,1.5,1.5,0,0,1-.52-.37,1.6,1.6,0,0,1-.34-.57,2.47,2.47,0,0,1-.11-.75,2.23,2.23,0,0,1,.14-.83,1.88,1.88,0,0,1,.4-.63,1.89,1.89,0,0,1,.62-.4,2.29,2.29,0,0,1,.81-.14,2,2,0,0,1,.8.15,1.55,1.55,0,0,1,.57.4,1.66,1.66,0,0,1,.36.62,2.94,2.94,0,0,1,.11.81,3.81,3.81,0,0,1-.1.87,5.76,5.76,0,0,1-.31.88,6.75,6.75,0,0,1-.48.82,4.71,4.71,0,0,1-.62.71Zm-1.73-1v.13l-.37,1.82h-.36l.09-1h-.19v-1Zm-4.93-3.75a2.81,2.81,0,0,1,.64-.39,2.2,2.2,0,0,1,.86-.16,1.71,1.71,0,0,1,1.23.41,1.48,1.48,0,0,1,.43,1.14,2.66,2.66,0,0,1-.41,1.38,6.72,6.72,0,0,1-1.25,1.44h1.69V386h-3.29v-.09c.44-.42.81-.8,1.11-1.13a7.38,7.38,0,0,0,.74-.89,3.52,3.52,0,0,0,.4-.71,1.84,1.84,0,0,0,.12-.63.94.94,0,0,0-.23-.67.87.87,0,0,0-.69-.25,1.53,1.53,0,0,0-.54.1,2.45,2.45,0,0,0-.5.3Zm-1-.55h.08V386h-.88V382.4l-1,.86-.42-.62Z" transform="translate(643.43 -366.9)"></path><path class="af8d5952-38be-439e-b09c-5578e147739f" d="M-603.74,410.68a.86.86,0,0,0-.34-.18,1.08,1.08,0,0,0-.34-.05.85.85,0,0,0-.63.24.89.89,0,0,0-.24.66,1,1,0,0,0,0,.35.8.8,0,0,0,.15.29.86.86,0,0,0,.26.2,1.06,1.06,0,0,0,.37.07.84.84,0,0,0,.44-.11,1.27,1.27,0,0,0,.3-.27l.4.33a1.54,1.54,0,0,1-.47.48,1.36,1.36,0,0,1-.76.2,1.6,1.6,0,0,1-.65-.13,1.29,1.29,0,0,1-.47-.35,1.49,1.49,0,0,1-.28-.49,1.91,1.91,0,0,1-.1-.58,1.45,1.45,0,0,1,.13-.63,1.58,1.58,0,0,1,.33-.48,1.44,1.44,0,0,1,.49-.3,1.63,1.63,0,0,1,.59-.11,1.8,1.8,0,0,1,.6.1,1.62,1.62,0,0,1,.53.29Zm-3.14-2.59v1h-.83v-1Zm0,1.8v2.93h-.79v-2.93Zm-5.75,0v.27a2.24,2.24,0,0,1,.49-.24,2.15,2.15,0,0,1,.64-.1,1.27,1.27,0,0,1,.52.1.62.62,0,0,1,.29.34,2.21,2.21,0,0,1,.61-.34,1.8,1.8,0,0,1,.6-.1.94.94,0,0,1,.69.23,1.2,1.2,0,0,1,.21.8v2h-.78V411a.5.5,0,0,0-.12-.39.44.44,0,0,0-.32-.11,1.19,1.19,0,0,0-.4.08,2.73,2.73,0,0,0-.4.23v2h-.79V411a.55.55,0,0,0-.11-.39.42.42,0,0,0-.31-.11,1.2,1.2,0,0,0-.45.09,1.24,1.24,0,0,0-.35.2v2.06h-.78v-2.93Zm-3.1.56a.61.61,0,0,0-.53.25,1,1,0,0,0-.2.65,1.1,1.1,0,0,0,.19.66.64.64,0,0,0,.54.25.64.64,0,0,0,.55-.25,1.1,1.1,0,0,0,.19-.66,1.07,1.07,0,0,0-.19-.65A.64.64,0,0,0-615.75,410.45Zm-1.51.9a1.63,1.63,0,0,1,.1-.57,1.63,1.63,0,0,1,.29-.49,1.54,1.54,0,0,1,.48-.34,1.44,1.44,0,0,1,.64-.13,1.48,1.48,0,0,1,.65.13,1.54,1.54,0,0,1,.48.34,1.63,1.63,0,0,1,.29.49,1.9,1.9,0,0,1,.1.57,1.91,1.91,0,0,1-.1.58,1.63,1.63,0,0,1-.29.49,1.54,1.54,0,0,1-.48.34,1.64,1.64,0,0,1-.65.13,1.59,1.59,0,0,1-.64-.13,1.54,1.54,0,0,1-.48-.34,1.56,1.56,0,0,1-.29-.5A1.56,1.56,0,0,1-617.26,411.35Zm-3-1.46v.27a2.2,2.2,0,0,1,.53-.24,2.71,2.71,0,0,1,.71-.1,1.53,1.53,0,0,1,.45.06.8.8,0,0,1,.32.19.88.88,0,0,1,.19.36,2.19,2.19,0,0,1,.07.56v1.83h-.8V411.1a.71.71,0,0,0-.13-.5.58.58,0,0,0-.4-.13l-.26,0-.26.07a1.23,1.23,0,0,0-.23.09.85.85,0,0,0-.17.1v2.06H-621v-2.93Zm-3.1.56a.64.64,0,0,0-.54.25,1,1,0,0,0-.19.65,1,1,0,0,0,.19.66.63.63,0,0,0,.54.25.61.61,0,0,0,.54-.25,1,1,0,0,0,.19-.66,1,1,0,0,0-.19-.65A.61.61,0,0,0-623.35,410.45Zm-1.51.9a1.63,1.63,0,0,1,.1-.57,1.44,1.44,0,0,1,.29-.49A1.62,1.62,0,0,1-624,410a1.51,1.51,0,0,1,.65-.13,1.48,1.48,0,0,1,.65.13,1.5,1.5,0,0,1,.47.34,1.66,1.66,0,0,1,.3.49,1.88,1.88,0,0,1,.09.57,1.9,1.9,0,0,1-.09.58,1.66,1.66,0,0,1-.3.49,1.5,1.5,0,0,1-.47.34,1.64,1.64,0,0,1-.65.13,1.67,1.67,0,0,1-.65-.13,1.62,1.62,0,0,1-.47-.34,1.4,1.4,0,0,1-.29-.5A1.56,1.56,0,0,1-624.86,411.35Zm-.92-.67a.86.86,0,0,0-.34-.18,1,1,0,0,0-.34-.05.85.85,0,0,0-.63.24.89.89,0,0,0-.24.66,1.29,1.29,0,0,0,.05.35.83.83,0,0,0,.16.29.75.75,0,0,0,.26.2,1,1,0,0,0,.36.07.82.82,0,0,0,.44-.11,1,1,0,0,0,.3-.27l.4.33a1.43,1.43,0,0,1-.47.48,1.34,1.34,0,0,1-.76.2,1.6,1.6,0,0,1-.65-.13,1.38,1.38,0,0,1-.47-.35,1.49,1.49,0,0,1-.28-.49,1.9,1.9,0,0,1-.09-.58,1.61,1.61,0,0,1,.12-.63,1.58,1.58,0,0,1,.33-.48,1.44,1.44,0,0,1,.49-.3,1.64,1.64,0,0,1,.6-.11,1.74,1.74,0,0,1,.59.1,1.52,1.52,0,0,1,.53.29Zm-3.06-3.05v.89h-2.47v1.21h2.45v.85h-2.45v1.35h2.49v.89h-3.37v-5.19Zm72.07-5.88V402a2.2,2.2,0,0,1,.53-.24,2.71,2.71,0,0,1,.71-.1,1.53,1.53,0,0,1,.45.06.74.74,0,0,1,.32.19.88.88,0,0,1,.19.36,2.19,2.19,0,0,1,.07.56v1.83h-.8V403a.67.67,0,0,0-.13-.49.54.54,0,0,0-.4-.14l-.26,0-.26.07-.23.09a.85.85,0,0,0-.17.1v2.06h-.79v-2.93Zm-3.25,2.47a1.23,1.23,0,0,0,.42-.07,2,2,0,0,0,.4-.16v-.77l-.93.18a.46.46,0,0,0-.32.16.39.39,0,0,0-.08.25.36.36,0,0,0,.13.31A.66.66,0,0,0-560,404.22Zm.82-1.4a.48.48,0,0,0-.16-.4,1,1,0,0,0-.57-.12,2.81,2.81,0,0,0-.49.05,2.24,2.24,0,0,0-.57.19l-.11-.58a2.79,2.79,0,0,1,.69-.23,4.13,4.13,0,0,1,.57-.05,1.76,1.76,0,0,1,1.09.27.93.93,0,0,1,.34.8v1.93h-.76v-.28a2.61,2.61,0,0,1-.54.25,1.63,1.63,0,0,1-.59.1,1.05,1.05,0,0,1-.72-.23.86.86,0,0,1-.25-.65.83.83,0,0,1,.2-.56,1.08,1.08,0,0,1,.67-.31Zm-3.45-2.41v1.34h.84v.6h-.84v1.19a.58.58,0,0,0,.14.44.5.5,0,0,0,.34.12l.2,0a.49.49,0,0,0,.18-.08l.17.57a1,1,0,0,1-.32.13,1.75,1.75,0,0,1-.4.05,1.56,1.56,0,0,1-.44-.06.88.88,0,0,1-.34-.19.82.82,0,0,1-.23-.34,1.29,1.29,0,0,1-.09-.51v-1.3h-.46v-.6h.46v-1.34Zm-4.37,3.52a2.39,2.39,0,0,0,.32.11l.37.08.35.05h.31a1.2,1.2,0,0,0,.46-.07.3.3,0,0,0,.17-.28.24.24,0,0,0-.09-.2,1.18,1.18,0,0,0-.27-.1l-.46-.08a4.65,4.65,0,0,1-.59-.15l-.23-.08a.77.77,0,0,1-.21-.14.83.83,0,0,1-.16-.2.75.75,0,0,1-.06-.31.73.73,0,0,1,.38-.67,2,2,0,0,1,1-.22,3,3,0,0,1,.67.07,2.41,2.41,0,0,1,.59.18l-.15.56a2.39,2.39,0,0,0-.56-.17,2.64,2.64,0,0,0-.55-.06,1.09,1.09,0,0,0-.48.08.25.25,0,0,0-.17.25.22.22,0,0,0,.11.21.86.86,0,0,0,.32.1l.31.06.24.05.22.06.22.06a1.64,1.64,0,0,1,.46.24.57.57,0,0,1,.17.44.82.82,0,0,1-.11.42,1,1,0,0,1-.31.3,1.5,1.5,0,0,1-.45.17,2.5,2.5,0,0,1-.55.05,2.55,2.55,0,0,1-.39,0,2.32,2.32,0,0,1-.38-.06l-.34-.08-.26-.09Zm-.91-4v1h-.82v-1Zm0,1.8v2.93h-.78v-2.93Zm-3.78-2.26V403l1.27-1.21h.89l-1,.94,1.16,2h-.86l-.84-1.48-.62.58v.9h-.8v-5.19Zm-3.32,4.73a1.23,1.23,0,0,0,.42-.07,2.05,2.05,0,0,0,.41-.16v-.77l-.93.18a.51.51,0,0,0-.33.16.46.46,0,0,0-.08.25.39.39,0,0,0,.13.31A.69.69,0,0,0-575,404.22Zm.83-1.4a.55.55,0,0,0-.16-.4,1,1,0,0,0-.57-.12,2.81,2.81,0,0,0-.49.05,2.24,2.24,0,0,0-.57.19l-.11-.58a2.87,2.87,0,0,1,.68-.23,4.13,4.13,0,0,1,.57-.05,1.76,1.76,0,0,1,1.09.27.94.94,0,0,1,.35.8v1.93h-.76v-.28a2.61,2.61,0,0,1-.54.25,1.66,1.66,0,0,1-.59.1,1.05,1.05,0,0,1-.72-.23.82.82,0,0,1-.25-.65.83.83,0,0,1,.19-.56,1.11,1.11,0,0,1,.68-.31Zm-5-.95h1.17a.61.61,0,0,0,.28-.06.48.48,0,0,0,.2-.17.68.68,0,0,0,.12-.24,1.26,1.26,0,0,0,0-.27,1.35,1.35,0,0,0,0-.29.68.68,0,0,0-.12-.24.54.54,0,0,0-.2-.16.61.61,0,0,0-.28-.06h-1.17Zm1.17-2.38a1.54,1.54,0,0,1,.63.12,1.23,1.23,0,0,1,.46.34,1.58,1.58,0,0,1,.28.51,2.13,2.13,0,0,1,.09.63,2.57,2.57,0,0,1-.08.62,1.41,1.41,0,0,1-.28.51,1.19,1.19,0,0,1-.45.35,1.48,1.48,0,0,1-.65.14h-1.17v2h-.89v-5.19Zm-2.72,3.05v.6h-1.83v-.6Zm-4,1.68a1.23,1.23,0,0,0,.42-.07A2.31,2.31,0,0,0-584,404v-.77l-.93.18a.47.47,0,0,0-.33.16.46.46,0,0,0-.08.25.36.36,0,0,0,.13.31A.66.66,0,0,0-584.8,404.22Zm.83-1.4a.55.55,0,0,0-.16-.4,1,1,0,0,0-.58-.12,2.81,2.81,0,0,0-.49.05,2.52,2.52,0,0,0-.57.19l-.1-.58a2.6,2.6,0,0,1,.68-.23,4.13,4.13,0,0,1,.57-.05,1.76,1.76,0,0,1,1.09.27.93.93,0,0,1,.34.8v1.93h-.76v-.28a2.2,2.2,0,0,1-.54.25,1.61,1.61,0,0,1-.58.1,1,1,0,0,1-.72-.23.82.82,0,0,1-.25-.65.83.83,0,0,1,.19-.56,1.08,1.08,0,0,1,.67-.31Zm-5-1.07V402a2,2,0,0,1,.53-.24,2.65,2.65,0,0,1,.71-.1,1.46,1.46,0,0,1,.44.06.69.69,0,0,1,.32.19.89.89,0,0,1,.2.36,2.23,2.23,0,0,1,.06.56v1.83h-.79V403a.67.67,0,0,0-.14-.49.53.53,0,0,0-.39-.14,1.15,1.15,0,0,0-.26,0l-.27.07-.23.09a.74.74,0,0,0-.16.1v2.06h-.79v-2.93Zm-1.75-1.8v1h-.82v-1Zm0,1.8v2.93h-.78v-2.93Zm-3.93-2.26V402a2.47,2.47,0,0,1,.51-.23,2.65,2.65,0,0,1,.71-.1,1.42,1.42,0,0,1,.44.06.63.63,0,0,1,.32.2.78.78,0,0,1,.19.36,1.75,1.75,0,0,1,.07.55v1.83h-.79V403a.68.68,0,0,0-.14-.49.57.57,0,0,0-.4-.14l-.26,0-.26.07-.23.09a.85.85,0,0,0-.17.1v2.06h-.78v-5.19Zm-2.19,1.38a3.4,3.4,0,0,0-.59-.4,1.84,1.84,0,0,0-.76-.16,1.59,1.59,0,0,0-.62.12,1.31,1.31,0,0,0-.5.34,1.46,1.46,0,0,0-.34.55,2.2,2.2,0,0,0-.12.76,2.26,2.26,0,0,0,.12.77,1.82,1.82,0,0,0,.34.56,1.5,1.5,0,0,0,.5.33,1.54,1.54,0,0,0,.61.12,1.59,1.59,0,0,0,.78-.2,1.2,1.2,0,0,0,.52-.55l.67.55a2.15,2.15,0,0,1-.36.48,2,2,0,0,1-.48.34,2.06,2.06,0,0,1-.54.2,2.44,2.44,0,0,1-.59.07,2.42,2.42,0,0,1-1-.2,2.06,2.06,0,0,1-.78-.54,2.53,2.53,0,0,1-.52-.85,3.27,3.27,0,0,1-.19-1.11,3.17,3.17,0,0,1,.19-1.1,2.3,2.3,0,0,1,.52-.82,2.1,2.1,0,0,1,.78-.52,2.54,2.54,0,0,1,1-.19,2.79,2.79,0,0,1,1.07.2,3.1,3.1,0,0,1,.83.53Zm-7.44,1.73-.18-.08a1.45,1.45,0,0,0-.22-.09l-.24-.07a1,1,0,0,0-.24,0,.66.66,0,0,0-.55.24,1.07,1.07,0,0,0-.18.65,1.05,1.05,0,0,0,.18.64.64.64,0,0,0,.54.24l.24,0,.25-.07.22-.09.18-.09Zm.78-3.11v5.19h-.76v-.28l-.25.13-.29.11-.32.08-.32,0a1.09,1.09,0,0,1-.55-.13,1,1,0,0,1-.38-.34,1.31,1.31,0,0,1-.23-.49,2.12,2.12,0,0,1-.08-.57,1.85,1.85,0,0,1,.09-.58,1.37,1.37,0,0,1,.24-.5,1,1,0,0,1,.39-.33,1.13,1.13,0,0,1,.56-.13,1.63,1.63,0,0,1,.31,0l.31.08.28.11a1,1,0,0,1,.21.11v-2.52Zm-5.33,2.78a.72.72,0,0,0-.54.2.92.92,0,0,0-.23.56h1.5a.92.92,0,0,0-.18-.54A.66.66,0,0,0-608.81,402.27Zm-.76,1.16a.81.81,0,0,0,.28.53,1.05,1.05,0,0,0,.69.19,1.73,1.73,0,0,0,.45,0,2.25,2.25,0,0,0,.42-.13l.12.53a1.39,1.39,0,0,1-.45.18,3.14,3.14,0,0,1-.64.07,2.11,2.11,0,0,1-.76-.13,1.47,1.47,0,0,1-.51-.34,1.44,1.44,0,0,1-.29-.49,1.71,1.71,0,0,1-.09-.55,1.85,1.85,0,0,1,.09-.58,1.56,1.56,0,0,1,.29-.5,1.5,1.5,0,0,1,.49-.35,1.74,1.74,0,0,1,.67-.13,1.72,1.72,0,0,1,.68.13,1.37,1.37,0,0,1,.46.35,1.39,1.39,0,0,1,.27.49,1.76,1.76,0,0,1,.09.55c0,.05,0,.09,0,.12a.45.45,0,0,1,0,.11Zm-4,.5a2,2,0,0,0,.32.11l.36.08.36.05h.31a1.18,1.18,0,0,0,.45-.07.29.29,0,0,0,.18-.28.22.22,0,0,0-.1-.2.9.9,0,0,0-.27-.1l-.46-.08a4.65,4.65,0,0,1-.59-.15l-.22-.08a.77.77,0,0,1-.21-.14.53.53,0,0,1-.16-.2.75.75,0,0,1-.06-.31.72.72,0,0,1,.37-.67,2,2,0,0,1,1-.22,3.08,3.08,0,0,1,.68.07,2.32,2.32,0,0,1,.58.18l-.15.56a2.26,2.26,0,0,0-.56-.17,2.62,2.62,0,0,0-.54-.06,1.09,1.09,0,0,0-.48.08.25.25,0,0,0-.18.25.21.21,0,0,0,.12.21.8.8,0,0,0,.32.1l.3.06.25.05.21.06.23.06a1.79,1.79,0,0,1,.46.24.57.57,0,0,1,.17.44.74.74,0,0,1-.12.42,1,1,0,0,1-.31.3,1.5,1.5,0,0,1-.45.17,2.39,2.39,0,0,1-.55.05,2.48,2.48,0,0,1-.38,0,2.16,2.16,0,0,1-.38-.06,2.44,2.44,0,0,1-.34-.08l-.27-.09Zm-2.27-1.62a.64.64,0,0,0-.54.25,1,1,0,0,0-.19.66,1,1,0,0,0,.19.65.64.64,0,0,0,.54.25.61.61,0,0,0,.54-.25,1,1,0,0,0,.19-.65,1,1,0,0,0-.19-.66A.61.61,0,0,0-615.89,402.31Zm-1.51.91a1.56,1.56,0,0,1,.1-.57,1.4,1.4,0,0,1,.29-.5,1.62,1.62,0,0,1,.47-.34,1.51,1.51,0,0,1,.65-.13,1.48,1.48,0,0,1,.65.13,1.39,1.39,0,0,1,.47.34,1.59,1.59,0,0,1,.3.5,1.79,1.79,0,0,1,.09.57,1.88,1.88,0,0,1-.09.57,1.66,1.66,0,0,1-.3.49,1.39,1.39,0,0,1-.47.34,1.64,1.64,0,0,1-.65.13,1.67,1.67,0,0,1-.65-.13,1.62,1.62,0,0,1-.47-.34,1.4,1.4,0,0,1-.29-.5A1.54,1.54,0,0,1-617.4,403.22Zm-3.09.61.39.17a1.23,1.23,0,0,0,.49.1.63.63,0,0,0,.54-.24,1.07,1.07,0,0,0,.18-.65,1,1,0,0,0-.18-.64.61.61,0,0,0-.53-.24l-.25,0-.24.07-.23.09-.17.09Zm0-2.08V402l.24-.12.3-.12.32-.08a1.73,1.73,0,0,1,.32,0,1.05,1.05,0,0,1,.54.13,1.17,1.17,0,0,1,.39.34,1.64,1.64,0,0,1,.23.5,2.12,2.12,0,0,1,.07.57,2.25,2.25,0,0,1-.08.58,1.6,1.6,0,0,1-.24.49,1.16,1.16,0,0,1-.4.33,1.09,1.09,0,0,1-.55.13,1.73,1.73,0,0,1-.32,0l-.3-.08a1.69,1.69,0,0,1-.27-.1l-.23-.12v1.63h-.78v-4.3Zm-3.1.56a.64.64,0,0,0-.54.25,1.08,1.08,0,0,0-.19.66,1,1,0,0,0,.19.65.64.64,0,0,0,.54.25.64.64,0,0,0,.55-.25,1.07,1.07,0,0,0,.19-.65,1.08,1.08,0,0,0-.19-.66A.64.64,0,0,0-623.61,402.31Zm-1.51.91a1.56,1.56,0,0,1,.1-.57,1.4,1.4,0,0,1,.29-.5,1.54,1.54,0,0,1,.48-.34,1.44,1.44,0,0,1,.64-.13,1.48,1.48,0,0,1,.65.13,1.54,1.54,0,0,1,.48.34,1.77,1.77,0,0,1,.29.5,1.8,1.8,0,0,1,.1.57,1.9,1.9,0,0,1-.1.57,1.86,1.86,0,0,1-.29.49,1.54,1.54,0,0,1-.48.34,1.64,1.64,0,0,1-.65.13,1.59,1.59,0,0,1-.64-.13,1.54,1.54,0,0,1-.48-.34,1.4,1.4,0,0,1-.29-.5A1.54,1.54,0,0,1-625.12,403.22Zm-2.2-1.47v.45a1.73,1.73,0,0,1,.43-.38,1.1,1.1,0,0,1,.57-.14,1.22,1.22,0,0,1,.46.09.85.85,0,0,1,.37.26l-.17.57a.91.91,0,0,0-.68-.27,1,1,0,0,0-.53.14,1.54,1.54,0,0,0-.43.42v1.79h-.79v-2.93Zm-4,.12h1.17a.65.65,0,0,0,.29-.06.65.65,0,0,0,.2-.17.66.66,0,0,0,.11-.24.84.84,0,0,0,0-.27.92.92,0,0,0,0-.29.66.66,0,0,0-.11-.24.78.78,0,0,0-.2-.16.65.65,0,0,0-.29-.06h-1.17Zm1.17-2.38a1.62,1.62,0,0,1,.64.12,1.28,1.28,0,0,1,.45.34,1.41,1.41,0,0,1,.28.51,2.13,2.13,0,0,1,.1.63,2.16,2.16,0,0,1-.09.62,1.56,1.56,0,0,1-.27.51,1.31,1.31,0,0,1-.46.35,1.45,1.45,0,0,1-.65.14h-1.17v2h-.88v-5.19Z" transform="translate(643.43 -366.9)"></path><path class="af8d5952-38be-439e-b09c-5578e147739f" d="M-575.22,409.89v.45a1.77,1.77,0,0,1,.44-.38,1.05,1.05,0,0,1,.57-.15,1.27,1.27,0,0,1,.46.1.92.92,0,0,1,.37.26l-.18.57a.89.89,0,0,0-.67-.27,1,1,0,0,0-.53.13,1.59,1.59,0,0,0-.43.43v1.79H-576v-2.93Zm-3.08.56a.64.64,0,0,0-.54.25,1,1,0,0,0-.2.65,1.1,1.1,0,0,0,.19.66.64.64,0,0,0,.55.25.64.64,0,0,0,.54-.25,1.1,1.1,0,0,0,.19-.66,1.07,1.07,0,0,0-.19-.65A.64.64,0,0,0-578.3,410.45Zm-1.52.9a1.9,1.9,0,0,1,.1-.57,1.63,1.63,0,0,1,.29-.49,1.54,1.54,0,0,1,.48-.34,1.48,1.48,0,0,1,.65-.13,1.44,1.44,0,0,1,.64.13,1.54,1.54,0,0,1,.48.34,1.63,1.63,0,0,1,.29.49,1.63,1.63,0,0,1,.1.57,1.65,1.65,0,0,1-.1.58,1.63,1.63,0,0,1-.29.49,1.54,1.54,0,0,1-.48.34,1.59,1.59,0,0,1-.64.13,1.64,1.64,0,0,1-.65-.13,1.54,1.54,0,0,1-.48-.34,1.56,1.56,0,0,1-.29-.5A1.8,1.8,0,0,1-579.82,411.35Zm-1.64-.61-.17-.08a.92.92,0,0,0-.23-.09l-.24-.07-.24,0a.63.63,0,0,0-.54.24,1.06,1.06,0,0,0-.19.64,1.09,1.09,0,0,0,.19.65.63.63,0,0,0,.53.24l.25,0,.24-.07.23-.09.17-.09Zm.79-3.11v5.19h-.77v-.28l-.25.13-.29.11-.32.08a1.73,1.73,0,0,1-.32,0,1,1,0,0,1-.54-.13,1,1,0,0,1-.39-.34,1.48,1.48,0,0,1-.23-.49,2.12,2.12,0,0,1-.07-.57,2,2,0,0,1,.08-.59,1.4,1.4,0,0,1,.24-.49,1.16,1.16,0,0,1,.4-.33,1.07,1.07,0,0,1,.55-.13,1.73,1.73,0,0,1,.32,0l.31.08a1.69,1.69,0,0,1,.27.11.82.82,0,0,1,.21.11v-2.52Zm-4,.46v1h-.82v-1Zm0,1.8v2.93h-.78v-2.93Zm-3.27,0v.45a1.73,1.73,0,0,1,.43-.38,1.1,1.1,0,0,1,.57-.15,1.32,1.32,0,0,1,.47.1.88.88,0,0,1,.36.26l-.17.57a.91.91,0,0,0-.68-.27,1,1,0,0,0-.53.13,1.75,1.75,0,0,0-.43.43v1.79h-.79v-2.93Zm-3.21,0v.45a1.77,1.77,0,0,1,.44-.38,1,1,0,0,1,.56-.15,1.28,1.28,0,0,1,.47.1,1,1,0,0,1,.37.26l-.18.57a.91.91,0,0,0-.68-.27,1,1,0,0,0-.52.13,1.46,1.46,0,0,0-.43.43v1.79h-.78v-2.93Zm-3.09.56a.64.64,0,0,0-.54.25,1,1,0,0,0-.19.65,1,1,0,0,0,.19.66.64.64,0,0,0,.54.25.61.61,0,0,0,.54-.25,1,1,0,0,0,.19-.66,1,1,0,0,0-.19-.65A.61.61,0,0,0-594.28,410.45Zm-1.51.9a1.63,1.63,0,0,1,.1-.57,1.44,1.44,0,0,1,.29-.49,1.62,1.62,0,0,1,.47-.34,1.51,1.51,0,0,1,.65-.13,1.48,1.48,0,0,1,.65.13,1.39,1.39,0,0,1,.47.34,1.66,1.66,0,0,1,.3.49,1.88,1.88,0,0,1,.09.57,1.9,1.9,0,0,1-.09.58,1.66,1.66,0,0,1-.3.49,1.39,1.39,0,0,1-.47.34,1.64,1.64,0,0,1-.65.13,1.67,1.67,0,0,1-.65-.13,1.62,1.62,0,0,1-.47-.34,1.4,1.4,0,0,1-.29-.5A1.56,1.56,0,0,1-595.79,411.35Zm-1.16-2.34a3.06,3.06,0,0,0-.59-.4,1.84,1.84,0,0,0-.76-.16,1.59,1.59,0,0,0-.62.12,1.31,1.31,0,0,0-.5.34,1.6,1.6,0,0,0-.34.55,2.19,2.19,0,0,0-.12.75,2.06,2.06,0,0,0,.13.78,1.5,1.5,0,0,0,.33.55,1.39,1.39,0,0,0,.5.34,1.54,1.54,0,0,0,.61.12,1.56,1.56,0,0,0,.78-.2,1.28,1.28,0,0,0,.53-.55l.66.55a2.15,2.15,0,0,1-.36.48,1.94,1.94,0,0,1-.47.34,2.27,2.27,0,0,1-.55.2,2.38,2.38,0,0,1-.59.07,2.42,2.42,0,0,1-1-.2,2.23,2.23,0,0,1-.78-.54,2.7,2.7,0,0,1-.52-.85,3.31,3.31,0,0,1-.19-1.11,3.17,3.17,0,0,1,.19-1.1,2.45,2.45,0,0,1,.52-.82,2.18,2.18,0,0,1,.78-.52,2.54,2.54,0,0,1,1-.19,2.79,2.79,0,0,1,1.07.2,3.1,3.1,0,0,1,.83.53Z" transform="translate(643.43 -366.9)"></path><path class="af8d5952-38be-439e-b09c-5578e147739f" d="M-400,405.41v.27a1.86,1.86,0,0,1,.49-.23,1.83,1.83,0,0,1,.64-.1,1.15,1.15,0,0,1,.52.1.58.58,0,0,1,.29.34,2,2,0,0,1,.61-.35,2.08,2.08,0,0,1,.6-.09.9.9,0,0,1,.69.23,1.15,1.15,0,0,1,.21.79v2h-.78V406.5a.52.52,0,0,0-.12-.4.44.44,0,0,0-.32-.1,1,1,0,0,0-.4.08,1.64,1.64,0,0,0-.4.23v2h-.79V406.5a.6.6,0,0,0-.11-.4.41.41,0,0,0-.31-.1,1.42,1.42,0,0,0-.45.08,1,1,0,0,0-.35.21v2h-.78v-2.93Zm-3.73-2.26v3.48l1.28-1.22h.89l-1,.94,1.15,2h-.86l-.83-1.48-.63.59v.89h-.79v-5.19Zm-3.69.82a1,1,0,0,0-.48.13,1.25,1.25,0,0,0-.35.37,1.68,1.68,0,0,0-.22.56,3.26,3.26,0,0,0-.07.72,3.26,3.26,0,0,0,.07.72,1.77,1.77,0,0,0,.22.56.93.93,0,0,0,.35.36.83.83,0,0,0,.47.13.83.83,0,0,0,.47-.13,1,1,0,0,0,.36-.36,1.77,1.77,0,0,0,.22-.56,3.24,3.24,0,0,0,.08-.72,3.24,3.24,0,0,0-.08-.72,1.68,1.68,0,0,0-.22-.56,1.13,1.13,0,0,0-.35-.37A1,1,0,0,0-407.45,404Zm0,4.44a1.65,1.65,0,0,1-.86-.23,2,2,0,0,1-.63-.6,3,3,0,0,1-.38-.85,3.62,3.62,0,0,1-.13-1,4.07,4.07,0,0,1,.13-1,2.82,2.82,0,0,1,.39-.86,2.35,2.35,0,0,1,.63-.59,1.64,1.64,0,0,1,.86-.22,1.64,1.64,0,0,1,.86.22,2,2,0,0,1,.63.6,2.88,2.88,0,0,1,.39.85,3.64,3.64,0,0,1,.13,1,3.64,3.64,0,0,1-.13,1,2.88,2.88,0,0,1-.39.85,2,2,0,0,1-.63.6A1.66,1.66,0,0,1-407.47,408.41Zm-4.76-4.44a.92.92,0,0,0-.47.13,1,1,0,0,0-.35.37,1.68,1.68,0,0,0-.22.56,3.24,3.24,0,0,0-.08.72,3.24,3.24,0,0,0,.08.72,2,2,0,0,0,.21.56,1,1,0,0,0,.35.36.85.85,0,0,0,.47.13.86.86,0,0,0,.48-.13,1,1,0,0,0,.36-.36,2,2,0,0,0,.22-.56,3.26,3.26,0,0,0,.07-.72,3.26,3.26,0,0,0-.07-.72,1.92,1.92,0,0,0-.22-.56,1.16,1.16,0,0,0-.36-.37A.92.92,0,0,0-412.23,404Zm0,4.44a1.6,1.6,0,0,1-.86-.23,2,2,0,0,1-.63-.6,2.73,2.73,0,0,1-.38-.85,3.62,3.62,0,0,1-.13-1,3.64,3.64,0,0,1,.13-1,2.82,2.82,0,0,1,.39-.86,2.09,2.09,0,0,1,.63-.59,1.61,1.61,0,0,1,.85-.22,1.66,1.66,0,0,1,.87.22,2.24,2.24,0,0,1,.63.6,2.88,2.88,0,0,1,.39.85,4.07,4.07,0,0,1,.13,1,4.07,4.07,0,0,1-.13,1,2.88,2.88,0,0,1-.39.85,2.15,2.15,0,0,1-.64.6A1.64,1.64,0,0,1-412.24,408.41ZM-417,404a1,1,0,0,0-.48.13,1.25,1.25,0,0,0-.35.37,1.68,1.68,0,0,0-.22.56,3.26,3.26,0,0,0-.07.72,3.26,3.26,0,0,0,.07.72,1.77,1.77,0,0,0,.22.56.93.93,0,0,0,.35.36.83.83,0,0,0,.47.13.83.83,0,0,0,.47-.13,1,1,0,0,0,.36-.36,1.77,1.77,0,0,0,.22-.56,3.24,3.24,0,0,0,.08-.72A3.24,3.24,0,0,0-416,405a1.68,1.68,0,0,0-.22-.56,1.13,1.13,0,0,0-.35-.37A1,1,0,0,0-417,404Zm0,4.44a1.65,1.65,0,0,1-.86-.23,2,2,0,0,1-.63-.6,3,3,0,0,1-.38-.85,3.62,3.62,0,0,1-.13-1,4.07,4.07,0,0,1,.13-1,2.82,2.82,0,0,1,.39-.86,2.35,2.35,0,0,1,.63-.59,1.64,1.64,0,0,1,.86-.22,1.64,1.64,0,0,1,.86.22,2,2,0,0,1,.63.6,2.88,2.88,0,0,1,.39.85,3.64,3.64,0,0,1,.13,1,3.64,3.64,0,0,1-.13,1,2.88,2.88,0,0,1-.39.85,2,2,0,0,1-.63.6A1.66,1.66,0,0,1-417,408.41Zm-2.77-1v.12l-.37,1.82h-.35l.09-1h-.19v-.95Zm-4.93-3.76a3.86,3.86,0,0,1,.65-.39,2.17,2.17,0,0,1,.86-.15,1.74,1.74,0,0,1,1.23.4,1.51,1.51,0,0,1,.42,1.14A2.65,2.65,0,0,1-422,406a6.72,6.72,0,0,1-1.25,1.44h1.69v.89h-3.3v-.08c.45-.43.82-.81,1.12-1.13a9.07,9.07,0,0,0,.73-.89,3.36,3.36,0,0,0,.4-.72,1.65,1.65,0,0,0,.13-.63,1,1,0,0,0-.23-.67.92.92,0,0,0-.7-.25,1.33,1.33,0,0,0-.54.11,1.75,1.75,0,0,0-.49.3Zm-4.33,1.78v.46a1.63,1.63,0,0,1,.44-.39,1.13,1.13,0,0,1,.56-.14,1.27,1.27,0,0,1,.47.09.91.91,0,0,1,.37.27l-.18.56a.91.91,0,0,0-.68-.27,1,1,0,0,0-.52.14,1.42,1.42,0,0,0-.43.42v1.79h-.78v-2.93Zm-3.24,2.47a1.52,1.52,0,0,0,.42-.06,3.56,3.56,0,0,0,.41-.17v-.77l-.93.18a.51.51,0,0,0-.33.16.46.46,0,0,0-.08.25.36.36,0,0,0,.13.31A.59.59,0,0,0-432.29,407.88Zm.83-1.4a.51.51,0,0,0-.16-.39.94.94,0,0,0-.58-.13,2.81,2.81,0,0,0-.49.05,2.52,2.52,0,0,0-.57.19l-.1-.58a2.55,2.55,0,0,1,.68-.22,3,3,0,0,1,.57,0,1.77,1.77,0,0,1,1.09.26,1,1,0,0,1,.34.81v1.92h-.76v-.27a3.32,3.32,0,0,1-.54.25,1.85,1.85,0,0,1-.58.09,1,1,0,0,1-.72-.23.8.8,0,0,1-.25-.64.85.85,0,0,1,.19-.57,1.08,1.08,0,0,1,.67-.3Zm-3.53-.22-.17-.09-.22-.08-.24-.07-.24,0a.59.59,0,0,0-.52.23.94.94,0,0,0-.18.61.94.94,0,0,0,.18.61.63.63,0,0,0,.53.24l.24,0,.23-.07.22-.08.17-.08Zm.78-.85v3a1.44,1.44,0,0,1-.08.51,1.1,1.1,0,0,1-.29.42,1.2,1.2,0,0,1-.49.3,2.06,2.06,0,0,1-.74.11,3.23,3.23,0,0,1-.69-.07,1.82,1.82,0,0,1-.57-.2l.12-.59a2.84,2.84,0,0,0,.49.17,2.94,2.94,0,0,0,.51.05,1.47,1.47,0,0,0,.46-.06.87.87,0,0,0,.3-.17.61.61,0,0,0,.15-.24.93.93,0,0,0,.05-.29V408a2.06,2.06,0,0,1-.49.21,1.9,1.9,0,0,1-.61.1,1.2,1.2,0,0,1-.55-.12,1.2,1.2,0,0,1-.39-.32,1.19,1.19,0,0,1-.24-.46,2,2,0,0,1-.08-.56,1.91,1.91,0,0,1,.08-.54,1.29,1.29,0,0,1,.23-.47,1.18,1.18,0,0,1,.38-.32,1.18,1.18,0,0,1,.55-.12,1.91,1.91,0,0,1,.62.1,2.87,2.87,0,0,1,.52.23v-.27Zm-6.07-2.26v2.52a2.32,2.32,0,0,1,.52-.22,2.26,2.26,0,0,1,.71-.1,1.52,1.52,0,0,1,.44,0,.76.76,0,0,1,.32.2,1,1,0,0,1,.19.36,2.15,2.15,0,0,1,.06.55v1.83h-.78v-1.71a.66.66,0,0,0-.15-.5.53.53,0,0,0-.39-.13l-.26,0-.27.07-.23.09a.74.74,0,0,0-.16.11v2h-.79v-5.19Zm-4.24,4.44a2.55,2.55,0,0,0,.33.11,2.33,2.33,0,0,0,.36.08l.36.05.3,0a1.19,1.19,0,0,0,.46-.08.27.27,0,0,0,.18-.27.22.22,0,0,0-.1-.2.57.57,0,0,0-.27-.1l-.46-.09a4.56,4.56,0,0,1-.59-.14l-.23-.09a1.2,1.2,0,0,1-.21-.13.8.8,0,0,1-.15-.21.68.68,0,0,1-.06-.31.71.71,0,0,1,.37-.66,1.91,1.91,0,0,1,1-.22,3.63,3.63,0,0,1,.67.06,2.41,2.41,0,0,1,.59.18l-.15.56a3.62,3.62,0,0,0-.56-.17,2.62,2.62,0,0,0-.54-.06,1.19,1.19,0,0,0-.48.08.26.26,0,0,0-.18.25.21.21,0,0,0,.12.21,1,1,0,0,0,.31.11l.31.06.25.05.21.05.22.07a1.17,1.17,0,0,1,.46.24.51.51,0,0,1,.17.43.75.75,0,0,1-.11.43,1.08,1.08,0,0,1-.31.29,1.28,1.28,0,0,1-.45.17,2.44,2.44,0,0,1-.55.06,2.56,2.56,0,0,1-.39,0l-.38-.05-.34-.08-.26-.1Zm-2.42.29a1.52,1.52,0,0,0,.42-.06,3,3,0,0,0,.41-.17v-.77l-.93.18a.5.5,0,0,0-.32.16.4.4,0,0,0-.09.25.37.37,0,0,0,.14.31A.58.58,0,0,0-446.94,407.88Zm.83-1.4a.47.47,0,0,0-.16-.39.88.88,0,0,0-.57-.13,2.81,2.81,0,0,0-.49.05,2.24,2.24,0,0,0-.57.19l-.11-.58a2.73,2.73,0,0,1,.69-.22,2.87,2.87,0,0,1,.57,0,1.79,1.79,0,0,1,1.09.26,1,1,0,0,1,.34.81v1.92h-.76v-.27a4.34,4.34,0,0,1-.54.25,1.87,1.87,0,0,1-.59.09,1,1,0,0,1-.72-.23.83.83,0,0,1-.25-.64.86.86,0,0,1,.2-.57,1.05,1.05,0,0,1,.67-.3Zm-5.64-3.33v2.28l2.14-2.28h1l-1.6,1.71,1.68,3.48h-1l-1.33-2.78-.86.91v1.87h-.89v-5.19Zm-1.56,3.06v.59h-1.83v-.59Zm-3.94-.8v.46a1.59,1.59,0,0,1,.43-.39,1.2,1.2,0,0,1,.57-.14,1.31,1.31,0,0,1,.47.09.82.82,0,0,1,.36.27l-.17.56a.91.91,0,0,0-.68-.27,1,1,0,0,0-.53.14,1.54,1.54,0,0,0-.43.42v1.79H-458v-2.93Zm-3.25,2.47a1.65,1.65,0,0,0,.43-.06,2.83,2.83,0,0,0,.4-.17v-.77l-.93.18a.5.5,0,0,0-.32.16.39.39,0,0,0-.08.25.36.36,0,0,0,.13.31A.58.58,0,0,0-460.5,407.88Zm.83-1.4a.47.47,0,0,0-.16-.39.88.88,0,0,0-.57-.13,2.81,2.81,0,0,0-.49.05,2.24,2.24,0,0,0-.57.19l-.11-.58a2.73,2.73,0,0,1,.69-.22,3,3,0,0,1,.57,0,1.77,1.77,0,0,1,1.09.26,1,1,0,0,1,.34.81v1.92h-.76v-.27a4.34,4.34,0,0,1-.54.25,1.87,1.87,0,0,1-.59.09,1,1,0,0,1-.72-.23.83.83,0,0,1-.25-.64.86.86,0,0,1,.2-.57,1.08,1.08,0,0,1,.67-.3Zm-3.61-.21-.17-.09-.22-.09-.24-.07-.25,0a.63.63,0,0,0-.54.24,1,1,0,0,0-.18.64,1,1,0,0,0,.18.64.63.63,0,0,0,.54.24l.24,0,.25-.07a.85.85,0,0,0,.22-.09l.17-.09Zm.79-3.12v5.19h-.77v-.27l-.24.12a2.65,2.65,0,0,1-.3.11l-.32.08a1.73,1.73,0,0,1-.32,0,1.16,1.16,0,0,1-.54-.12,1.17,1.17,0,0,1-.39-.34,1.69,1.69,0,0,1-.23-.49,2.25,2.25,0,0,1-.07-.58,2.25,2.25,0,0,1,.08-.58,1.72,1.72,0,0,1,.24-.49,1.19,1.19,0,0,1,.4-.34,1.2,1.2,0,0,1,.55-.12,1.73,1.73,0,0,1,.32,0l.31.07.27.11.22.12v-2.53Zm-5.53,4.73a1.52,1.52,0,0,0,.42-.06,3,3,0,0,0,.41-.17v-.77l-.93.18a.5.5,0,0,0-.32.16.4.4,0,0,0-.09.25.37.37,0,0,0,.14.31A.56.56,0,0,0-468,407.88Zm.83-1.4a.47.47,0,0,0-.16-.39.88.88,0,0,0-.57-.13,2.81,2.81,0,0,0-.49.05,2.24,2.24,0,0,0-.57.19l-.11-.58a2.73,2.73,0,0,1,.69-.22,2.87,2.87,0,0,1,.57,0,1.74,1.74,0,0,1,1.08.26,1,1,0,0,1,.35.81v1.92h-.76v-.27a4.34,4.34,0,0,1-.54.25,1.92,1.92,0,0,1-.59.09,1,1,0,0,1-.72-.23.83.83,0,0,1-.25-.64.91.91,0,0,1,.19-.57,1.11,1.11,0,0,1,.68-.3Zm-6.24-1.07.58,1.66,1-1.72h.08l.9,1.71.65-1.65h.67l-1.19,3h-.08l-1-2-1.05,2H-473l-1.16-3Zm-1.21,0c0,.07,0,.15,0,.23a2.91,2.91,0,0,1,0,.31,3.12,3.12,0,0,1-.17,1,2.21,2.21,0,0,1-.47.79,2.13,2.13,0,0,1-.73.49,2.4,2.4,0,0,1-.9.17,2.45,2.45,0,0,1-1-.19,2.26,2.26,0,0,1-.78-.55,2.62,2.62,0,0,1-.51-.86,3,3,0,0,1-.19-1.11,2.93,2.93,0,0,1,.21-1.16,2.19,2.19,0,0,1,.57-.81,2.08,2.08,0,0,1,.81-.48,2.75,2.75,0,0,1,1-.16,2.82,2.82,0,0,1,1,.17,2.43,2.43,0,0,1,.82.46l-.46.76a2,2,0,0,0-.63-.38,2.18,2.18,0,0,0-.72-.13,1.85,1.85,0,0,0-.67.12,1.54,1.54,0,0,0-.52.35,1.77,1.77,0,0,0-.35.56,2.19,2.19,0,0,0-.12.75,2.35,2.35,0,0,0,.11.71,1.47,1.47,0,0,0,.32.56,1.38,1.38,0,0,0,.49.37,1.53,1.53,0,0,0,.66.13,1.5,1.5,0,0,0,.58-.1,1.51,1.51,0,0,0,.45-.29,1.51,1.51,0,0,0,.29-.45,1.81,1.81,0,0,0,.12-.58h-1.3v-.73Z" transform="translate(643.43 -366.9)"></path><polyline class="e99ae80f-b830-4f6e-a631-27e0dfe27f18" points="93.19 32.53 93.19 36.52 156.22 36.52 156.22 32.65"></polyline></svg>