<svg xmlns="http://www.w3.org/2000/svg" xmlns:xlink="http://www.w3.org/1999/xlink" xmlns:xodm="http://www.corel.com/coreldraw/odm/2003" xml:space="preserve" width="205px" height="205px" style="shape-rendering:geometricPrecision; text-rendering:geometricPrecision; image-rendering:optimizeQuality; fill-rule:evenodd; clip-rule:evenodd" viewBox="0 0 40.4 40.4"> <defs>  <style type="text/css">   <![CDATA[    .str0 {stroke:#C3A243;stroke-width:1.51;stroke-miterlimit:22.9256}    .str4 {stroke:#C3A243;stroke-width:0.46;stroke-miterlimit:143.241}    .str2 {stroke:#C3A243;stroke-width:0.46;stroke-miterlimit:143.241}    .str3 {stroke:#C3A243;stroke-width:0.46;stroke-miterlimit:143.241}    .str1 {stroke:#C3A243;stroke-width:1.28;stroke-linecap:round;stroke-linejoin:round;stroke-miterlimit:143.241}    .fil0 {fill:none}    .fil1 {fill:#C3A243}    .fil2 {fill:#C3A243;fill-rule:nonzero}   ]]>  </style> </defs> <g id="Layer_x0020_1">  <metadata id="CorelCorpID_0Corel-Layer"></metadata>  <g id="_105553603423776">   <circle class="fil0 str0" cx="20.2" cy="20.2" r="19.45"></circle>   <polyline class="fil0 str1" points="27.12,19.34 28.79,19.34 31.5,29.74 8.9,29.74 12.08,19.34 13.61,19.34 "></polyline>   <path class="fil1 str2" d="M20.38 8.3c-3.38,0 -6.12,2.74 -6.12,6.12 0,5.65 4.77,8.99 6.12,9.83 1.36,-0.84 6.12,-4.17 6.12,-9.83 0,-3.38 -2.74,-6.12 -6.12,-6.12zm0 16.83c0,0 -6.89,-3.6 -6.89,-10.71 0,-3.8 3.09,-6.89 6.89,-6.89 3.8,0 6.89,3.09 6.89,6.89 0,7.11 -6.89,10.71 -6.89,10.71z"></path>   <path class="fil2 str3" d="M21.87 13.22c-0.26,-0.15 -0.59,-0.05 -0.74,0.21l-1.01 1.82 -0.58 -0.58c-0.22,-0.21 -0.56,-0.21 -0.77,0 -0.22,0.22 -0.22,0.56 0,0.78l1.09 1.09c0.1,0.1 0.24,0.16 0.38,0.16 0.03,0 0.05,0 0.08,-0.01 0.17,-0.02 0.32,-0.12 0.4,-0.27l1.37 -2.46c0.14,-0.26 0.05,-0.6 -0.22,-0.74z"></path>   <path class="fil1 str4" d="M20.38 11.86c-1.71,0 -3.1,1.39 -3.1,3.1 0,1.71 1.39,3.09 3.1,3.09 1.71,0 3.1,-1.38 3.1,-3.09 0,-1.71 -1.39,-3.1 -3.1,-3.1zm0 7.08c-2.2,0 -3.98,-1.79 -3.98,-3.98 0,-2.2 1.78,-3.98 3.98,-3.98 2.2,0 3.98,1.78 3.98,3.98 0,2.19 -1.78,3.98 -3.98,3.98z"></path>  </g> </g></svg>