<svg xmlns="http://www.w3.org/2000/svg" xmlns:xlink="http://www.w3.org/1999/xlink" id="Layer_1" x="0px" y="0px" viewBox="0 0 500 500" style="enable-background:new 0 0 500 500;" xml:space="preserve"><style type="text/css">	.st0{fill:#C6A444;}	.st1{fill:#FFFFFF;}</style><circle class="st0" cx="250" cy="250" r="250"></circle><g>	<path class="st1" d="M443.99,300.2c0.21,10.55-1.71,20.55-5.62,30.09c-4.23,10.32-10.11,19.65-18.43,27.23  c-3.74,3.4-7.57,6.75-11.68,9.66c-3.2,2.27-6.88,3.89-10.41,5.67c-2.52,1.27-5.11,2.42-7.73,3.44c-1.32,0.51-2.81,0.6-4.22,0.9  c-4,0.85-7.98,1.85-12.02,2.53c-7.1,1.19-14.22,1.06-21.3-0.21c-4.44-0.79-8.88-1.64-13.26-2.73c-2.31-0.57-4.55-1.57-6.7-2.62  c-3.57-1.74-7.22-3.41-10.5-5.6c-4.55-3.03-9.16-6.14-13.07-9.9c-4.37-4.2-8.25-8.99-11.86-13.88c-3.31-4.49-5.74-9.55-7.77-14.8  c-3.27-8.44-4.93-17.28-6.97-26.04c-1.6-6.87-3.51-13.67-5.23-20.51c-0.84-3.34-1.59-6.7-2.39-10.05  c-0.56-2.37-1.27-2.94-3.69-3.27c-12.28-1.66-24.6-1.46-36.92-0.68c-1.98,0.13-3.95,0.47-5.92,0.75c-1.38,0.19-2.35,0.89-2.7,2.31  c-1.45,5.79-2.91,11.59-4.38,17.38c-1.11,4.38-2.27,8.76-3.34,13.15c-1.13,4.64-2.07,9.32-3.29,13.94  c-1.08,4.07-2.38,8.08-3.71,12.08c-0.83,2.5-1.69,5.03-2.87,7.37c-1.49,2.95-3.07,5.92-5.09,8.52c-3.59,4.61-7.32,9.16-11.4,13.33  c-4.04,4.13-8.56,7.78-13.76,10.47c-3.47,1.8-6.82,3.87-10.39,5.44c-2.89,1.27-5.98,2.15-9.06,2.92  c-4.09,1.03-8.21,1.99-12.37,2.65c-7.16,1.14-14.35,1.09-21.49-0.22c-4.5-0.83-9.09-1.51-13.4-2.97  c-5.51-1.87-10.97-4.08-15.83-7.42c-3.32-2.28-6.76-4.42-9.9-6.92c-5.5-4.38-10.21-9.53-14.37-15.23  c-5.01-6.85-8.77-14.32-11.29-22.38c-3.47-11.11-4.37-22.47-3.07-34.06c0.82-7.34,2.66-14.39,5.51-21.13  c1.87-4.42,4.32-8.6,6.67-12.81c2.62-4.68,5.38-9.28,8.14-13.88c2.6-4.33,5.31-8.6,7.9-12.94c2.59-4.34,5.07-8.74,7.64-13.09  c1.56-2.65,3.19-5.24,4.76-7.89c2.02-3.41,3.98-6.86,5.99-10.27c1.62-2.74,3.22-5.51,4.97-8.17c3.34-5.09,6.57-10.27,10.24-15.12  c3.32-4.39,7.44-8.13,12.2-10.95c4.76-2.82,9.69-5.38,14.55-8.04c0.21-0.12,0.44-0.27,0.66-0.28c4.65-0.12,5.9-3.93,7.84-7.08  c3.45-5.59,6.74-11.31,10.63-16.58c3.33-4.52,8.09-7.49,13.25-9.82c8.53-3.85,17.33-3.78,26.03-1.36c5.77,1.61,11,4.79,15.16,9.23  c8.51,9.08,12.21,19.77,10.1,32.22c-1,5.89-2.18,11.76-3.05,17.67c-0.2,1.37,0.22,3.08,0.95,4.28c4.01,6.64,6.82,13.7,8.15,21.34  c0.38,2.16,1.25,2.79,3.49,2.79c7.78-0.03,15.56-0.04,23.35,0c2.35,0.01,3.4-0.73,3.65-3.04c0.51-4.56,2.07-8.79,3.99-12.9  c1.32-2.84,2.96-5.54,4.14-8.43c0.58-1.43,0.8-3.21,0.59-4.74c-0.79-5.68-1.63-11.37-2.81-16.98c-1.34-6.34-0.57-12.57,1.47-18.41  c2.53-7.26,7.01-13.5,13.52-17.9c9.16-6.19,19.24-8.18,30.04-5.75c11.37,2.55,19.43,9.43,24.99,19.52  c2.44,4.43,5.13,8.73,7.77,13.06c0.99,1.62,2.47,2.35,4.4,2.81c2.35,0.56,4.57,1.79,6.78,2.86c5.51,2.68,10.79,5.83,15.18,10.08  c3.88,3.76,7.54,7.86,10.66,12.26c3.89,5.5,7.16,11.45,10.64,17.24c1.76,2.94,3.32,6.01,5.09,8.95c1.73,2.89,3.66,5.65,5.41,8.53  c1.84,3.03,3.55,6.15,5.36,9.2c2.58,4.35,5.22,8.66,7.82,13c1.67,2.79,3.3,5.6,4.96,8.4c1.91,3.21,3.81,6.43,5.76,9.62  c4,6.57,7.44,13.4,9.68,20.78C443.06,284.47,444.11,292.36,443.99,300.2z M362.98,366.18c4.25-0.32,7.23-0.36,10.14-0.81  c6.16-0.93,12.12-2.56,17.8-5.22c5.77-2.7,11.28-5.82,15.88-10.24c3.25-3.12,6.2-6.55,9.22-9.91c4.56-5.06,7.51-11.14,9.83-17.39  c1.85-4.99,2.88-10.3,3.48-15.69c1.14-10.08-0.14-19.9-3.59-29.26c-2.27-6.15-5.9-11.82-9.11-17.6c-2.28-4.1-4.92-8-7.33-12.04  c-3.33-5.58-6.56-11.22-9.89-16.79c-3.55-5.95-7.17-11.86-10.75-17.79c-1.93-3.19-3.85-6.39-5.75-9.59  c-1.84-3.11-3.6-6.27-5.49-9.35c-1.6-2.61-3.11-5.32-5.04-7.68c-5.01-6.11-10.6-11.59-18.15-14.58c-3.51-1.39-7.01-2.82-10.52-4.2  c-2.34-0.92-4.35-2.02-5.5-4.57c-1.31-2.89-3.14-5.54-4.78-8.28c-1.95-3.25-4.14-6.37-5.84-9.74c-1.7-3.37-4.2-5.98-7.25-7.89  c-4.59-2.88-9.69-4.13-15.22-3.61c-8.76,0.82-16.67,8.23-18.91,15.65c-1.35,4.47-1.06,8.97-0.3,13.48c1,5.96,2.02,11.91,3.1,17.86  c0.55,3.03,0.41,5.75-1.6,8.39c-1.81,2.39-3.33,5.07-4.55,7.81c-2.81,6.35-4.32,13.11-4.57,20.02c-0.16,4.46-4.18,7.17-8.05,6.87  c-5.3-0.4-10.59-0.98-15.89-1.13c-8.22-0.24-16.42-0.1-24.59,1.14c-3.65,0.55-7.79-2.28-7.94-6.39c-0.07-1.87-0.43-3.72-0.63-5.58  c-0.87-8.22-3.8-15.71-8.39-22.51c-1.64-2.43-2.37-4.74-1.86-7.63c1.26-7.02,2.39-14.06,3.53-21.1c1.42-8.84-1.16-16.29-8.12-21.99  c-1.84-1.5-4.03-2.72-6.25-3.58c-4.88-1.87-9.85-1.87-14.9-0.25c-5.58,1.79-9.69,5.23-12.61,10.21c-1.74,2.96-3.41,5.96-5.16,8.92  c-1.93,3.26-3.94,6.47-5.86,9.74c-1.15,1.95-2.73,3.32-4.85,4.11c-3.76,1.41-7.53,2.79-11.24,4.34c-4.5,1.88-8.32,4.81-11.92,8.08  c-4.51,4.11-8,8.97-11.03,14.22c-2.16,3.75-4.47,7.42-6.68,11.13c-2.71,4.55-5.4,9.12-8.09,13.68c-2.6,4.41-5.2,8.83-7.8,13.25  c-1.59,2.7-3.14,5.41-4.76,8.09c-1.93,3.19-3.95,6.34-5.87,9.54c-1.82,3.05-3.55,6.15-5.34,9.22c-2.48,4.27-5.19,8.42-7.4,12.82  c-2.91,5.8-4.63,12.04-5.51,18.49c-1.21,8.78-0.88,17.49,1.58,26.04c0.9,3.11,1.89,6.23,3.21,9.19c1.59,3.56,3.18,7.22,5.45,10.35  c3.03,4.17,6.53,8.03,10.15,11.71c4.77,4.84,10.35,8.6,16.54,11.5c6.74,3.16,13.77,5.2,21.15,5.94c9.24,0.93,18.3,0.06,27.17-2.89  c6.48-2.15,12.49-5.14,18-9.1c4.96-3.57,9.24-7.83,13.18-12.57c4.22-5.08,7.52-10.67,9.88-16.68c2.22-5.64,3.42-11.69,4.91-17.6  c2.1-8.31,4.06-16.65,6.07-24.97c0.85-3.51,1.69-7.03,2.54-10.55c0.73-3.05,1.41-6.11,2.24-9.14c0.23-0.83,0.85-1.58,1.4-2.28  c1.49-1.94,3.81-2.27,5.96-2.75c8.94-1.99,18.05-2.58,27.17-2.86c3.97-0.12,7.96,0.3,11.94,0.41c7.77,0.21,15.41,1.26,22.91,3.29  c2.5,0.68,4.09,2.39,4.72,5c1.07,4.45,2.3,8.87,3.36,13.32c1.1,4.63,2.02,9.31,3.12,13.94c1.7,7.16,3.55,14.29,5.22,21.46  c1.43,6.13,3.24,12.12,5.99,17.8c0.73,1.51,1.39,3.09,2.35,4.46c1.85,2.66,3.94,5.15,5.84,7.79c3.4,4.72,7.81,8.39,12.43,11.78  c3.98,2.92,8.2,5.49,12.89,7.18c3.23,1.16,6.36,2.8,9.69,3.47C353.4,365.2,358.83,365.64,362.98,366.18z"></path>	<path class="st1" d="M309.92,300.27c-0.28-30.1,24.82-54.6,54.84-54.06c30.19,0.55,53.63,24.8,53.34,54.7  c-0.29,29.47-24.43,54.32-56.04,53.36C333.8,353.43,309.69,330.12,309.92,300.27z M364.03,339.85  c21.62,0.28,39.52-17.95,39.63-39.4c0.11-21.82-17.85-39.53-38.79-39.92c-22.36-0.42-42.05,18.5-40.64,42.11  C325.38,321.92,341.67,340.03,364.03,339.85z"></path>	<path class="st1" d="M190.23,300.82c-0.24,29.6-24.56,53.96-55.04,53.46c-29.7-0.48-53.29-24.42-53.19-54.22  c0.1-30.07,24.34-54.14,54.79-53.85C166.42,246.5,190.53,270.82,190.23,300.82z M136.11,339.85c21.22,0.51,40.78-18.12,39.79-41.38  c-0.82-19.38-17.68-38.88-41.74-37.92c-19.95,0.8-37.47,17.77-37.76,39.31C96.11,321.59,114.47,340.3,136.11,339.85z"></path></g></svg>