<svg xmlns="http://www.w3.org/2000/svg" xml:space="preserve" width="126px" height="60px" version="1.1" viewBox="0 0 25.22 12.05">
  <style type="text/css">
    .fil0 {fill:none}
    .fil1 {fill:#C9AE62;fill-rule:nonzero}
  </style>
 <g id="Layer_x0020_1">
  <metadata id="CorelCorpID_0Corel-Layer"/>
  <g id="_11898882592">
   <rect class="fil0" width="25.22" height="12.05"/>
   <path class="fil1" d="M8.06 5.36c0.04,0.1 0.06,0.21 0.09,0.34 0.02,0.14 0.03,0.31 0.03,0.52 0,0.61 -0.1,1.15 -0.31,1.61 -0.21,0.46 -0.49,0.84 -0.84,1.15 -0.36,0.3 -0.78,0.53 -1.25,0.69 -0.48,0.15 -0.99,0.23 -1.53,0.23 -0.61,0 -1.17,-0.1 -1.69,-0.28 -0.52,-0.19 -0.97,-0.46 -1.35,-0.8 -0.38,-0.35 -0.68,-0.76 -0.89,-1.25 -0.21,-0.48 -0.32,-1.02 -0.32,-1.62 0,-0.64 0.12,-1.2 0.37,-1.68 0.24,-0.48 0.56,-0.87 0.97,-1.19 0.4,-0.31 0.87,-0.54 1.4,-0.7 0.53,-0.15 1.08,-0.23 1.64,-0.23 0.61,0 1.19,0.08 1.74,0.25 0.55,0.16 1.03,0.39 1.44,0.67l-1.07 1.6c-0.25,-0.21 -0.56,-0.38 -0.91,-0.49 -0.35,-0.12 -0.73,-0.18 -1.15,-0.18 -0.37,0 -0.7,0.05 -1,0.15 -0.3,0.09 -0.56,0.23 -0.77,0.41 -0.21,0.19 -0.37,0.4 -0.48,0.66 -0.12,0.25 -0.18,0.53 -0.18,0.83 0,0.28 0.05,0.54 0.15,0.78 0.1,0.24 0.25,0.46 0.45,0.64 0.19,0.18 0.44,0.32 0.73,0.43 0.28,0.1 0.62,0.15 0.99,0.15 0.52,0 0.96,-0.1 1.31,-0.3 0.36,-0.21 0.59,-0.5 0.69,-0.89l-1.79 0 0 -1.5 3.53 0zm4.59 -3.11c0.73,0 1.35,0.11 1.86,0.33 0.51,0.21 0.93,0.5 1.24,0.85 0.32,0.35 0.56,0.75 0.71,1.2 0.14,0.45 0.22,0.91 0.22,1.38 0,0.45 -0.07,0.91 -0.22,1.36 -0.14,0.45 -0.37,0.85 -0.68,1.22 -0.32,0.36 -0.73,0.65 -1.24,0.87 -0.52,0.23 -1.15,0.34 -1.89,0.34l-3.1 0 0 -7.55 3.1 0zm-1.09 5.7l1.15 0c0.68,0 1.18,-0.17 1.49,-0.52 0.32,-0.36 0.47,-0.82 0.47,-1.4 0,-0.29 -0.03,-0.55 -0.11,-0.79 -0.08,-0.24 -0.19,-0.44 -0.35,-0.61 -0.16,-0.16 -0.36,-0.29 -0.61,-0.39 -0.25,-0.09 -0.55,-0.13 -0.89,-0.13l-1.15 0 0 3.84zm9.66 -5.8l4 7.65 -2.19 0 -0.47 -0.97 -2.94 0 -0.49 0.97 -2.1 0 4.02 -7.65 0.17 0zm-0.12 3.71l-0.82 1.64 1.63 0 -0.81 -1.64z"/>
  </g>
 </g>
</svg>
