<svg xmlns="http://www.w3.org/2000/svg" xml:space="preserve" width="125px" height="60px" version="1.1" viewBox="0 0 14.69 7.06">
  <style type="text/css">
    .fil0 {fill:none}
    .fil1 {fill:#C9AE62}
  </style>
 <g id="Layer_x0020_1">
  <metadata id="CorelCorpID_0Corel-Layer"/>
  <g id="_11676625808">
   <rect class="fil0" y="0.02" width="14.69" height="7.02"/>
   <path class="fil1" d="M7.52 1.49l0.01 0 1.64 1.57 0 0.33 -1.65 -1.44 -2 1.44 0 -0.33 2 -1.57 0 0zm-0.17 -1.49c0.97,0 1.85,0.4 2.49,1.03 0.64,0.64 1.04,1.53 1.04,2.5 0,0.98 -0.4,1.86 -1.04,2.5 -0.64,0.64 -1.52,1.03 -2.49,1.03 -0.98,0 -1.86,-0.39 -2.5,-1.03 -0.64,-0.64 -1.04,-1.52 -1.04,-2.5 0,-0.97 0.4,-1.86 1.04,-2.5 0.64,-0.63 1.52,-1.03 2.5,-1.03zm2.31 1.21c-0.59,-0.59 -1.41,-0.96 -2.31,-0.96 -0.91,0 -1.73,0.37 -2.32,0.96 -0.59,0.6 -0.96,1.42 -0.96,2.32 0,0.91 0.37,1.72 0.96,2.32 0.31,0.31 0.68,0.55 1.09,0.72l1.4 -0.09 1.07 0.08c0.4,-0.16 0.77,-0.41 1.07,-0.71 0.59,-0.6 0.96,-1.41 0.96,-2.32 0,-0.9 -0.37,-1.72 -0.96,-2.32zm0.3 4.08c-0.05,0.07 -0.11,0.14 -0.17,0.22l-0.61 -0.34 0 -0.34 0.78 0.46zm-0.38 0.45c-0.07,0.08 -0.16,0.16 -0.24,0.23l-0.16 -0.07 0 -0.36 0.4 0.2zm-4.24 0.19l0.18 -0.07 0 0.33 2 -0.31 1.65 0.31 0 -0.33 -1.65 -0.44 -2 0.44 0 -0.3 -0.41 0.16c0.08,0.07 0.15,0.14 0.23,0.21zm-0.46 -0.47c-0.06,-0.08 -0.11,-0.16 -0.17,-0.24l0.81 -0.4 0 0.36 -0.64 0.28zm-0.31 -0.49c-0.04,-0.08 -0.08,-0.16 -0.11,-0.24l1.06 -0.62 0 0.34 -0.95 0.52zm0.95 -1.22l0 0.33 2 -1.13 1.65 1.13 0 -0.33 -1.65 -1.26 -2 1.26zm0 0.72l0 0.33 2 -0.86 1.65 0.86 0 -0.33 -1.65 -1 -2 1zm0 0.74l0 0.33 2 -0.63 1.65 0.63 0 -0.33 -1.65 -0.77 -2 0.77z"/>
  </g>
 </g>
</svg>
