<?xml version="1.0" encoding="UTF-8"?>
<!DOCTYPE svg PUBLIC "-//W3C//DTD SVG 1.1//EN" "http://www.w3.org/Graphics/SVG/1.1/DTD/svg11.dtd">
<!-- Creator: CorelDRAW -->
<svg xmlns="http://www.w3.org/2000/svg" xml:space="preserve" width="611px" height="376px" version="1.1" style="shape-rendering:geometricPrecision; text-rendering:geometricPrecision; image-rendering:optimizeQuality; fill-rule:evenodd; clip-rule:evenodd"
viewBox="0 0 609.32 374.95"
 xmlns:xlink="http://www.w3.org/1999/xlink"
 xmlns:xodm="http://www.corel.com/coreldraw/odm/2003">
 <defs>
  <style type="text/css">
   <![CDATA[
    .fil1 {fill:#C9AE62}
    .fil0 {fill:#C9AE62;fill-rule:nonzero}
   ]]>
  </style>
 </defs>
 <g id="Layer_x0020_1">
  <metadata id="CorelCorpID_0Corel-Layer"/>
  <g id="_105553261069376">
   <path class="fil0" d="M425.07 339.17l-8.56 0 0 11.71 8.56 0c1.82,0 3.14,-0.61 3.99,-1.51 1.02,-1.09 1.5,-2.66 1.5,-4.35 0,-1.75 -0.48,-3.25 -1.5,-4.34 -0.85,-0.9 -2.17,-1.51 -3.99,-1.51zm-15.92 34.39l0 -41.63 16.77 0c3.8,0 6.63,1.33 8.62,3.38 2.24,2.35 3.26,5.67 3.26,9.11 0,2.53 -0.6,5.07 -1.81,7.12 -1.02,1.63 -2.41,3.02 -4.28,3.98l10.68 18.89 -8.21 0 -9.65 -17.62 -8.02 0 0 17.62 -7.37 0 0 -0.85 0.01 0zm-24.25 -15.39l-5.13 -12.18 -5.19 12.18 10.32 0zm-24.32 15.09l18.4 -41.81 1.81 0c6.28,14.3 12.55,28.66 18.89,42.96l-7.97 0 -4.4 -10.56 -15.08 0 -4.47 10.56 -7.72 0 0.55 -1.15 -0.01 0zm-26.6 -34.09l-6.88 0 0 27.99 6.88 0c4.16,0 7.12,-1.32 9.11,-3.56 2.23,-2.53 3.26,-6.27 3.26,-10.44 0,-4.16 -0.97,-7.9 -3.26,-10.43 -1.93,-2.24 -4.95,-3.56 -9.11,-3.56l0 0zm-14.24 34.39l0 -41.63 13.94 0c6.63,0 11.34,2.24 14.54,5.61 3.8,4.05 5.43,9.84 5.43,15.51 0,5.61 -1.63,11.52 -5.49,15.69 -3.14,3.44 -7.84,5.67 -14.48,5.67l-13.94 0 0 -0.85 0 0zm-24.25 -15.39l-5.13 -12.18 -5.19 12.18 10.32 0zm-24.37 15.09l18.4 -41.81 1.86 0c6.28,14.3 12.55,28.66 18.83,42.96l-7.91 0 -4.4 -10.56 -15.08 0 -4.53 10.56 -7.66 0 0.48 -1.15 0.01 0zm-45.07 1.08l-13.51 -42.41 7.6 0 7.96 26.12 11.58 -26.6 1.75 0 10.74 26.6 8.57 -26.12 7.3 0c-4.77,14.36 -9.53,28.66 -14.3,43.02l-1.87 0 -11.58 -28.96 -12.25 28.96 -1.81 0 -0.18 -0.61 0 0zm-38.67 -19.18l0 -5.43 17.55 0 0.18 0.66c0.13,0.54 0.25,1.15 0.31,1.87 0.06,0.66 0.12,1.45 0.12,2.36 0,6.03 -1.87,11.1 -5.13,14.65 -3.32,3.62 -8.02,5.68 -13.57,5.68 -5.79,0 -10.86,-2.3 -14.42,-6.28 -3.44,-3.86 -5.55,-9.29 -5.55,-15.87 0,-6.75 2.17,-11.88 5.61,-15.38 3.86,-4.04 9.29,-5.97 15.02,-5.97 2.78,0 5.55,0.42 8.02,1.33 2.6,0.9 4.95,2.17 6.88,3.8l0.61 0.48 -3.81 6.15 -0.72 -0.6c-3.2,-2.66 -6.94,-3.99 -10.8,-3.99 -3.92,0 -7.42,1.39 -9.83,3.99 -2.29,2.41 -3.68,5.97 -3.68,10.49 0,4.4 1.27,8.09 3.56,10.62 2.23,2.53 5.43,3.98 9.23,3.98 3.62,0 6.52,-1.26 8.5,-3.37 1.94,-2.06 3.08,-4.95 3.26,-8.33l-11.34 0 0 -0.85 0 0.01z"/>
   <path class="fil0" d="M396.48 284.87l-16.6 -22.01 8.45 0 11.83 15.8 11.88 -15.8 8.2 0 -16.46 21.89 0 20.52 -7.3 0 0 -20.39 0 -0.01zm-40.84 4.17l-5.13 -12.19 -5.19 12.19 10.32 0zm-24.32 15.08l18.4 -41.81 1.81 0c6.28,14.3 12.55,28.66 18.89,42.96l-7.91 0 -4.46 -10.56 -15.08 0 -4.47 10.56 -7.72 0 0.54 -1.15zm-54.05 1.09l-13.51 -42.35 7.6 0 7.96 26.06 11.58 -26.61 1.75 0 10.8 26.67 8.51 -26.12 7.3 0c-4.77,14.29 -9.54,28.65 -14.3,42.95l-1.87 0 -11.52 -28.96 -12.31 28.96 -1.75 0 -0.24 -0.6zm-48.93 -35.18l-6.87 0 0 28.06 6.87 0c4.17,0 7.18,-1.39 9.11,-3.62 2.3,-2.53 3.32,-6.28 3.32,-10.44 0,-4.16 -1.02,-7.9 -3.25,-10.43 -1.99,-2.24 -4.95,-3.57 -9.17,-3.57l-0.01 0zm-14.18 34.39l0 -41.56 13.94 0c6.57,0 11.28,2.17 14.48,5.55 3.86,4.1 5.43,9.83 5.43,15.5 0,5.61 -1.57,11.53 -5.43,15.69 -3.2,3.44 -7.91,5.67 -14.48,5.67l-13.94 0 0 -0.85zm-33.23 -15.38l-5.13 -12.19 -5.19 12.19 10.32 0zm-24.32 15.08l18.4 -41.81 1.81 0c6.28,14.3 12.55,28.66 18.89,42.96l-7.91 0 -4.46 -10.56 -15.09 0 -4.46 10.56 -7.72 0 0.54 -1.15zm-26.66 -30.64c-2.11,-2.48 -5.13,-3.99 -8.87,-3.99 -3.74,0 -6.76,1.51 -8.87,3.99 -2.24,2.59 -3.44,6.33 -3.44,10.55 0,4.23 1.2,7.96 3.49,10.62 2.11,2.48 5.13,3.92 8.87,3.92 3.68,0 6.7,-1.44 8.81,-3.92 2.24,-2.59 3.5,-6.33 3.5,-10.56 0,-4.28 -1.27,-7.96 -3.5,-10.61l0.01 0zm-22.87 -5.14c3.32,-3.68 8.03,-6.03 14,-6.03 5.91,0 10.68,2.36 14,6.1 3.68,4.1 5.61,9.83 5.61,15.68 0,5.79 -1.93,11.52 -5.67,15.63 -3.32,3.68 -8.03,6.09 -14,6.09 -5.97,0 -10.68,-2.41 -13.93,-6.09 -3.68,-4.11 -5.62,-9.9 -5.62,-15.69 0,-5.85 1.94,-11.58 5.62,-15.68l-0.01 -0.01zm-39.51 1.69l-8.63 0 0 11.71 8.63 0c1.81,0 3.07,-0.6 3.98,-1.51 0.97,-1.08 1.45,-2.65 1.45,-4.34 0,-1.69 -0.48,-3.26 -1.45,-4.35 -0.9,-0.9 -2.17,-1.51 -3.98,-1.51zm-15.93 34.39l0 -41.56 16.71 0c3.8,0 6.7,1.26 8.63,3.32 2.23,2.35 3.32,5.67 3.32,9.11 0,2.53 -0.61,5.07 -1.87,7.11 -0.97,1.69 -2.42,3.08 -4.23,3.99l10.68 18.88 -8.2 0 -9.66 -17.61 -8.08 0 0 17.61 -7.3 0 0 -0.84 0 -0.01zm-34.14 -34.39l-10.2 0 0 10.2 11.22 0c1.45,0 2.59,-0.48 3.32,-1.27 0.78,-0.78 1.21,-1.99 1.21,-3.44 0,-1.63 -0.49,-3.07 -1.51,-4.04 -0.91,-0.9 -2.24,-1.45 -4.04,-1.45zm1.32 15.57l-11.52 0 0 12.49 11.04 0c1.81,0 3.19,-0.66 4.16,-1.69 1.08,-1.15 1.63,-2.78 1.63,-4.59 0,-1.81 -0.55,-3.37 -1.51,-4.52 -0.97,-1.03 -2.23,-1.69 -3.8,-1.69l0 0zm-18.82 18.82l0 -41.56 17.92 0c3.98,0 6.82,1.2 8.81,3.07 2.35,2.24 3.38,5.37 3.38,8.63 0,2.11 -0.49,3.86 -1.21,5.31 -0.66,1.14 -1.51,2.11 -2.53,2.83 1.32,0.91 2.53,2.17 3.37,3.74 1.03,1.69 1.63,3.8 1.63,6.28 0,3.44 -1.2,6.75 -3.5,9.11 -2.05,2.11 -5,3.44 -8.8,3.44l-19.07 0 0 -0.85 0 0z"/>
   <path class="fil0" d="M585.55 284.87l-16.65 -22.01 8.44 0 11.83 15.8 11.94 -15.8 8.21 0 -16.47 21.89 0 20.52 -7.3 0 0 -20.39 0 -0.01zm-60.87 -15.68l0 -6.33 31.07 0 0 7.17 -11.89 0 0 35.24 -7.3 0 0 -35.24 -11.88 0 0 -0.84 0 0zm-24.56 35.23l0 -41.56 7.36 0 0 42.41 -7.36 0 0 -0.85zm-25.7 -40.6c2.72,1.03 5.13,2.53 7.12,4.4l0.54 0.48 -4.46 5.86 -0.66 -0.55c-1.51,-1.32 -3.14,-2.47 -4.95,-3.25 -1.75,-0.79 -3.74,-1.27 -5.97,-1.27 -3.74,0 -7.06,1.39 -9.35,3.92 -2.18,2.41 -3.5,5.97 -3.5,10.5 0,4.58 1.32,8.2 3.5,10.67 2.29,2.6 5.61,3.99 9.29,3.99 2.23,0 4.46,-0.48 6.33,-1.57 1.75,-1.02 3.2,-2.48 4.16,-4.4l0.42 -0.91 5.49 4.47 -0.3 0.6c-1.51,2.96 -3.8,5.19 -6.45,6.64 -2.9,1.63 -6.28,2.41 -9.66,2.41 -5.85,0 -10.92,-2.23 -14.54,-6.21 -3.5,-3.86 -5.55,-9.29 -5.55,-15.81 0,-6.51 2.05,-11.82 5.55,-15.5 3.62,-3.86 8.75,-5.98 14.66,-5.98 3.02,0 5.79,0.55 8.33,1.51l0 0z"/>
   <path class="fil1" d="M400.16 202.4l0 -49.1 35.59 -35.54 -35.59 -35.53 0 -47.96 -24.5 0 0 0 -23.46 0 -32.46 -32.46 -1.81 -1.81 -12.73 12.73 -10.92 -10.92 -1.81 -1.81 -34.27 34.27 -24.61 0 0 0 -24.49 0 0 49.1 -35.54 35.54 35.54 35.53 0 47.96 24.49 0 0 0 23.47 0 34.27 34.27 12.73 -12.73 12.79 12.73 34.2 -34.27 24.61 0 0 0 24.5 0zm0 -56.28l0 -18.28 10.07 -10.08 -10.07 -10.07 0 -18.22 28.35 28.29 -28.35 28.36zm-55.2 -111.85l-18.22 0 -17.92 -17.92 9.11 -9.11 27.03 27.03 0 0zm-37.28 186.05l17.91 -17.92 18.28 0 -27.02 27.09 -9.17 -9.17 0 0zm49.64 -180.92l13.21 13.21 0 -13.21 -13.21 0zm18.34 18.34l19.43 19.42 0 -37.82 -19.43 0 0 18.4zm19.43 100.69l-19.43 19.42 0 19.49 19.43 0 0 -38.91zm-24.55 24.55l-14.36 14.3 14.36 0 0 -14.3zm-70.04 37.34l-17.92 -17.92 -18.28 0 27.02 27.09 9.17 -9.17 0.01 0zm-23.05 -23.04l-38.73 -38.67 0 18.28 20.45 20.39 18.28 0zm-43.86 -43.8l-19.36 -19.43 0 18.28 19.36 19.43 0 -18.28zm-24.49 -24.5l-10.08 -10.07 10.08 -10.08 0 -18.28 -28.29 28.36 28.29 28.29 0 -18.22zm5.13 -25.21l19.36 -19.43 0 -18.28 -19.36 19.43 0 18.28zm24.49 -24.56l39.82 -39.81 -18.22 0 -21.6 21.54 0 18.27zm44.94 -44.94l17.92 -17.92 -9.11 -9.11 -27.02 27.03 18.21 0 0 0zm111.43 50.07l-19.43 -19.42 0 18.27 19.43 19.43 0 -18.28zm-24.55 -24.49l-20.45 -20.45 -18.22 0 38.67 38.67 0 -18.22zm-65.34 -39.88l-14.3 14.3 28.6 0 -14.3 -14.3 0 0zm-19.42 19.43l-47.06 47.06 0 64.91 45.97 45.91 38.79 0 47.06 -46.99 0 -64.98 -45.91 -45.91 -38.85 0 0 0zm-52.19 52.12l-19.36 19.43 0 15.92 19.36 19.37 0 -54.72zm-24.49 24.56l-2.84 2.83 2.84 2.84 0 -5.67zm80.72 86.32l14.24 14.3 14.29 -14.3 -28.53 0zm59.18 -5.12l21.54 -21.54 0 -18.28 -39.82 39.82 18.28 0zm26.66 -26.67l19.43 -19.42 0 -18.28 -19.43 19.42 0 18.28zm24.5 -50.01l0 -5.67 2.9 2.83 -2.9 2.84zm-148.17 76.68l-13.27 -13.21 0 13.21 13.27 0zm-18.4 -18.34l-19.36 -19.43 0 37.83 19.36 0 0 -18.4zm-19.36 -100.69l19.36 -19.43 0 -19.48 -19.36 0 0 38.91zm24.49 -24.49l14.36 -14.36 -14.36 0 0 14.36zm156.37 56.1l-19.43 -19.43 0 54.72 19.43 -19.42 0 -15.87 0 0z"/>
  </g>
 </g>
</svg>
