<?xml version="1.0" encoding="UTF-8"?>
<!DOCTYPE svg PUBLIC "-//W3C//DTD SVG 1.1//EN" "http://www.w3.org/Graphics/SVG/1.1/DTD/svg11.dtd">
<!-- Creator: CorelDRAW -->
<svg xmlns="http://www.w3.org/2000/svg" xml:space="preserve" width="20px" height="20px" version="1.1" style="shape-rendering:geometricPrecision; text-rendering:geometricPrecision; image-rendering:optimizeQuality; fill-rule:evenodd; clip-rule:evenodd"
viewBox="0 0 0.49 0.49"
 xmlns:xlink="http://www.w3.org/1999/xlink"
 xmlns:xodm="http://www.corel.com/coreldraw/odm/2003">
 <defs>
  <style type="text/css">
   <![CDATA[
    .fil0 {fill:#C9AE62}
    .fil1 {fill:white;fill-rule:nonzero}
   ]]>
  </style>
 </defs>
 <g id="Layer_x0020_1">
  <metadata id="CorelCorpID_0Corel-Layer"/>
  <g id="_6222383664">
   <circle class="fil0" cx="0.24" cy="0.24" r="0.24"/>
   <path id="_3994355_arrow_bottom_down_downward_navigation_icon.svg" class="fil1" d="M0.35 0.17c0,0 0,0 -0.01,0 0,0 -0.01,0 -0.01,0l-0.09 0.1 -0.08 -0.1c0,0 -0.01,0 -0.01,0 -0.01,0 -0.02,0 -0.02,0.02 0,0 0,0 0,0.01l0.1 0.12c0,0 0.01,0 0.01,0 0.01,0 0.02,0 0.02,0l0.1 -0.12c0,-0.01 0,-0.01 0,-0.01 0,-0.01 0,-0.02 -0.01,-0.02l0 0z"/>
  </g>
 </g>
</svg>
