<svg xmlns="http://www.w3.org/2000/svg" xmlns:xlink="http://www.w3.org/1999/xlink" xmlns:xodm="http://www.corel.com/coreldraw/odm/2003" xml:space="preserve" width="471px" height="471px" style="shape-rendering:geometricPrecision; text-rendering:geometricPrecision; image-rendering:optimizeQuality; fill-rule:evenodd; clip-rule:evenodd" viewBox="0 0 1038.87 1038.87"> <defs>  <style type="text/css">   <![CDATA[    .fil1 {fill:none}    .fil0 {fill:#C9AE62}   ]]>  </style> </defs> <g id="Layer_x0020_1">  <metadata id="CorelCorpID_0Corel-Layer"></metadata>  <g id="_105553263571328">   <path class="fil0" d="M498.33 812.62c0,-7.04 0.29,-11.44 6.41,-17.34 13,-12.54 35.8,-3.14 35.8,14.04l0 3.3c0,10.88 -10.28,19.79 -21.1,19.79 -10.82,0 -21.11,-8.91 -21.11,-19.79zm172.81 19.79c-6.51,0 -11.28,-2.32 -14.68,-5.76 -21.21,-21.41 9.22,-50.69 29.7,-30.36 13.35,13.25 2.91,36.12 -15.02,36.12zm-324.51 -21.11c0,-12.51 9.3,-21.76 22.42,-21.76 10.82,0 20.45,9.29 20.45,21.76 0,11.3 -9.84,21.11 -21.11,21.11 -11.73,0 -21.76,-9.61 -21.76,-21.11zm338.36 -184.68l-331.11 0c-10.77,0 -21.81,-9.16 -26.02,-18.84 -9.85,-22.64 7.49,-45.14 28,-45.14l327.15 0c4.61,0 9.02,1.29 12.33,2.84 19.37,9.06 24.68,34.46 10.26,50.74 -3.98,4.51 -12.47,10.4 -20.61,10.4zm-186.66 -107.52l42.21 0 0 21.11 -42.21 0 0 -21.11zm140.49 -21.76l-240.75 0c-22.63,0 -32.32,-18.7 -32.32,-38.92 0,-6.02 31.49,-240.8 32.16,-243.55 1,-4.16 4.7,-9.07 9.4,-9.07l224.26 0c4.72,0 8.28,4 9.49,8.97 0.6,2.45 0.83,5.53 1.12,8.12l9.87 73.89c6.91,48.76 12.79,98.99 19.71,147.83 2.04,14.36 4.68,31.06 -6.71,43.34 -6.07,6.55 -13.88,9.39 -26.23,9.39zm-245.36 21.76l82.44 0 0 21.11 -110.15 0c-14.01,0 -25.89,1.42 -36.91,8.61 -1.67,1.09 -1.96,1.53 -3.98,2.6l0 -129.94 -63.32 0c-1.52,0 -1.98,0.46 -1.98,1.98l0 18.47c0,1.52 0.46,1.98 1.98,1.98l41.55 0 0 151.05c0,29.19 24.31,54.08 53.43,54.08l151.71 0 0 48.81c-3.83,1.02 -70.84,47.67 -82.85,55.67l-24.81 16.75c-2.32,1.55 -5.74,5.24 -8.63,4.36 -6.2,-1.88 -5.63,-6.86 -26.85,-6.86 -21.07,0 -40.23,21.15 -40.23,42.21 0,13.35 4.99,23.7 13.68,32.49 6.68,6.75 17.6,12.44 30.33,11.99 32.4,-1.15 51.92,-34.19 38.44,-62.29 3.69,-0.98 9.33,-6 12.79,-8.31l62.93 -42.61c4.42,-2.94 8.11,-5.62 12.53,-8.57 2.71,-1.8 10.84,-7.78 13.32,-8.44l0 44.85c-4.49,2.15 -9.08,3.34 -13.47,6.32 -22.84,15.5 -25.55,48.08 -5.17,67.73 3.65,3.53 7.62,5.59 12.48,7.97 14.01,6.86 32.42,3.43 43.97,-5.96 1.16,-0.94 1.87,-1.36 2.93,-2.34 9.39,-8.62 13.35,-19.74 13.35,-34.15 0,-11.77 -6.65,-23.54 -14.41,-29.78 -7.08,-5.69 -10.28,-6.13 -17.91,-9.79l0 -46.17c3.11,0.83 22.53,14.82 25.34,16.87l50.38 34.05c2.28,1.52 3.98,2.66 6.33,4.22 2.45,1.62 3.87,2.8 6.2,4.36 2.67,1.79 10.89,7.78 13.33,8.43 -0.24,2.85 -1.99,5.45 -2.89,8.33 -3.08,9.81 -1.76,22.04 2.66,30.82l6.25 9.58c7.57,9.63 20.34,15.25 32.89,15.25 19.73,0 37.64,-14.33 42.06,-33.13 4.34,-18.45 -3.46,-35.12 -16.22,-45.47 -10.38,-8.4 -26.72,-10.39 -39.54,-6.33 -3.34,1.05 -7.3,2.74 -10.04,5.12l-110.15 -74.53c-1.75,-1.24 -6.6,-3.48 -6.6,-5.94l0 -45.51 151.05 0c29.19,0 54.08,-24.3 54.08,-53.43l0 -151.7 41.56 0c1.52,0 1.98,-0.46 1.98,-1.98l0 -20.45 -65.3 0 0 129.94c-5.83,-3.08 -10.49,-6.66 -17.15,-8.58 -6.77,-1.95 -15.01,-2.63 -23.75,-2.63l-110.15 0 0 -21.11 83.11 0c30.58,0 49.47,-25.49 49.47,-57.38 0,-9.53 -27.38,-210.79 -29.41,-225.2 -1.58,-11.27 -2.46,-27.59 -6.88,-35.33 -5.11,-8.94 -14.2,-17.16 -25.71,-17.16l-228.22 0c-7.43,0 -15.09,4.82 -18.97,8.74 -4.92,4.96 -8.44,10.44 -10.02,17.68 -1.54,7.02 -2.54,16.77 -3.39,24.32l-6.58 49.48c-1.16,8.21 -2.37,16.65 -3.31,25.05 -2.74,24.55 -7.12,49.16 -9.84,73.93 -2.7,24.63 -7.03,49.44 -9.81,73.98 -0.82,7.18 1.3,17.52 3.46,24.06 6.63,20.13 21.48,37.83 46.59,37.83z"></path>   <rect class="fil1" width="1038.87" height="1038.87"></rect>  </g> </g></svg>